<svg id="Capa_1" enable-background="new 0 0 511.973 511.973" height="512" viewBox="0 0 511.973 511.973" width="512" xmlns="http://www.w3.org/2000/svg"><g><path d="m341.762 237.299c-2.066-4.692-5.031-9.088-8.875-12.932l-64.621-64.621c-3.843-3.843-8.24-6.809-12.932-8.874-15.706-6.971-34.745-4.013-47.625 8.867l-20.899 20.899c5.688 2.397 11.029 5.909 15.661 10.542l98.983 98.983c4.633 4.633 8.144 9.973 10.542 15.661l20.899-20.899c12.88-12.881 15.838-31.92 8.867-47.626z" fill="#ffff6f"/><path d="m111.242 212.712-89.334 89.334c-19.246 19.246-19.246 50.45 0 69.697l98.983 98.983c19.246 19.246 50.45 19.246 69.697 0l89.334-89.334z" fill="#b98eff"/><path d="m301.454 290.162-98.983-98.983c-19.246-19.246-50.45-19.246-69.696 0l-21.533 21.533 168.679 168.679 21.533-21.533c19.247-19.246 19.246-50.45 0-69.696z" fill="#ffff6f"/><path d="m427.193 26.8c-30.274 0-56.485 8.697-69.166 21.378-5.193 5.193-8.115 11.051-8.115 17.262 0 21.334 34.597 38.64 77.28 38.64 30.275 0 56.492-8.705 69.166-21.378 5.193-5.193 8.122-11.058 8.115-17.262.008-21.341-34.597-38.64-77.28-38.64z" fill="#ffceff"/><path d="m427.193 104.08c-42.683 0-77.28-17.306-77.28-38.64 0-6.211 2.921-12.068 8.115-17.262l-102.694 102.694c4.692 2.066 9.088 5.031 12.932 8.874l64.621 64.621c3.844 3.843 6.809 8.24 8.875 12.932l154.597-154.597c-12.674 12.673-38.891 21.378-69.166 21.378z" fill="#ff63ed"/><circle cx="195.507" cy="373.705" fill="#6d00ca" r="11.489"/><g><path d="m154.845 372.192-34.405-34.405c-2.929-2.929-2.929-7.678 0-10.606 2.929-2.929 7.678-2.929 10.606 0l34.405 34.405c2.929 2.929 2.929 7.678 0 10.606-2.928 2.93-7.677 2.929-10.606 0z" fill="#6d00ca"/></g><circle cx="118.928" cy="297.126" fill="#6d00ca" r="11.489"/><g><path d="m115.588 476.028-98.983-98.982c-22.14-22.14-22.14-58.164 0-80.303l89.334-89.334c2.929-2.929 7.678-2.929 10.606 0l168.68 168.68c1.407 1.406 2.197 3.314 2.197 5.303s-.79 3.897-2.197 5.303l-89.334 89.333c-22.191 22.191-58.11 22.195-80.303 0zm-4.346-252.71-84.031 84.031c-16.291 16.291-16.291 42.799 0 59.09l98.983 98.982c16.329 16.329 42.759 16.332 59.09 0l84.031-84.03z" fill="#6d00ca"/></g><path d="m485.196 31.409c-15.618-7.809-36.217-12.109-58.003-12.109-.002 0 0 0-.002 0-31.39 0-59.925 9.034-74.466 23.575l-102.694 102.693c-3.723 3.723-2.547 10.042 2.281 12.167 3.956 1.742 7.539 4.202 10.65 7.313l64.622 64.621c3.111 3.111 5.571 6.694 7.314 10.651 2.115 4.803 8.423 6.025 12.167 2.281l154.597-154.596c6.755-6.755 10.321-14.561 10.312-22.563.004-13.311-9.506-25.398-26.778-34.033zm-58.003 2.891c19.502 0 37.719 3.738 51.295 10.525 11.75 5.875 18.488 13.388 18.485 20.624.009 7.641-7.316 14.063-13.813 18.047-15.42 9.457-37.69 13.084-55.967 13.084-41.122 0-69.78-16.411-69.78-31.14 0-4.008 1.991-8.032 5.917-11.958 11.654-11.653 36.722-19.182 63.863-19.182zm33.242 73.719-117.082 117.082c-1.548-2.13-2.491.108-4.382-1.783l-67.824-67.869c-1.891-1.891-1.484-4.621-3.615-6.169l76.011-76.011c3.521 11.987 14.564 20.656 25.649 26.199 15.619 7.811 36.217 12.112 58 12.112 11.822 0 23.191-1.305 33.243-3.561z" fill="#e207b9"/><path d="m348.621 234.266c-2.494-5.66-6.003-10.775-10.431-15.202l-64.621-64.621c-4.431-4.432-9.549-7.942-15.192-10.427-18.872-8.377-41.364-4.189-55.971 10.419l-17.521 17.52c-19.589-6.218-41.905-1.588-57.414 13.92l-21.533 21.533c-2.929 2.929-2.929 7.678 0 10.606l168.68 168.68c1.464 1.464 3.384 2.197 5.303 2.197s3.839-.732 5.303-2.197l21.533-21.533c15.508-15.508 20.137-37.825 13.919-57.414l17.521-17.521c14.606-14.603 18.793-37.092 10.424-55.96zm-52.469 120.289-16.23 16.23-158.074-158.073 16.23-16.23c12.46-12.46 30.894-15.378 46.165-8.778 4.938 2.134 9.314 5.167 12.925 8.778l98.983 98.983c3.648 3.648 6.644 7.989 8.774 12.916 6.606 15.273 3.689 33.711-8.773 46.174zm31.44-74.934-13.796 13.796c-1.936-2.893-4.483-6.004-7.038-8.559l-98.983-98.983c-2.608-2.608-5.684-5.113-8.559-7.037l13.796-13.796c10.253-10.253 26.039-13.192 39.3-7.306 3.956 1.742 7.539 4.202 10.65 7.313l64.622 64.621c3.111 3.111 5.571 6.694 7.314 10.651.003.007.006.014.009.02 5.877 13.242 2.937 29.027-7.315 39.28z" fill="#f90"/></g></svg>