<svg id="Capa_1" enable-background="new 0 0 512 512" height="512" viewBox="0 0 512 512" width="512" xmlns="http://www.w3.org/2000/svg"><g><path d="m230.653 106.38-57.43 16.251c-2.173 6.089-3.32 12.489-3.32 19.02v1.367c0 9.58-7.766 17.347-17.346 17.347s-17.346-7.766-17.346-17.347v-1.367c0-2.801.142-5.596.406-8.378l-34.45 9.749c-12.848 3.636-22.933 13.609-26.712 26.416l-53.312 180.699c-3.662 12.412 7.907 23.934 20.304 20.223l67.362-20.169-29.126 137.302c-3.232 15.239 17.057 23.619 25.52 10.541l127.597-197.177c6.936-10.718-3.233-24.273-15.464-20.611l-60.455 18.1 89.69-172.421c5.553-10.675-4.339-22.822-15.918-19.545z" fill="#ff9bff"/><g><path d="m152.556 160.365c-9.58 0-17.347-7.766-17.347-17.347v-1.367c0-25.232 10.888-50.044 29.871-68.072 3.951-3.752 6-9.046 5.623-14.522-.608-8.823-7.997-16.211-16.82-16.82-5.277-.363-10.262 1.452-14.021 5.114-20.107 19.59-46.037 30.379-73.013 30.379-9.58 0-17.347-7.766-17.347-17.347s7.766-17.347 17.347-17.347c17.88 0 35.212-7.293 48.803-20.535 10.769-10.491 25.58-15.912 40.618-14.875 26.155 1.804 47.24 22.888 49.043 49.043 1.092 15.833-4.865 31.165-16.342 42.066-12.297 11.678-19.069 26.919-19.069 42.916v1.367c.001 9.581-7.766 17.347-17.346 17.347z" fill="#ffff6f"/></g><path d="m474.005 106.38-57.43 16.251c-2.173 6.089-3.32 12.489-3.32 19.02v1.367c0 9.58-7.766 17.347-17.346 17.347-9.581 0-17.347-7.766-17.347-17.347v-1.367c0-2.801.142-5.596.407-8.378l-34.45 9.749c-12.849 3.636-22.933 13.609-26.712 26.416l-53.312 180.699c-3.662 12.412 7.907 23.934 20.304 20.223l67.363-20.169-29.125 137.302c-3.233 15.239 17.056 23.619 25.519 10.541l127.597-197.177c6.936-10.718-3.233-24.273-15.464-20.611l-60.456 18.1 89.691-172.421c5.553-10.675-4.339-22.822-15.919-19.545z" fill="#ffceff"/><g><path d="m395.909 160.365c-9.58 0-17.347-7.766-17.347-17.347v-1.367c0-25.232 10.888-50.044 29.871-68.072 3.951-3.752 6-9.046 5.623-14.522-.608-8.823-7.997-16.211-16.82-16.82-5.277-.363-10.262 1.452-14.021 5.114-20.107 19.59-46.037 30.379-73.013 30.379-9.58 0-17.347-7.766-17.347-17.347s7.766-17.347 17.347-17.347c17.88 0 35.212-7.293 48.803-20.535 10.769-10.492 25.579-15.913 40.618-14.876 26.155 1.804 47.24 22.888 49.043 49.043 1.092 15.833-4.865 31.165-16.342 42.066-12.297 11.678-19.069 26.919-19.069 42.916v1.367c.001 9.582-7.766 17.348-17.346 17.348z" fill="#ffff6f"/></g><g><path d="m93.575 512c-2.786 0-5.625-.547-8.38-1.685-9.755-4.029-15.038-14.053-12.848-24.378l26.502-124.935-55.25 16.543c-8.375 2.506-17.425.232-23.618-5.937s-8.504-15.21-6.03-23.594l53.312-180.699c4.534-15.368 16.446-27.148 31.863-31.511l34.45-9.749c2.381-.672 4.943-.129 6.844 1.456 1.902 1.585.782 4.006.547 6.471-.247 2.599.153 5.179.153 7.668l.306 3.113c0 5.429 5.891 10.096 11.32 10.096s11.626-6.044 11.626-11.473l.765-2.142c0-7.309.72-13.667 3.212-20.652.815-2.285.498-4.519 2.833-5.181l57.43-16.252c8.281-2.341 16.805.347 22.241 7.022s6.345 15.566 2.373 23.202l-81.507 156.688 43.466-13.014c8.619-2.579 17.672.402 23.07 7.597 5.398 7.194 5.729 16.722.842 24.274l-127.597 197.181c-4.114 6.357-10.847 9.891-17.925 9.891zm15.233-169.309c1.857 0 3.678.69 5.083 1.984 1.947 1.794 2.804 4.482 2.255 7.072l-29.126 137.302c-1.048 4.94 2.72 6.914 3.9 7.401 1.179.487 5.242 1.749 7.985-2.491l127.597-197.178c2.19-3.384.364-6.307-.247-7.122-.612-.814-2.903-3.387-6.769-2.229l-60.455 18.1c-2.889.863-6.011-.083-7.931-2.405s-2.265-5.568-.875-8.241l89.69-172.42c1.753-3.371-.089-6.063-.696-6.808-.606-.745-2.87-3.094-6.526-2.06l-53.543 15.152c-1.162 4.232-3.3 7.73-3.3 12.076l.395 2.175c0 13.7-9.599 20.122-23.299 20.122-13.605 0-25.084-6.246-25.238-19.816l-24.503 6.934c-10.432 2.952-18.492 10.923-21.56 21.322l-53.309 180.698c-.928 3.146-.095 6.406 2.229 8.721s5.587 3.134 8.731 2.194l67.362-20.169c.707-.211 1.432-.314 2.15-.314z" fill="#e207b9"/></g><g><g><path d="m152.556 167.865c-13.7 0-24.847-11.146-24.847-24.847v-1.367c0-27.279 11.738-54.073 32.206-73.511 2.324-2.207 3.528-5.33 3.305-8.568-.35-5.082-4.771-9.503-9.853-9.853-3.166-.217-6.03.82-8.271 3.003-21.516 20.964-49.304 32.508-78.247 32.508-13.701 0-24.847-11.146-24.847-24.847s11.146-24.847 24.847-24.847c15.913 0 31.386-6.537 43.569-18.407 12.296-11.98 29.19-18.17 46.368-16.987 29.871 2.061 53.949 26.14 56.01 56.01 1.246 18.072-5.555 35.575-18.66 48.021-10.791 10.248-16.734 23.557-16.734 37.478v1.367c.001 13.701-11.145 24.847-24.846 24.847zm-.017-133.174c.616 0 1.235.021 1.858.064 12.479.861 22.927 11.309 23.787 23.786.532 7.717-2.362 15.18-7.941 20.477-17.499 16.619-27.535 39.449-27.535 62.634v1.367c0 5.429 4.417 9.846 9.846 9.846 5.43 0 9.847-4.417 9.847-9.846v-1.367c0-18.074 7.601-35.247 21.404-48.355 9.85-9.355 14.962-22.517 14.025-36.111-1.548-22.44-19.637-40.529-42.077-42.077-12.919-.893-25.627 3.762-34.868 12.765-15.001 14.615-34.192 22.663-54.037 22.663-5.43 0-9.847 4.417-9.847 9.847 0 5.429 4.417 9.846 9.847 9.846 25.01 0 49.081-10.033 67.779-28.251 4.864-4.738 11.166-7.288 17.912-7.288z" fill="#f90"/></g></g><g><path d="m336.928 512c-2.786 0-5.625-.547-8.381-1.685-9.754-4.029-15.037-14.053-12.848-24.378l26.502-124.935-55.251 16.543c-8.378 2.506-17.425.232-23.618-5.937s-8.504-15.21-6.03-23.594l53.312-180.699c4.534-15.368 16.446-27.148 31.863-31.511l34.45-9.749c2.381-.674 4.943-.129 6.845 1.456 1.901 1.585 1.816 5.089 1.581 7.554-.248 2.599-.373 5.179-.373 7.668v1.367c0 5.429 5.399 11.262 10.829 11.262 5.429 0 11.433-6.519 11.433-11.948v-1.367c0-7.309 1.125-15.158 3.618-22.143.815-2.285 1.338-3.83 3.673-4.491l57.43-16.252c8.287-2.343 16.807.348 22.243 7.022 5.436 6.675 6.344 15.566 2.371 23.202l-81.507 156.69 43.467-13.014c8.617-2.581 17.672.402 23.07 7.596s5.729 16.722.843 24.274l-127.597 197.178c-4.114 6.357-10.847 9.891-17.925 9.891zm15.233-169.309c1.858 0 3.679.69 5.083 1.984 1.947 1.794 2.804 4.482 2.255 7.072l-29.125 137.302c-1.048 4.94 2.721 6.914 3.9 7.401s5.241 1.747 7.985-2.491l127.596-197.178c2.19-3.384.364-6.307-.247-7.122s-2.911-3.384-6.769-2.229l-60.456 18.1c-2.888.866-6.01-.083-7.931-2.405s-2.265-5.568-.874-8.241l89.691-172.42c1.753-3.371-.09-6.063-.696-6.808-.605-.745-2.872-3.093-6.526-2.061l-53.542 15.152c-1.162 4.232-3.011 8.557-3.011 12.904v1.367c0 13.7-9.565 23.233-23.265 23.233-13.606 0-25.012-9.377-25.165-22.947l-24.503 6.934c-10.432 2.952-18.491 10.923-21.56 21.322l-53.312 180.699c-.929 3.146-.095 6.406 2.23 8.721 2.322 2.315 5.589 3.136 8.73 2.194l67.362-20.169c.707-.211 1.432-.314 2.15-.314z" fill="#e207b9"/></g><g><g><path d="m395.909 167.865c-13.7 0-24.847-11.146-24.847-24.847v-1.367c0-27.279 11.738-54.073 32.206-73.511 2.324-2.207 3.528-5.33 3.305-8.568-.351-5.083-4.771-9.503-9.853-9.853-3.185-.22-6.03.821-8.272 3.004-21.515 20.962-49.303 32.507-78.246 32.507-13.7 0-24.847-11.146-24.847-24.847s11.147-24.847 24.847-24.847c15.912 0 31.386-6.537 43.57-18.407 12.295-11.979 29.199-18.168 46.367-16.987 29.871 2.061 53.949 26.14 56.011 56.01 1.246 18.072-5.556 35.574-18.66 48.021-10.791 10.248-16.734 23.558-16.734 37.478v1.367c0 13.701-11.146 24.847-24.847 24.847zm-.017-133.174c.616 0 1.235.021 1.858.064 12.479.86 22.927 11.309 23.787 23.786.532 7.716-2.361 15.18-7.941 20.477-17.498 16.619-27.535 39.449-27.535 62.634v1.367c0 5.429 4.417 9.846 9.847 9.846 5.429 0 9.846-4.417 9.846-9.846v-1.367c0-18.074 7.602-35.246 21.404-48.354 9.851-9.356 14.963-22.518 14.026-36.112-1.548-22.44-19.638-40.529-42.078-42.077-12.915-.891-25.626 3.762-34.868 12.766-15 14.614-34.191 22.663-54.037 22.663-5.43 0-9.847 4.417-9.847 9.847 0 5.429 4.417 9.846 9.847 9.846 25.01 0 49.081-10.033 67.779-28.251 4.865-4.739 11.167-7.289 17.912-7.289z" fill="#f90"/></g></g></g></svg>