<svg id="Capa_1" enable-background="new 0 0 512 512" height="512" viewBox="0 0 512 512" width="512" xmlns="http://www.w3.org/2000/svg"><g><path d="m133.734 230.341h244.531c7.579 0 14.709 1.922 20.93 5.304 5.497-7.476 8.751-16.704 8.751-26.696 0-38.635-31.32-69.956-69.956-69.956h-163.981c-38.635 0-69.956 31.32-69.956 69.956 0 9.991 3.254 19.22 8.751 26.696 6.221-3.382 13.351-5.304 20.93-5.304z" fill="#ff63ed"/><path d="m322.348 60.044c-20.153-8.524-37.234-22.975-48.104-41.966-8.073-14.105-28.415-14.105-36.488 0-10.87 18.991-27.95 33.442-48.104 41.966-25.108 10.62-42.726 35.482-42.726 64.458 0 6.567 1.413 12.801 3.938 18.428 7.247-2.541 15.031-3.938 23.145-3.938h163.981c8.114 0 15.899 1.397 23.145 3.938 2.525-5.627 3.938-11.861 3.938-18.428.001-28.976-17.617-53.838-42.725-64.458z" fill="#ff9bff"/><path d="m370.611 138.722c1.297-4.604 1.962-9.36 1.962-14.219 0-31.198-18.568-59.211-47.304-71.366-19.264-8.147-34.657-21.559-44.516-38.784-5.144-8.987-14.398-14.353-24.753-14.353s-19.609 5.366-24.753 14.353c-9.859 17.225-25.252 30.636-44.516 38.784-28.736 12.155-47.304 40.167-47.304 71.366 0 4.859.666 9.616 1.962 14.219-26.45 12.336-44.835 39.168-44.835 70.227 0 11.289 3.53 22.057 10.209 31.139 2.221 3.021 6.333 3.938 9.625 2.146 5.286-2.874 11.285-4.393 17.347-4.393h244.531c6.063 0 12.061 1.519 17.347 4.393 1.133.616 2.362.912 3.578.912 2.319 0 4.589-1.076 6.046-3.057 6.679-9.083 10.209-19.85 10.209-31.139 0-31.06-18.384-57.892-44.835-70.228zm-215.045-5.004c-.758-2.993-1.14-6.074-1.14-9.215 0-25.159 14.974-47.749 38.147-57.55 22.313-9.438 40.188-25.049 51.691-45.148 2.44-4.262 6.827-6.805 11.736-6.805s9.296 2.543 11.735 6.804c11.504 20.099 29.379 35.71 51.692 45.148 23.174 9.802 38.147 32.392 38.147 57.551 0 3.141-.382 6.222-1.14 9.215-6.02-1.477-12.39-2.225-18.443-2.225h-163.982c-6.069 0-12.445.753-18.443 2.225zm240.747 92.39c-5.744-2.149-12.938-1.323-19.111-1.323l-242.731-.409c-6.173 0-13.04-.417-18.784 1.733-2.717-5.276-4.133-11.112-4.133-17.159 0-27.604 18.008-51.067 42.887-59.299 6.604-2.181 13.316-3.157 19.569-3.157h163.981c6.448 0 13.068 1.011 19.569 3.157 24.879 8.232 42.887 31.695 42.887 59.299-.001 6.046-1.417 11.882-4.134 17.158z" fill="#e207b9"/><path d="m378.266 356.863h-244.532c-5.477 0-10.715-1.012-15.549-2.845l16.316 102.189c4.442 27.822 28.441 48.292 56.614 48.292h129.769c28.174 0 52.172-20.471 56.614-48.292l16.316-102.189c-4.833 1.833-10.071 2.845-15.548 2.845z" fill="#ffd600"/><path d="m378.266 230.341h-244.532c-24.233 0-43.877 19.645-43.877 43.877v38.768c0 24.233 19.645 43.877 43.877 43.877h244.531c24.233 0 43.877-19.645 43.877-43.877v-38.768c.001-24.233-19.643-43.877-43.876-43.877z" fill="#ffff6f"/><path d="m133.734 356.863c-5.477 0-10.715-1.012-15.549-2.845l6.359 39.825c3.019.341 6.082.533 9.19.533h244.532c3.108 0 6.172-.192 9.19-.533l6.359-39.825c-4.834 1.833-10.072 2.845-15.549 2.845z" fill="#f90"/><circle cx="311.632" cy="284.235" fill="#f90" r="11.804"/><g><path d="m280.994 312.47h-49.988c-4.142 0-7.5-3.358-7.5-7.5s3.358-7.5 7.5-7.5h49.988c4.142 0 7.5 3.358 7.5 7.5s-3.358 7.5-7.5 7.5z" fill="#f90"/></g><g fill="#f90"><circle cx="200.368" cy="284.235" r="11.804"/><path d="m378.266 222.841h-244.532c-28.33 0-51.377 23.048-51.377 51.377v38.768c0 20.341 11.883 37.958 29.07 46.276l15.668 98.128c5.053 31.643 31.978 54.61 64.021 54.61h129.769c32.043 0 58.968-22.967 64.021-54.61l15.668-98.128c17.188-8.319 29.07-25.935 29.07-46.276v-38.768c-.001-28.329-23.049-51.377-51.378-51.377zm6.365 141.13-14.538 91.054c-3.884 24.322-24.579 41.975-49.208 41.975h-129.769c-24.63 0-45.325-17.653-49.208-41.975l-14.538-91.054c1.571.195 4.179.393 6.365.393h244.531c2.134-.001 4.849-.205 6.365-.393zm30.012-50.985c0 15.609-9.884 28.951-23.721 34.103-4.015 1.492-8.353 2.275-12.656 2.275h-244.532c-4.197 0-8.53-.742-12.657-2.275-13.837-5.152-23.721-18.493-23.721-34.103v-38.768c0-20.059 16.319-36.377 36.377-36.377h244.531c20.059 0 36.377 16.319 36.377 36.377v38.768z"/></g></g></svg>