<svg id="Capa_1" enable-background="new 0 0 512 512" height="512" viewBox="0 0 512 512" width="512" xmlns="http://www.w3.org/2000/svg"><g><path d="m464.532 252.734h-417.063c-23.846 0-42.387 20.746-39.718 44.442l8.99 79.834c3.683 32.708 31.347 57.432 64.262 57.432h68.038c27.27 0 51.609-17.106 60.846-42.764l6.384-17.732c4.179-11.607 15.189-19.346 27.526-19.346h24.41c12.336 0 23.347 7.739 27.526 19.346l6.384 17.732c9.237 25.658 33.576 42.764 60.846 42.764h68.038c32.915 0 60.579-24.724 64.262-57.432l8.99-79.834c2.665-23.696-15.876-44.442-39.721-44.442z" fill="#ddbeff"/><path d="m149.357 301.879h-68.67c-11.844 0-21.054 10.305-19.728 22.075l5.174 45.945c.987 8.769 8.404 15.398 17.229 15.398h63.322c8.825 0 16.241-6.629 17.229-15.398l5.174-45.945c1.323-11.77-7.886-22.075-19.73-22.075z" fill="#88f8d8"/><path d="m362.643 301.879h68.67c11.844 0 21.054 10.305 19.728 22.075l-5.174 45.945c-.987 8.769-8.404 15.398-17.229 15.398h-63.322c-8.825 0-16.241-6.629-17.229-15.398l-5.174-45.945c-1.323-11.77 7.886-22.075 19.73-22.075z" fill="#ff63ed"/><path d="m336.072 175.509c11.212 0 20.946-7.725 23.492-18.645l5.884-25.238 45.069 121.107h54.015c8.734 0 16.75 2.792 23.28 7.484l-97.392-170.501c-4.294-7.518-12.288-12.157-20.946-12.157h-33.402c-13.322 0-24.122 10.8-24.122 24.122v49.707c0 13.321 10.8 24.121 24.122 24.121z" fill="#b98eff"/><path d="m175.928 175.509c-11.212 0-20.946-7.725-23.492-18.645l-5.884-25.238-45.069 121.107h-54.015c-8.734 0-16.75 2.792-23.28 7.484l97.392-170.501c4.294-7.518 12.288-12.157 20.946-12.157h33.402c13.322 0 24.122 10.8 24.122 24.122v49.707c0 13.321-10.8 24.121-24.122 24.121z" fill="#b98eff"/><g><path d="m146.683 392.797h-63.323c-12.655 0-23.266-9.483-24.682-22.059l-5.173-45.944c-.87-7.729 1.603-15.489 6.786-21.288 5.183-5.8 12.617-9.126 20.395-9.126h68.67c7.778 0 15.212 3.326 20.395 9.126 5.183 5.799 7.657 13.559 6.787 21.289l-5.173 45.944c-1.417 12.574-12.028 22.058-24.682 22.058zm-65.997-83.417c-3.565 0-6.835 1.463-9.211 4.121-2.375 2.658-3.463 6.072-3.065 9.614l5.174 45.944c.561 4.981 4.763 8.737 9.776 8.737h63.322c5.012 0 9.215-3.756 9.776-8.737l5.173-45.944c.399-3.542-.689-6.956-3.065-9.614-2.375-2.658-5.646-4.121-9.211-4.121z" fill="#007ea8"/></g><g><path d="m428.64 392.797h-63.322c-12.655 0-23.265-9.483-24.682-22.059l-5.174-45.944c-.87-7.73 1.604-15.489 6.787-21.289s12.617-9.126 20.395-9.126h68.671c7.778 0 15.212 3.326 20.395 9.126 5.183 5.799 7.656 13.559 6.786 21.288l-5.173 45.944c-1.417 12.576-12.028 22.06-24.683 22.06zm-65.996-83.417c-3.565 0-6.836 1.463-9.211 4.121s-3.463 6.072-3.065 9.614l5.173 45.944c.561 4.981 4.764 8.737 9.776 8.737h63.322c5.012 0 9.215-3.756 9.776-8.737l5.173-45.944c.399-3.542-.689-6.956-3.064-9.614-2.376-2.658-5.646-4.121-9.211-4.121z" fill="#e207b9"/></g><path d="m499.926 261.071c-1.945-2.176-4.082-4.139-6.359-5.899l-96.635-169.176c-5.615-9.831-16.137-15.938-27.458-15.938h-33.403c-17.436 0-31.622 14.185-31.622 31.622v49.707c0 17.436 14.185 31.622 31.622 31.622 14.778 0 27.441-10.051 30.796-24.441l.232-.997 32.623 87.663h-287.445l32.623-87.663.232.997c3.355 14.391 16.018 24.442 30.796 24.442 17.436 0 31.622-14.185 31.622-31.622v-49.708c0-17.436-14.185-31.622-31.622-31.622h-33.403c-11.322 0-21.843 6.107-27.458 15.938l-96.634 169.176c-2.277 1.76-4.414 3.722-6.359 5.899-8.995 10.065-13.287 23.53-11.777 36.944l8.99 79.834c4.114 36.539 34.945 64.093 71.715 64.093h68.038c30.339 0 57.626-19.179 67.902-47.724l6.384-17.732c3.098-8.605 11.323-14.386 20.469-14.386h24.41c9.145 0 17.371 5.781 20.469 14.387l6.384 17.732c10.276 28.545 37.564 47.724 67.902 47.724h68.038c36.77 0 67.601-27.554 71.715-64.093l8.99-79.834c1.51-13.415-2.782-26.88-11.777-36.945zm-127.449-132.061c-1.154-3.101-4.204-5.078-7.506-4.869-3.302.21-6.076 2.56-6.828 5.782l-5.884 25.239c-1.763 7.564-8.42 12.847-16.187 12.847-9.165 0-16.621-7.456-16.621-16.621v-49.708c0-9.165 7.456-16.621 16.621-16.621h33.403c5.951 0 11.481 3.21 14.433 8.377l86.945 152.213c-1.301-.173-4.12-.416-6.32-.416h-48.803zm-331.329 116.639 86.945-152.213c2.951-5.167 8.482-8.377 14.432-8.377h33.403c9.165 0 16.621 7.456 16.621 16.621v49.707c0 9.165-7.456 16.621-16.621 16.621-7.768 0-14.424-5.283-16.187-12.847l-5.884-25.238c-.751-3.222-3.525-5.571-6.828-5.782-3.302-.209-6.352 1.768-7.506 4.869l-43.252 116.224h-48.803c-1.983 0-4.491.173-6.32.415zm455.648 50.687-8.99 79.834c-3.259 28.944-27.682 50.771-56.809 50.771h-68.037c-24.033 0-45.648-15.192-53.789-37.805l-6.384-17.731c-5.234-14.538-19.131-24.306-34.582-24.306h-24.41c-15.452 0-29.349 9.768-34.582 24.306l-6.384 17.732c-8.14 22.612-29.756 37.805-53.789 37.805h-68.038c-29.127 0-53.55-21.827-56.809-50.771l-8.99-79.834c-1.034-9.175 1.903-18.385 8.055-25.27 6.239-6.981 15.177-10.833 24.21-10.833h417.063c9.033 0 17.971 3.852 24.21 10.833 6.153 6.884 9.089 16.094 8.055 25.269z" fill="#6d00ca"/></g></svg>