<svg id="Capa_1" enable-background="new 0 0 512 512" height="512" viewBox="0 0 512 512" width="512" xmlns="http://www.w3.org/2000/svg"><g><path d="m87.722 125.628c0-30.068 24.375-54.443 54.443-54.443h-106.014c-15.824 0-28.651 12.827-28.651 28.651v29.403c0 11.307 6.668 21.512 16.975 26.163 23.544 10.624 63.247 34.23 63.247 72.606z" fill="#9448f5"/><path d="m475.849 71.185h-106.013c30.068 0 54.443 24.375 54.443 54.443v102.381c0-38.376 39.704-61.982 63.247-72.606 10.306-4.651 16.975-14.856 16.975-26.163v-29.404c-.001-15.824-12.828-28.651-28.652-28.651z" fill="#9448f5"/><g><path d="m87.722 235.508c-4.142 0-7.5-3.358-7.5-7.5 0-34.126-36.86-55.855-58.832-65.77-12.994-5.863-21.39-18.816-21.39-32.999v-29.403c0-19.934 16.217-36.151 36.151-36.151h106.014c4.142 0 7.5 3.358 7.5 7.5s-3.358 7.5-7.5 7.5c-25.884 0-46.943 21.059-46.943 46.943v102.38c0 4.142-3.358 7.5-7.5 7.5zm-51.571-156.823c-11.663 0-21.151 9.488-21.151 21.151v29.403c0 8.298 4.93 15.884 12.56 19.327 15.703 7.085 38.017 19.608 52.662 38.286v-61.224c0-18.746 8.372-35.575 21.571-46.943z" fill="#6d00ca"/></g><g><path d="m424.278 235.508c-4.143 0-7.5-3.358-7.5-7.5v-102.38c0-25.884-21.059-46.943-46.942-46.943-4.143 0-7.5-3.358-7.5-7.5s3.357-7.5 7.5-7.5h106.014c19.934 0 36.15 16.217 36.15 36.151v29.403c0 14.183-8.396 27.136-21.39 33-21.972 9.915-58.832 31.644-58.832 65.77 0 4.141-3.357 7.499-7.5 7.499zm-14.07-156.823c13.198 11.368 21.57 28.197 21.57 46.943v61.225c14.646-18.678 36.96-31.2 52.662-38.286 7.63-3.443 12.56-11.029 12.56-19.327v-29.404c0-11.663-9.488-21.151-21.15-21.151z" fill="#6d00ca"/></g><path d="m369.836 71.185h-227.672c-30.068 0-54.443 24.375-54.443 54.443v131.599c0 30.027 24.309 54.374 54.321 54.44-3.141-5.59-4.94-12.036-4.94-18.904v-142.568h235.732c2.483-.001 4.844-.518 6.989-1.441l6.516 51.496c.978 7.733-4.172 14.683-11.442 16.302v76.211c0 6.869-1.799 13.314-4.94 18.904 30.012-.066 54.321-24.413 54.321-54.44v-131.599c0-30.068-24.374-54.443-54.442-54.443z" fill="#ff63ed"/><g><path d="m369.957 319.167c-2.66 0-5.123-1.41-6.469-3.705-1.35-2.3-1.376-5.145-.069-7.469 2.603-4.632 3.979-9.898 3.979-15.23v-76.211c0-3.514 2.44-6.557 5.87-7.321 3.626-.807 6.1-4.338 5.632-8.04l-5.505-43.503c-.186.004-.37.006-.555.006h-228.237v135.068c0 5.331 1.376 10.598 3.979 15.23 1.306 2.325 1.28 5.168-.069 7.469-1.347 2.295-3.809 3.705-6.469 3.705-.005 0-.011 0-.017 0-34.079-.075-61.804-27.861-61.804-61.939v-131.599c0-34.155 27.788-61.943 61.943-61.943h227.671c34.155 0 61.942 27.788 61.942 61.943v131.599c0 34.079-27.726 61.865-61.805 61.939-.006.001-.011.001-.017.001zm-227.792-240.482c-25.884 0-46.943 21.059-46.943 46.943v131.599c0 21.909 15.122 40.386 35.476 45.521-.725-3.269-1.095-6.619-1.095-9.986v-142.568c0-4.142 3.358-7.5 7.5-7.5h235.733c1.391-.001 2.746-.28 4.022-.83 2.163-.932 4.639-.792 6.688.377 2.046 1.169 3.423 3.232 3.719 5.57l6.517 51.496c1.184 9.351-3.509 18.086-11.383 22.37v71.085c0 3.367-.371 6.718-1.096 9.986 20.354-5.136 35.477-23.613 35.477-45.521v-131.599c0-25.884-21.059-46.943-46.942-46.943z" fill="#e207b9"/></g><path d="m379.824 148.753c-2.147.925-4.512 1.442-6.999 1.442h-36.445l-6.333 50.055c-1.119 8.84 5.771 16.656 14.681 16.656h26.93c8.91 0 15.8-7.817 14.681-16.656z" fill="#9448f5"/><circle cx="358.193" cy="191.426" fill="#6d00ca" r="7.653"/><g><path d="m336.238 331.422v85.24c0 13.339-10.814 24.153-24.153 24.153h-40.317c-13.339 0-24.153-10.814-24.153-24.153s10.814-24.153 24.153-24.153h16.164v-61.086h48.306z" fill="#88f8d8"/></g><g><path d="m223.826 331.422v85.24c0 13.339-10.814 24.153-24.153 24.153h-40.317c-13.339 0-24.153-10.814-24.153-24.153s10.814-24.153 24.153-24.153h16.164v-61.086h48.306z" fill="#88f8d8"/></g><g><g><path d="m312.085 448.315h-40.317c-17.454 0-31.654-14.2-31.654-31.653s14.2-31.653 31.654-31.653h8.664v-53.586c0-4.142 3.357-7.5 7.5-7.5h48.307c4.143 0 7.5 3.358 7.5 7.5v85.24c-.001 17.452-14.2 31.652-31.654 31.652zm-40.317-48.307c-9.183 0-16.654 7.471-16.654 16.653s7.471 16.653 16.654 16.653h40.317c9.183 0 16.653-7.471 16.653-16.653v-77.74h-33.307v53.586c0 4.142-3.357 7.5-7.5 7.5h-16.163z" fill="#007ea8"/></g></g><g><g><path d="m199.673 448.315h-40.317c-17.454 0-31.653-14.2-31.653-31.653s14.2-31.653 31.653-31.653h8.664v-53.586c0-4.142 3.358-7.5 7.5-7.5h48.307c4.142 0 7.5 3.358 7.5 7.5v85.24c-.001 17.452-14.201 31.652-31.654 31.652zm-40.318-48.307c-9.183 0-16.653 7.471-16.653 16.653s7.471 16.653 16.653 16.653h40.317c9.183 0 16.653-7.471 16.653-16.653v-77.74h-33.305v53.586c0 4.142-3.358 7.5-7.5 7.5h-16.165z" fill="#007ea8"/></g></g><path d="m175.519 331.422h48.307v32.276h-48.307z" fill="#007ea8"/><path d="m287.931 331.422h48.307v32.276h-48.307z" fill="#007ea8"/><path d="m371.658 216.905h-26.93c-8.91 0-15.8-7.817-14.681-16.656l6.333-50.055h-197.205c-.702 0-1.392-.052-2.073-.131v142.699c0 21.351 17.309 38.66 38.66 38.66h160.476c21.351 0 38.66-17.309 38.66-38.66v-76.211c-1.041.232-2.124.354-3.24.354z" fill="#ffff6f"/><g><path d="m336.238 338.922h-160.476c-25.453 0-46.16-20.707-46.16-46.16v-142.699c0-2.141.915-4.179 2.514-5.603s3.73-2.095 5.856-1.847c.464.054.857.081 1.202.081h197.206c2.153 0 4.202.925 5.626 2.541s2.085 3.765 1.814 5.901l-6.333 50.055c-.267 2.109.36 4.147 1.766 5.742 1.405 1.595 3.35 2.473 5.476 2.473h26.93c.547 0 1.087-.059 1.606-.175 2.221-.496 4.548.044 6.323 1.468 1.776 1.423 2.81 3.576 2.81 5.852v76.211c-.001 25.453-20.708 46.16-46.16 46.16zm-191.636-181.228v135.068c0 17.182 13.979 31.16 31.16 31.16h160.476c17.182 0 31.159-13.978 31.159-31.16v-68.357h-22.669c-6.399 0-12.497-2.753-16.729-7.555-4.231-4.801-6.197-11.195-5.394-17.543l5.265-41.613z" fill="#f90"/></g><circle cx="307.262" cy="257.169" fill="#f90" r="10.877"/><g><path d="m279.03 283.776h-46.061c-4.142 0-7.5-3.358-7.5-7.5s3.358-7.5 7.5-7.5h46.061c4.143 0 7.5 3.358 7.5 7.5s-3.357 7.5-7.5 7.5z" fill="#f90"/></g><circle cx="204.738" cy="257.169" fill="#f90" r="10.877"/><path d="m372.825 114.764h-233.65c-9.784 0-17.715 7.932-17.715 17.716 0 9.784 7.931 17.715 17.715 17.715h233.65c9.784 0 17.715-7.932 17.715-17.715.001-9.785-7.931-17.716-17.715-17.716z" fill="#ddbeff"/><path d="m387.881 152.694c6.162-4.602 10.16-11.95 10.16-20.215 0-13.904-11.312-25.215-25.216-25.215h-233.65c-13.904 0-25.215 11.312-25.215 25.215s11.312 25.215 25.215 25.215h188.697l-5.265 41.613c-1.683 13.295 8.685 25.098 22.122 25.098h26.93c13.398 0 23.81-11.764 22.122-25.098zm-16.223 56.711h-26.93c-4.367 0-7.797-3.817-7.241-8.215l5.504-43.496h29.834c.189 0 .38-.002.569-.006l5.505 43.502c.557 4.402-2.878 8.215-7.241 8.215zm1.167-66.711c-10.367 0-221.447 0-233.65 0-5.633 0-10.215-4.583-10.215-10.215s4.583-10.215 10.215-10.215h233.65c5.633 0 10.216 4.583 10.216 10.215 0 5.682-4.638 10.215-10.216 10.215z" fill="#6d00ca"/></g></svg>