<svg id="Capa_1" enable-background="new 0 0 512 512" height="512" viewBox="0 0 512 512" width="512" xmlns="http://www.w3.org/2000/svg"><g><path d="m201.663 411.368-11.739 16.915c-10.642 15.321-30.652 20.952-47.722 13.426l-111.469-49.161c-18.809-8.292-27.94-29.782-20.849-49.078l72.816-198.196h55.144l-66.48 180.94c-4.917 13.395 1.418 28.312 14.482 34.068z" fill="#7181ff"/><path d="m481.267 392.548-111.469 49.161c-17.07 7.526-37.08 1.894-47.722-13.426l-11.739-16.915 115.817-51.086c13.064-5.756 19.399-20.673 14.482-34.068l-66.48-180.94h55.144l72.815 198.197c7.091 19.295-2.039 40.785-20.848 49.077z" fill="#7181ff"/><g><path d="m139.176 448.572-111.47-49.161c-22.376-9.865-33.296-35.574-24.861-58.528l72.814-198.196c1.085-2.952 3.896-4.914 7.04-4.914h55.145c2.451 0 4.747 1.198 6.151 3.208 1.402 2.01 1.734 4.579.89 6.879l-66.481 180.94c-3.545 9.656 1.052 20.47 10.465 24.618l115.82 51.087c2.049.904 3.587 2.675 4.194 4.831.606 2.155.219 4.468-1.059 6.308l-11.739 16.915c-12.704 18.291-36.656 24.941-56.909 16.013zm-51.242-295.798-71.008 193.283c-5.712 15.542 1.682 32.95 16.833 39.629l111.47 49.161c13.752 6.062 29.96 1.504 38.535-10.843l6.554-9.443-107.499-47.417c-16.637-7.33-24.762-26.444-18.496-43.515l62.775-170.855z" fill="#2115c2"/></g><g><path d="m315.915 432.562-11.74-16.918c-1.277-1.839-1.665-4.153-1.059-6.308s2.145-3.927 4.194-4.831l115.816-51.086c9.418-4.149 14.014-14.963 10.468-24.62l-66.479-180.939c-.845-2.3-.513-4.869.89-6.879s3.699-3.208 6.151-3.208h55.144c3.145 0 5.955 1.962 7.04 4.914l72.814 198.196c8.435 22.954-2.485 48.663-24.863 58.528l-111.468 49.16c-20.203 8.908-44.175 2.321-56.908-16.009zm5.767-18.001 6.555 9.446c8.575 12.344 24.784 16.904 38.535 10.839l111.468-49.16h.001c15.151-6.679 22.545-24.086 16.833-39.628l-71.009-193.283h-39.163l62.774 170.853c6.267 17.073-1.858 36.187-18.499 43.518z" fill="#2115c2"/></g><path d="m396.64 66.993h-281.28c-18.043 0-32.66 14.627-32.66 32.66v45.621h107.4c3.966-13.677 4.876-24.594 4.892-24.828.671-9.982 9.31-17.535 19.29-16.86 9.983.671 17.531 9.308 16.86 19.29-.067.993-.733 9.929-3.596 22.398h56.908c-2.863-12.469-3.529-21.405-3.596-22.398-.671-9.982 6.877-18.619 16.86-19.29 9.98-.675 18.619 6.877 19.29 16.86.016.234.926 11.151 4.892 24.828h107.4v-45.621c0-18.033-14.616-32.66-32.66-32.66z" fill="#88f8d8"/><path d="m440.636 326.214-66.48-180.94h-52.256c4.647 16.025 13.49 35.84 30.019 46.712 8.359 5.498 10.678 16.731 5.18 25.091-5.509 8.376-16.747 10.667-25.091 5.18-29.736-19.558-42.32-54.183-47.555-76.983h-56.908c-5.235 22.8-17.819 57.425-47.555 76.983-8.343 5.487-19.581 3.195-25.091-5.18-5.498-8.359-3.178-19.593 5.18-25.091 16.53-10.872 25.373-30.687 30.019-46.712h-52.257l-66.48 180.94c-4.917 13.395 1.418 28.312 14.482 34.068l115.817 51.086 36.708-52.867c8.53-12.298 26.728-12.298 35.258 0l36.708 52.867 115.817-51.086c13.066-5.756 19.402-20.673 14.485-34.068z" fill="#88f8d8"/><path d="m447.677 323.629c-.001 0-.001-.001-.001-.002l-62.774-170.853h44.398c4.143 0 7.5-3.358 7.5-7.5v-45.621c0-22.145-18.016-40.161-40.16-40.161h-281.28c-22.145 0-40.16 18.016-40.16 40.161v45.621c0 4.142 3.358 7.5 7.5 7.5h44.398l-62.775 170.855c-6.266 17.071 1.859 36.185 18.496 43.515l115.818 51.086c3.285 1.449 7.138.366 9.187-2.585l36.711-52.87c2.644-3.812 6.823-5.998 11.465-5.998s8.822 2.186 11.468 6.001l36.708 52.867c2.048 2.951 5.901 4.035 9.187 2.585l115.814-51.085c16.641-7.331 24.766-26.445 18.5-43.516zm-357.477-185.856v-38.12c0-13.873 11.287-25.16 25.16-25.16h281.28c13.873 0 25.16 11.287 25.16 25.16v38.12h-47.644-46.502c-2.529-10.271-3.161-17.807-3.163-17.831-.459-6.827-3.549-13.067-8.702-17.571-5.155-4.505-11.764-6.731-18.574-6.269-14.094.948-24.788 13.184-23.84 27.281.052.775.458 6.249 1.901 14.389h-38.553c1.443-8.14 1.85-13.615 1.902-14.394.947-14.093-9.748-26.329-23.837-27.276-6.831-.464-13.426 1.765-18.579 6.269-5.152 4.504-8.242 10.743-8.697 17.506-.007.087-.633 7.609-3.167 17.895h-46.502-47.643zm257.598 60.479c2.368 1.558 3.988 3.946 4.563 6.723.573 2.777.03 5.611-1.527 7.98-3.216 4.89-9.812 6.253-14.703 3.036-27.01-17.766-39.035-49.175-44.367-72.395-2.735-11.914-3.361-20.309-3.422-21.222-.393-5.84 4.039-10.911 9.883-11.304 2.832-.192 5.558.732 7.692 2.597 2.136 1.867 3.417 4.453 3.609 7.311.008.113.923 11.734 5.169 26.381 0 .002.001.003.001.005 4.761 16.414 14.368 38.567 33.102 50.888zm-124.139-75.884c-.063.918-.689 9.313-3.423 21.227-9.659 42.069-29.459 62.589-44.367 72.394-4.89 3.218-11.486 1.855-14.703-3.035-1.558-2.369-2.101-5.203-1.527-7.98s2.194-5.164 4.563-6.723c18.735-12.322 28.342-34.475 33.101-50.889 4.237-14.611 5.164-26.306 5.172-26.413.19-2.83 1.471-5.416 3.607-7.284 2.135-1.866 4.87-2.779 7.697-2.597 5.84.394 10.272 5.465 9.88 11.3zm199.467 231.051-110.156 48.59-33.178-47.782c-5.408-7.795-14.302-12.449-23.792-12.449-9.491 0-18.385 4.654-23.789 12.447l-33.181 47.785-110.16-48.592c-9.414-4.148-14.011-14.962-10.465-24.618l64.674-176.026h36.612c-4.616 12.076-12.039 25.254-23.732 32.945-5.717 3.76-9.627 9.521-11.01 16.222-1.384 6.701-.075 13.54 3.685 19.257 7.762 11.799 23.679 15.086 35.478 7.325 16.477-10.837 38.058-32.7 49.316-75.749h45.143c11.258 43.049 32.84 64.912 49.316 75.749 11.799 7.761 27.717 4.475 35.478-7.326 3.761-5.717 5.07-12.556 3.686-19.257-1.383-6.701-5.293-12.462-11.01-16.222-11.693-7.69-19.115-20.868-23.732-32.945h36.612l64.675 176.027c3.544 9.657-1.053 20.471-10.47 24.619z" fill="#007ea8"/><g><path d="m154.901 217.076c-5.498-8.359-3.178-19.593 5.18-25.091 30.637-20.15 34.877-71.032 34.911-71.54.671-9.982 9.31-17.535 19.29-16.86 9.983.671 17.531 9.308 16.86 19.29-.189 2.808-5.153 69.126-51.151 99.38-8.343 5.488-19.581 3.197-25.09-5.179z" fill="#565eec"/></g><g><path d="m357.099 217.076c5.498-8.359 3.178-19.593-5.18-25.091-30.637-20.15-34.877-71.032-34.911-71.54-.671-9.982-9.31-17.535-19.29-16.86-9.983.671-17.531 9.308-16.86 19.29.189 2.808 5.153 69.126 51.151 99.38 8.343 5.488 19.581 3.197 25.09-5.179z" fill="#565eec"/></g><g><g><path d="m148.635 221.198c-7.78-11.826-4.506-27.698 7.325-35.479 13.894-9.139 21.682-26.098 25.768-38.716 4.746-14.657 5.776-27.001 5.785-27.125.94-13.971 13.085-24.74 27.276-23.776 14.09.948 24.785 13.184 23.837 27.276-.199 2.959-5.43 72.86-54.514 105.144-11.752 7.73-27.684 4.525-35.477-7.324zm12.532-8.244c3.217 4.89 9.813 6.253 14.703 3.035 17.728-11.659 31.108-30.542 39.772-56.121 6.783-20.028 7.97-36.791 8.017-37.495.393-5.841-4.039-10.911-9.879-11.304-5.893-.391-10.912 4.059-11.303 9.88-.037.545-4.068 54.805-38.274 77.302-4.902 3.225-6.26 9.801-3.036 14.703z" fill="#2115c2"/></g></g><g><g><path d="m327.888 228.523c-49.084-32.284-54.314-102.185-54.514-105.145-.947-14.092 9.748-26.328 23.841-27.276 14.087-.956 26.324 9.684 27.276 23.84.033.407 4.136 47.746 31.55 65.776 11.828 7.779 15.107 23.65 7.325 35.479-7.787 11.838-23.712 15.063-35.478 7.326zm-29.663-117.454c-5.844.393-10.276 5.464-9.883 11.304.047.705 1.234 17.467 8.017 37.495 8.664 25.58 22.044 44.462 39.772 56.122 4.891 3.216 11.486 1.854 14.703-3.036 3.224-4.902 1.865-11.478-3.035-14.702-34.099-22.426-38.235-76.742-38.274-77.288-.401-5.985-5.572-10.284-11.3-9.895z" fill="#2115c2"/></g></g><circle cx="316.83" cy="266.813" fill="#007ea8" r="12.907"/><g><path d="m283.33 296.987h-54.66c-4.143 0-7.5-3.358-7.5-7.5s3.358-7.5 7.5-7.5h54.659c4.143 0 7.5 3.358 7.5 7.5.001 4.142-3.357 7.5-7.499 7.5z" fill="#007ea8"/></g><circle cx="195.17" cy="266.813" fill="#007ea8" r="12.907"/></g></svg>