<svg id="Capa_1" enable-background="new 0 0 512 512" height="512" viewBox="0 0 512 512" width="512" xmlns="http://www.w3.org/2000/svg"><g><g><path d="m350.736 390.009v89.212c0 13.961-11.318 25.279-25.279 25.279h-42.196c-13.961 0-25.279-11.318-25.279-25.279s11.318-25.279 25.279-25.279h16.917v-63.933z" fill="#ffd600"/></g><g><path d="m233.086 390.009v89.212c0 13.961-11.318 25.279-25.279 25.279h-42.197c-13.961 0-25.279-11.318-25.279-25.279s11.318-25.279 25.279-25.279h16.917v-63.933z" fill="#ffd600"/></g><g><g><path d="m325.457 512h-42.196c-18.074 0-32.778-14.705-32.778-32.779 0-18.075 14.704-32.779 32.778-32.779h9.418v-56.433c0-4.142 3.357-7.5 7.5-7.5h50.558c4.143 0 7.5 3.358 7.5 7.5v89.212c-.001 18.074-14.706 32.779-32.78 32.779zm-42.196-50.558c-9.803 0-17.778 7.976-17.778 17.779s7.976 17.779 17.778 17.779h42.196c9.804 0 17.779-7.976 17.779-17.779v-81.712h-35.558v56.433c0 4.142-3.357 7.5-7.5 7.5z" fill="#f90"/></g></g><g><g><path d="m207.807 512h-42.197c-18.074 0-32.779-14.705-32.779-32.779 0-18.075 14.705-32.779 32.779-32.779h9.417v-56.433c0-4.142 3.357-7.5 7.5-7.5h50.559c4.143 0 7.5 3.358 7.5 7.5v89.212c0 18.074-14.705 32.779-32.779 32.779zm-42.197-50.558c-9.804 0-17.779 7.976-17.779 17.779s7.976 17.779 17.779 17.779h42.196c9.804 0 17.779-7.976 17.779-17.779v-81.712h-35.559v56.433c0 4.142-3.357 7.5-7.5 7.5z" fill="#f90"/></g></g><g fill="#f90"><path d="m182.528 390.009h50.558v33.78h-50.558z"/><path d="m300.178 390.009h50.558v33.78h-50.558z"/><path d="m454.059 64.637c-38.388-27.526-102.005-57.137-198.059-57.137s-159.671 29.611-198.059 57.137c-29.947 21.475-47.649 56.112-47.649 92.963v159.264c0 40.397 32.748 73.144 73.144 73.144h345.128c40.397 0 73.144-32.748 73.144-73.144v-159.264c0-36.851-17.702-71.488-47.649-92.963zm-105.311 27.786c-3.875 13.921-18.3 22.067-32.223 18.19-18.29-5.091-38.654-7.673-60.525-7.673-21.874 0-42.239 2.582-60.53 7.674-13.92 3.876-28.348-4.267-32.224-18.189-3.876-13.921 4.268-28.348 18.189-32.224 22.86-6.364 47.948-9.591 74.565-9.591 26.614 0 51.699 3.226 74.558 9.589 13.92 3.876 22.065 18.303 18.19 32.224z"/></g><path d="m343.116 155.706h-174.232c-16.565 0-29.994 13.429-29.994 29.994v110.807c0 16.565 13.429 29.994 29.994 29.994h174.232c16.565 0 29.993-13.429 29.993-29.994v-110.808c0-16.565-13.428-29.993-29.993-29.993z" fill="#88f8d8"/><g fill="#f90"><path d="m92.882 173.997c0-10.102-8.189-18.291-18.291-18.291-10.102 0-18.291 8.189-18.291 18.291v31.398h36.582z"/><path d="m56.3 308.209c0 10.102 8.189 18.291 18.291 18.291 10.102 0 18.291-8.189 18.291-18.291v-74.206h-36.582z"/></g><path d="m92.882 205.395h-36.582c-7.9 0-14.304 6.404-14.304 14.304s6.404 14.304 14.304 14.304h36.582c7.9 0 14.304-6.404 14.304-14.304s-6.404-14.304-14.304-14.304z" fill="#17d9c3"/><g fill="#f90"><path d="m455.7 308.209c0 10.102-8.189 18.291-18.291 18.291-10.102 0-18.291-8.189-18.291-18.291v-51.398h36.582z"/><path d="m419.118 173.997c0-10.102 8.189-18.291 18.291-18.291 10.102 0 18.291 8.189 18.291 18.291v54.206h-36.582z"/></g><path d="m455.7 256.811h-36.582c-7.9 0-14.304-6.404-14.304-14.304s6.404-14.304 14.304-14.304h36.582c7.9 0 14.304 6.404 14.304 14.304s-6.404 14.304-14.304 14.304z" fill="#17d9c3"/><g><path d="m428.563 397.509h-345.126c-44.468 0-80.645-36.177-80.645-80.645v-159.264c0-39.227 18.982-76.257 50.779-99.058 37.243-26.707 102.596-58.542 202.429-58.542s165.186 31.835 202.429 58.542c31.797 22.8 50.779 59.831 50.779 99.058v159.264c0 44.468-36.177 80.645-80.645 80.645zm-172.563-382.509c-95.848 0-158.231 30.308-193.688 55.732-27.877 19.99-44.52 52.464-44.52 86.868v159.264c0 36.197 29.448 65.645 65.645 65.645h345.127c36.196 0 65.645-29.448 65.645-65.645v-159.264c0-34.404-16.643-66.878-44.52-86.868-35.458-25.424-97.841-55.732-193.689-55.732zm-67.601 104.088c-5.723 0-11.376-1.473-16.495-4.363-7.831-4.42-13.473-11.625-15.885-20.288-4.979-17.883 5.52-36.482 23.402-41.461 23.516-6.547 49.28-9.866 76.577-9.866 27.293 0 53.055 3.319 76.569 9.864 17.884 4.978 28.383 23.577 23.405 41.46-2.412 8.663-8.053 15.868-15.882 20.289-7.831 4.421-16.918 5.526-25.579 3.115-17.634-4.909-37.32-7.397-58.514-7.397s-40.883 2.489-58.519 7.398c-2.997.836-6.048 1.249-9.079 1.249zm67.6-60.978c-25.938 0-50.349 3.135-72.554 9.316-9.915 2.761-15.735 13.073-12.975 22.987 1.337 4.803 4.465 8.798 8.807 11.249 4.341 2.45 9.377 3.064 14.18 1.727 18.945-5.274 39.988-7.948 62.542-7.948 22.553 0 43.593 2.674 62.537 7.947 4.804 1.337 9.84.724 14.181-1.727s7.469-6.446 8.806-11.25c2.76-9.915-3.061-20.227-12.976-22.987-22.206-6.18-46.614-9.314-72.548-9.314zm92.749 34.313h.01z" fill="#f95116"/></g><g><path d="m343.116 334h-174.232c-20.674 0-37.493-16.819-37.493-37.494v-110.807c0-20.674 16.819-37.494 37.493-37.494h174.232c20.674 0 37.493 16.819 37.493 37.494v110.807c0 20.675-16.819 37.494-37.493 37.494zm-174.232-170.794c-12.402 0-22.493 10.091-22.493 22.494v110.807c0 12.403 10.091 22.494 22.493 22.494h174.232c12.402 0 22.493-10.091 22.493-22.494v-110.808c0-12.403-10.091-22.494-22.493-22.494h-174.232z" fill="#007ea8"/></g><circle cx="310.323" cy="236.742" fill="#007ea8" r="11.526"/><g><path d="m280.406 264.49h-48.813c-4.143 0-7.5-3.358-7.5-7.5s3.357-7.5 7.5-7.5h48.813c4.143 0 7.5 3.358 7.5 7.5s-3.357 7.5-7.5 7.5z" fill="#007ea8"/></g><circle cx="201.676" cy="236.742" fill="#007ea8" r="11.526"/><g><g><path d="m92.883 212.895h-36.583c-4.143 0-7.5-3.358-7.5-7.5v-31.398c0-14.221 11.569-25.791 25.791-25.791s25.792 11.57 25.792 25.791v31.398c0 4.142-3.358 7.5-7.5 7.5zm-29.083-15h21.583v-23.898c0-5.95-4.841-10.791-10.792-10.791-5.95 0-10.791 4.841-10.791 10.791z" fill="#f95116"/></g><g><path d="m74.591 334c-14.222 0-25.791-11.57-25.791-25.791v-74.206c0-4.142 3.357-7.5 7.5-7.5h36.583c4.143 0 7.5 3.358 7.5 7.5v74.206c0 14.221-11.57 25.791-25.792 25.791zm-10.791-92.497v66.706c0 5.95 4.841 10.791 10.791 10.791 5.951 0 10.792-4.841 10.792-10.791v-66.706z" fill="#f95116"/></g></g><g><path d="m92.883 241.503h-36.583c-12.022 0-21.804-9.781-21.804-21.804s9.781-21.804 21.804-21.804h36.583c12.022 0 21.804 9.781 21.804 21.804s-9.782 21.804-21.804 21.804zm-36.583-28.608c-3.752 0-6.804 3.052-6.804 6.804s3.052 6.804 6.804 6.804h36.583c3.752 0 6.804-3.052 6.804-6.804s-3.052-6.804-6.804-6.804z" fill="#007ea8"/></g><g><g><path d="m437.408 334c-14.222 0-25.791-11.57-25.791-25.791v-51.398c0-4.142 3.357-7.5 7.5-7.5h36.583c4.143 0 7.5 3.358 7.5 7.5v51.398c0 14.221-11.57 25.791-25.792 25.791zm-10.791-69.689v43.898c0 5.95 4.841 10.791 10.791 10.791 5.951 0 10.792-4.841 10.792-10.791v-43.898z" fill="#f95116"/></g><g><path d="m455.7 235.703h-36.583c-4.143 0-7.5-3.358-7.5-7.5v-54.206c0-14.221 11.569-25.791 25.791-25.791s25.792 11.57 25.792 25.791v54.206c0 4.142-3.357 7.5-7.5 7.5zm-29.083-15h21.583v-46.706c0-5.95-4.841-10.791-10.792-10.791-5.95 0-10.791 4.841-10.791 10.791z" fill="#f95116"/></g></g><g><path d="m455.7 264.311h-36.583c-12.022 0-21.804-9.781-21.804-21.804s9.781-21.804 21.804-21.804h36.583c12.022 0 21.804 9.781 21.804 21.804s-9.781 21.804-21.804 21.804zm-36.583-28.608c-3.752 0-6.804 3.052-6.804 6.804s3.052 6.804 6.804 6.804h36.583c3.752 0 6.804-3.052 6.804-6.804s-3.052-6.804-6.804-6.804z" fill="#007ea8"/></g></g></svg>