<svg id="Capa_1" enable-background="new 0 0 512.054 512.054" height="512" viewBox="0 0 512.054 512.054" width="512" xmlns="http://www.w3.org/2000/svg"><g><g><path d="m355.194 384.194v91.09c0 14.255-11.556 25.811-25.811 25.811h-43.085c-14.255 0-25.811-11.556-25.811-25.811s11.556-25.811 25.811-25.811h17.274v-65.279z" fill="#f90"/></g><g><g><path d="m329.383 508.595h-43.084c-18.368 0-33.311-14.943-33.311-33.312 0-18.367 14.943-33.311 33.311-33.311h9.773v-57.779c0-4.143 3.358-7.5 7.5-7.5h51.622c4.142 0 7.5 3.357 7.5 7.5v91.09c0 18.369-14.943 33.312-33.311 33.312zm-43.084-51.622c-10.097 0-18.311 8.214-18.311 18.311s8.214 18.312 18.311 18.312h43.084c10.097 0 18.311-8.215 18.311-18.312v-83.59h-36.622v57.779c0 4.143-3.358 7.5-7.5 7.5z" fill="#f95116"/></g></g><path d="m303.572 384.194h51.622v34.491h-51.622z" fill="#f95116"/><path d="m223.476 428.467c-.314.012-.626.018-.937.018-12.854 0-23.514-10.168-24.01-23.124-.312-8.149-6.937-14.777-15.084-15.096v59.207h-17.273c-14.255 0-25.811 11.556-25.811 25.811s11.556 25.811 25.811 25.811h43.085c14.255 0 25.811-11.556 25.811-25.811v-50.312c-3.391 2.072-7.34 3.333-11.592 3.496z" fill="#f90"/><g><path d="m209.256 508.595h-43.085c-18.368 0-33.311-14.943-33.311-33.312 0-18.367 14.943-33.311 33.311-33.311h9.773v-51.707c0-2.04.831-3.992 2.301-5.406 1.471-1.413 3.447-2.166 5.492-2.088 12.035.47 21.824 10.267 22.286 22.303.351 9.138 7.949 16.245 17.166 15.898 2.818-.108 5.574-.938 7.97-2.402 2.315-1.414 5.213-1.466 7.579-.14 2.366 1.327 3.83 3.828 3.83 6.541v50.312c-.001 18.369-14.944 33.312-33.312 33.312zm-43.085-51.622c-10.097 0-18.311 8.214-18.311 18.311s8.214 18.312 18.311 18.312h43.085c10.097 0 18.311-8.215 18.311-18.312v-39.7c-1.256.202-2.527.329-3.803.378-.003 0-.005.001-.008.001-17.59.649-32.055-12.899-32.722-30.313-.012-.315-.042-.626-.089-.932v44.756c0 4.143-3.358 7.5-7.5 7.5h-17.274zm57.305-28.506h.01z" fill="#f95116"/></g><path d="m122.124 328.958c-.313-8.154-6.944-14.785-15.097-15.097-20.126-.771-37.955-11.035-49.139-26.394l-16.018 23.765c-20.952 31.087 1.322 72.962 38.811 72.962h78.093c-20.916-9.925-35.716-30.904-36.65-55.236z" fill="#ff9bff"/><path d="m496.429 311.232-50.829-75.415c-11.754 6.213-25.143 9.746-39.362 9.746-46.597 0-84.371-37.774-84.371-84.371 0-25.866 11.651-49.001 29.979-64.477l-43.884-65.111c-18.553-27.527-59.069-27.527-77.622 0l-138.577 205.604c1.133 4.346 1.833 8.86 2.011 13.502.313 8.154 6.944 14.785 15.096 15.097 33.109 1.269 60.039 28.199 61.308 61.308.313 8.153 6.944 14.784 15.097 15.097 26.352 1.01 48.774 18.283 57.474 41.982h214.869c37.489 0 59.763-41.875 38.811-72.962z" fill="#ff9bff"/><circle cx="336.417" cy="268.163" fill="#e207b9" r="14.272"/><g><path d="m299.371 300.736h-60.443c-4.142 0-7.5-3.357-7.5-7.5s3.358-7.5 7.5-7.5h60.443c4.142 0 7.5 3.357 7.5 7.5s-3.358 7.5-7.5 7.5z" fill="#e207b9"/></g><circle cx="201.883" cy="268.163" fill="#e207b9" r="14.272"/><g><path d="m158.776 391.694h-78.094c-20.427 0-38.35-10.767-47.942-28.802-9.593-18.034-8.504-38.913 2.912-55.852l16.018-23.765c1.367-2.028 3.637-3.263 6.083-3.308 2.444-.039 4.759 1.107 6.199 3.084 10.307 14.155 26.112 22.653 43.363 23.314 12.045.461 21.842 10.259 22.304 22.304.805 20.977 13.209 39.655 32.372 48.747 3.169 1.504 4.873 5.003 4.102 8.424-.771 3.423-3.81 5.854-7.317 5.854zm-100.209-91.814-10.476 15.543c-8.263 12.26-9.051 27.372-2.108 40.425s19.915 20.846 34.7 20.846h54.635c-12.443-12.484-19.991-29.283-20.688-47.449-.163-4.261-3.628-7.726-7.889-7.89-18.385-.704-35.459-8.408-48.174-21.475z" fill="#e207b9"/></g><g><path d="m457.617 391.694h-214.869c-3.146 0-5.957-1.963-7.041-4.915-7.824-21.312-28.207-36.21-50.721-37.073-12.044-.461-21.842-10.258-22.304-22.303-1.12-29.217-24.883-52.98-54.1-54.102-12.045-.461-21.842-10.259-22.304-22.304-.152-3.965-.749-7.968-1.773-11.896-.543-2.083-.165-4.299 1.038-6.084l138.577-205.604c10.109-14.999 26.943-23.954 45.03-23.954 18.088 0 34.921 8.955 45.03 23.954l43.884 65.11c2.14 3.175 1.545 7.451-1.38 9.922-17.36 14.66-27.317 36.072-27.317 58.747 0 42.387 34.484 76.871 76.871 76.871 12.65 0 24.714-2.986 35.857-8.877 3.388-1.793 7.583-.738 9.724 2.439l50.829 75.415c11.417 16.938 12.505 37.817 2.912 55.852s-27.515 28.802-47.943 28.802zm-209.837-15h209.838c14.785 0 27.756-7.793 34.7-20.846 6.943-13.053 6.155-28.165-2.108-40.425l-47.206-70.038c-11.544 5.037-24.126 7.678-36.767 7.678-50.658 0-91.871-41.213-91.871-91.871 0-24.842 9.995-48.412 27.637-65.661l-40.262-59.735c-7.426-11.018-19.305-17.337-32.592-17.337-13.286 0-25.166 6.319-32.591 17.337l-136.745 202.888c.817 3.891 1.305 7.825 1.456 11.738.163 4.262 3.628 7.727 7.889 7.891 37.001 1.418 67.097 31.514 68.515 68.515.164 4.261 3.629 7.726 7.889 7.89 27.196 1.041 51.082 17.33 62.218 41.976z" fill="#e207b9"/></g><g><path d="m222.539 428.485c-12.854 0-23.514-10.168-24.01-23.124-.313-8.153-6.944-14.784-15.097-15.097-33.108-1.269-60.038-28.198-61.308-61.307-.313-8.154-6.944-14.785-15.097-15.097-33.109-1.269-60.038-28.199-61.307-61.308-.313-8.153-6.944-14.784-15.097-15.097-13.27-.509-23.614-11.679-23.105-24.948.509-13.27 11.679-23.614 24.948-23.105 33.108 1.27 60.037 28.199 61.307 61.307.313 8.154 6.944 14.785 15.096 15.097 33.109 1.269 60.039 28.199 61.308 61.308.313 8.153 6.944 14.784 15.097 15.097 33.109 1.269 60.039 28.199 61.308 61.308.509 13.27-9.836 24.439-23.106 24.948-.313.012-.626.018-.937.018z" fill="#88f8d8"/></g><g><g><path d="m222.539 435.985c-17.014 0-30.853-13.325-31.505-30.336-.163-4.261-3.628-7.726-7.889-7.89-37-1.418-67.096-31.514-68.515-68.515-.163-4.261-3.628-7.726-7.889-7.89-37.001-1.418-67.096-31.514-68.515-68.515-.164-4.261-3.629-7.726-7.89-7.89-8.42-.322-16.21-3.905-21.935-10.087s-8.7-14.224-8.377-22.644c.667-17.381 15.348-31.01 32.73-30.312 37 1.42 67.095 31.515 68.515 68.515.163 4.261 3.628 7.726 7.889 7.89 37.001 1.418 67.097 31.514 68.515 68.515.164 4.261 3.629 7.726 7.889 7.89 37.001 1.418 67.097 31.514 68.515 68.515.666 17.381-12.932 32.063-30.313 32.729-.416.017-.821.025-1.225.025zm-191.002-239.1c-8.832 0-16.183 7.01-16.524 15.911-.169 4.415 1.391 8.633 4.394 11.875s7.088 5.121 11.504 5.291c12.044.461 21.842 10.258 22.304 22.303 1.12 29.217 24.883 52.98 54.1 54.102 12.045.461 21.842 10.259 22.304 22.304 1.121 29.216 24.884 52.979 54.101 54.101 12.045.461 21.842 10.259 22.304 22.304.35 9.141 7.953 16.265 17.173 15.897 9.108-.349 16.24-8.05 15.891-17.166-1.12-29.216-24.883-52.979-54.101-54.101-12.044-.461-21.841-10.258-22.304-22.303-1.12-29.217-24.883-52.98-54.101-54.102-12.044-.461-21.841-10.259-22.303-22.304-1.121-29.215-24.884-52.979-54.1-54.101-.215-.007-.429-.011-.642-.011z" fill="#007ea8"/></g></g><circle cx="406.237" cy="161.192" fill="#565eec" r="84.371"/><g><path d="m406.237 253.063c-50.658 0-91.871-41.213-91.871-91.871s41.213-91.871 91.871-91.871 91.871 41.213 91.871 91.871-41.213 91.871-91.871 91.871zm0-168.742c-42.387 0-76.871 34.484-76.871 76.871s34.484 76.871 76.871 76.871 76.871-34.484 76.871-76.871-34.484-76.871-76.871-76.871z" fill="#2115c2"/></g></g></svg>