<svg id="Capa_1" enable-background="new 0 0 512 512" height="512" viewBox="0 0 512 512" width="512" xmlns="http://www.w3.org/2000/svg"><g><path d="m256 325.314c-10.57 0-20.897-1.04-30.889-3.009v151.306c0 17.06 13.83 30.889 30.889 30.889 17.06 0 30.889-13.829 30.889-30.889v-151.306c-9.993 1.969-20.319 3.009-30.889 3.009z" fill="#9448f5"/><g><path d="m256 512c-21.168 0-38.389-17.222-38.389-38.39v-151.304c0-2.243 1.004-4.368 2.736-5.793s4.01-1.997 6.214-1.565c19.313 3.805 39.563 3.806 58.879 0 2.2-.434 4.48.14 6.213 1.565 1.732 1.425 2.736 3.55 2.736 5.793v151.304c0 21.168-17.221 38.39-38.389 38.39zm-23.389-180.825v142.435c0 12.897 10.492 23.39 23.389 23.39s23.39-10.492 23.39-23.39v-142.436c-15.477 2.18-31.304 2.179-46.779.001z" fill="#6d00ca"/></g><path d="m225.111 322.305v36.267c10.124 1.604 20.441 2.423 30.889 2.423s20.765-.819 30.889-2.423v-36.267c-9.993 1.969-20.319 3.009-30.889 3.009-10.571 0-20.897-1.04-30.889-3.009z" fill="#6d00ca"/><path d="m128.475 111.971h255.049c9.331 0 18.009 3.335 24.761 8.939-19.567-65.589-80.337-113.41-152.285-113.41s-132.718 47.821-152.286 113.409c6.752-5.603 15.43-8.938 24.761-8.938z" fill="#ff9bff"/><path d="m421.74 145.303c-2.421-19.126-18.938-33.332-38.216-33.332h-255.049c-19.278 0-35.795 14.207-38.216 33.332-.875 6.914-1.326 13.958-1.326 21.106s.451 14.193 1.326 21.106c2.421 19.126 18.938 33.332 38.216 33.332h255.04c19.586 0 35.958-14.689 38.324-34.131.81-6.657 1.227-13.435 1.227-20.307 0-7.148-.45-14.192-1.326-21.106z" fill="#ffceff"/><path d="m383.516 220.847h-255.04c-9.33 0-18.008-3.335-24.759-8.937 19.568 65.586 80.336 113.404 152.283 113.404 72.001 0 132.806-47.89 152.328-113.552-6.731 5.685-15.398 9.085-24.812 9.085z" fill="#ff9bff"/><path d="m429.181 144.361c-1.387-10.957-6.67-20.608-14.353-27.675-10.266-32.786-30.978-62.218-58.517-83.057-29.071-22-63.759-33.629-100.311-33.629s-71.24 11.629-100.312 33.629c-27.539 20.839-48.251 50.271-58.517 83.057-7.683 7.068-12.966 16.718-14.353 27.675-1.844 14.57-1.847 29.509 0 44.097 1.388 10.957 6.67 20.608 14.354 27.675 10.267 32.785 30.98 62.215 58.518 83.054 29.071 21.999 63.758 33.627 100.31 33.627 36.58 0 71.288-11.645 100.372-33.675 27.567-20.881 48.283-50.371 58.521-83.217 7.728-7.22 13.028-17.09 14.392-28.3.85-6.985 1.281-14.123 1.281-21.214 0-7.369-.466-14.788-1.385-22.047zm-45.666 68.987h-255.04c-7.041 0-14.195-2.417-19.971-7.209-.003-.002-.006-.004-.009-.007-5.789-4.812-9.799-11.682-10.796-19.558-1.686-13.323-1.688-26.991 0-40.329.997-7.875 5.007-14.746 10.795-19.558.003-.003.007-.004.01-.007 5.764-4.783 12.915-7.21 19.972-7.21h255.049c7.273 0 14.368 2.56 19.972 7.21.003.003.007.004.01.007 5.788 4.812 9.798 11.682 10.795 19.557.84 6.638 1.266 13.422 1.266 20.165 0 6.487-.395 13.016-1.172 19.401-1.911 15.703-15.19 27.538-30.881 27.538zm-218.775-167.758c26.444-20.012 58.002-30.59 91.26-30.59s64.815 10.578 91.26 30.59c20.696 15.662 37.159 36.646 47.526 60.278-3.759-.943-7.656-1.397-11.261-1.397h-255.05c-3.569 0-7.468.446-11.261 1.397 10.367-23.632 26.83-44.616 47.526-60.278zm230.05 181.348c-10.358 23.612-26.802 44.586-47.476 60.245-26.455 20.04-58.031 30.632-91.314 30.632-33.257 0-64.813-10.577-91.258-30.589-20.696-15.661-37.158-36.645-47.527-60.274 3.261.716 6.195 1.396 11.261 1.396h255.04c3.564 0 7.506-.456 11.274-1.41z" fill="#e207b9"/><circle cx="308.913" cy="162.162" fill="#e207b9" r="11.227"/><g><path d="m279.772 189.384h-47.545c-4.143 0-7.5-3.357-7.5-7.5s3.357-7.5 7.5-7.5h47.545c4.143 0 7.5 3.357 7.5 7.5s-3.357 7.5-7.5 7.5z" fill="#e207b9"/></g><circle cx="203.086" cy="162.162" fill="#e207b9" r="11.227"/></g></svg>