<svg id="Capa_1" enable-background="new 0 0 512 512" height="512" viewBox="0 0 512 512" width="512" xmlns="http://www.w3.org/2000/svg"><g><path d="m504.5 193.796v127.063c0 56.978-46.354 103.332-103.332 103.332h-38.214c56.978 0 103.332-46.354 103.332-103.332v-127.063c0-56.978-46.354-103.341-103.332-103.341h38.214c56.978-.001 103.332 46.363 103.332 103.341z" fill="#ffd600"/><path d="m223.686 195.902c0-59.602-48.491-108.093-108.093-108.093s-108.093 48.491-108.093 108.093 48.491 108.093 108.093 108.093c10.956 0 21.534-1.644 31.507-4.689-6.647 12.703-14.355 25.014-23.124 36.895-21.778 29.506-42.32 45.241-42.856 45.649-10.376 7.758-12.521 22.457-4.783 32.86 4.614 6.204 11.703 9.481 18.883 9.481 4.878 0 9.798-1.513 14.013-4.649 3.974-2.956 97.112-73.651 113.161-206.927.848-5.449 1.292-11.03 1.292-16.713zm-108.093 61.072c-33.675 0-61.072-27.396-61.072-61.072s27.396-61.072 61.072-61.072 61.072 27.396 61.072 61.072c0 2.81-.207 5.571-.576 8.281-.075.435-.141.873-.191 1.317-.005.045-.011.089-.017.133-4.676 29.066-29.925 51.341-60.288 51.341z" fill="#88f8d8"/><path d="m259.612 193.795c0-4.903.351-9.724 1.015-14.447-8.102-52.142-53.879-91.539-108.004-91.539h-37.03c59.602 0 108.093 48.491 108.093 108.093 0 5.683-.444 11.264-1.293 16.712-16.049 133.276-109.187 203.971-113.161 206.927-4.215 3.135-9.135 4.649-14.013 4.649h38.575c18.486 0 35.987-8.307 47.674-22.63 25.279-30.981 65.698-92.936 78.145-181.401v-26.364z" fill="#0eb4bb"/><g fill="#007ea8"><path d="m183.519 205.198c.429-3.139.646-6.267.646-9.296 0-37.811-30.762-68.571-68.572-68.571s-68.571 30.761-68.571 68.571 30.761 68.571 68.571 68.571c33.424.001 63.464-24.798 67.926-59.275zm-67.926 44.276c-29.539 0-53.571-24.032-53.571-53.571s24.032-53.571 53.571-53.571c29.54 0 53.572 24.032 53.572 53.571 0 28.44-23.176 53.571-53.572 53.571z"/><path d="m268.038 178.196c-4.206-27.072-18.16-51.89-39.292-69.882-21.211-18.06-48.245-28.005-76.123-28.005h-37.03c-63.739.001-115.593 51.855-115.593 115.593s51.854 115.593 115.593 115.593c5.614 0 11.198-.405 16.717-1.209-4.427 7.323-9.231 14.502-14.368 21.461-21.097 28.582-41.159 43.978-41.313 44.096-13.66 10.215-16.49 29.658-6.31 43.343 5.823 7.83 15.132 12.505 24.9 12.505h38.574c20.825 0 40.319-9.254 53.485-25.389 24.242-29.711 66.841-93.266 79.761-185.098.049-.347.073-.695.073-1.045v-26.364c0-4.449.316-8.959.941-13.403.103-.729.098-1.469-.015-2.196zm-185.684 232.037c-5.256-7.065-3.795-17.104 3.302-22.411.887-.674 21.972-16.842 44.354-47.167 8.935-12.104 16.92-24.846 23.735-37.872 3.069-5.867-2.465-12.598-8.836-10.649-9.479 2.894-19.342 4.361-29.316 4.361-55.467 0-100.593-45.126-100.593-100.593s45.126-100.592 100.593-100.592 100.593 45.126 100.593 100.593c0 3.251-.177 6.512-.49 9.753-7.904 81.75-51.273 158.818-106.771 204.569-4.351 3.586-7.646 6.466-13.705 6.466-5.125-.001-9.815-2.354-12.866-6.458zm169.758-216.438v25.837c-12.499 87.944-53.248 148.744-76.456 177.188-19.882 24.364-47.401 19.187-51.273 19.871.007-.006.015-.013.021-.019 56.429-50.265 106.781-146.666 106.781-220.769 0-39.898-20.53-76.426-53.536-97.486 15.144 3.816 29.334 11.07 41.372 21.319 18.12 15.428 30.174 36.598 34.024 59.707-.619 4.764-.933 9.587-.933 14.352z"/></g><path d="m362.954 90.454c-56.978 0-103.341 46.364-103.341 103.341v127.063c0 56.978 46.364 103.332 103.341 103.332s103.332-46.354 103.332-103.332v-127.062c0-56.978-46.355-103.342-103.332-103.342zm55.563 230.405c0 30.638-24.925 55.564-55.564 55.564s-55.573-24.925-55.573-55.564v-127.063c0-30.638 24.935-55.573 55.573-55.573s55.564 24.935 55.564 55.573z" fill="#ffff6f"/><g fill="#f90"><path d="m401.168 82.954h-38.214s0 0-.001 0c-61.118 0-110.841 49.723-110.841 110.841v127.063c0 61.113 49.723 110.832 110.841 110.832h.001s0 0 0 0h38.214c61.113 0 110.832-49.718 110.832-110.832v-127.062c0-61.118-49.719-110.842-110.832-110.842zm-134.056 237.904v-127.063c0-52.847 42.994-95.841 95.841-95.841 38.141 0 71.145 22.401 86.559 54.737 5.941 12.464 9.273 26.402 9.273 41.105v127.063c0 53.066-43.202 95.832-95.832 95.832-52.847-.001-95.841-42.991-95.841-95.833zm229.888 0c0 45.511-31.886 83.714-74.493 93.438 33.014-21.249 51.278-56.685 51.278-93.438v-127.062-.001c0-37.485-18.945-72.709-51.282-93.447 42.607 9.725 74.497 47.932 74.497 93.448z"/><path d="m426.018 320.858v-127.063c0-34.778-28.291-63.072-63.064-63.072-34.778 0-63.072 28.294-63.072 63.072v127.063c0 34.773 28.294 63.064 63.072 63.064 34.773.001 63.064-28.29 63.064-63.064zm-111.137 0v-127.063c0-26.507 21.565-48.072 48.072-48.072 26.503 0 48.064 21.565 48.064 48.072v127.063c0 26.503-21.562 48.064-48.064 48.064-26.507.001-48.072-21.561-48.072-48.064z"/></g></g></svg>