<svg id="Capa_1" enable-background="new 0 0 512 512" height="512" viewBox="0 0 512 512" width="512" xmlns="http://www.w3.org/2000/svg"><g><g><path d="m443.146 403.838v77.315c0 12.894-10.453 23.348-23.348 23.348h-38.973c-12.894 0-23.348-10.453-23.348-23.348 0-12.894 10.453-23.348 23.348-23.348h15.625v-53.967z" fill="#f90"/></g><g><path d="m334.484 403.838v77.315c0 12.894-10.453 23.348-23.348 23.348h-38.973c-12.894 0-23.348-10.453-23.348-23.348 0-12.894 10.453-23.348 23.348-23.348h15.625v-53.967z" fill="#f90"/></g><g><g><path d="m419.798 512h-38.973c-17.009 0-30.848-13.838-30.848-30.848s13.838-30.848 30.848-30.848h8.125v-46.467c0-4.143 3.358-7.5 7.5-7.5h46.695c4.142 0 7.5 3.357 7.5 7.5v77.314c.001 17.011-13.837 30.849-30.847 30.849zm-38.972-46.695c-8.738 0-15.848 7.109-15.848 15.848s7.109 15.847 15.848 15.847h38.973c8.738 0 15.848-7.109 15.848-15.848v-69.814h-31.695v46.467c0 4.143-3.358 7.5-7.5 7.5z" fill="#f95116"/></g></g><g><g><path d="m311.136 512h-38.973c-17.009 0-30.848-13.838-30.848-30.848s13.838-30.848 30.848-30.848h8.125v-46.467c0-4.143 3.358-7.5 7.5-7.5h46.695c4.142 0 7.5 3.357 7.5 7.5v77.314c.001 17.011-13.837 30.849-30.847 30.849zm-38.972-46.695c-8.738 0-15.848 7.109-15.848 15.848s7.109 15.847 15.848 15.847h38.973c8.738 0 15.848-7.109 15.848-15.848v-69.814h-31.695v46.467c0 4.143-3.358 7.5-7.5 7.5z" fill="#f95116"/></g></g><path d="m287.788 403.838h46.695v31.199h-46.695z" fill="#f95116"/><path d="m396.451 403.838h46.695v31.199h-46.695z" fill="#f95116"/><path d="m46.123 113.561c-18.708 0-33.874 15.166-33.874 33.874v127.605c0 18.708 15.166 33.874 33.874 33.874h193.564v-195.353z" fill="#7181ff"/><g fill="#565eec"><path d="m200.307 158.782c-6.281 0-11.373 5.092-11.373 11.373v28.006c0 6.281 5.092 11.373 11.373 11.373h39.379v-50.752z"/><path d="m51.628 158.782h-39.379v50.752h39.379c6.281 0 11.373-5.092 11.373-11.373v-28.006c-.001-6.282-5.092-11.373-11.373-11.373z"/><path d="m139.971 158.782h-28.006c-6.281 0-11.373 5.092-11.373 11.373v28.006c0 6.281 5.092 11.373 11.373 11.373h28.006c6.281 0 11.373-5.092 11.373-11.373v-28.006c0-6.282-5.092-11.373-11.373-11.373z"/></g><g><path d="m239.687 217.033h-39.379c-10.407 0-18.873-8.466-18.873-18.872v-28.007c0-10.406 8.466-18.873 18.873-18.873h39.379c4.142 0 7.5 3.357 7.5 7.5v50.752c0 4.143-3.358 7.5-7.5 7.5zm-39.379-50.752c-2.136 0-3.873 1.737-3.873 3.873v28.007c0 2.135 1.737 3.872 3.873 3.872h31.879v-35.752z" fill="#2115c2"/></g><path d="m239.687 106.061h-193.564c-22.814 0-41.374 18.561-41.374 41.374v127.605c0 22.813 18.56 41.374 41.374 41.374h193.564c4.142 0 7.5-3.357 7.5-7.5v-195.353c0-4.143-3.358-7.5-7.5-7.5zm-219.938 60.22h31.879c2.135 0 3.873 1.737 3.873 3.873v28.007c0 2.135-1.737 3.872-3.873 3.872h-31.879zm212.438 135.133h-186.064c-14.542 0-26.374-11.831-26.374-26.374v-58.007h31.879c10.406 0 18.873-8.466 18.873-18.872v-28.007c0-10.406-8.466-18.873-18.873-18.873h-31.879v-3.847c0-14.543 11.832-26.374 26.374-26.374h186.064z" fill="#2115c2"/><path d="m249.06 344.285h220.915c3.276 0 6.425.537 9.374 1.514v-232.238c-2.948.977-6.097 1.514-9.374 1.514h-220.915c-3.276 0-6.425-.537-9.374-1.514v232.239c2.949-.978 6.098-1.515 9.374-1.515z" fill="#ffff6f"/><g><path d="m479.348 353.3c-.792 0-1.589-.125-2.36-.381-2.269-.752-4.628-1.134-7.013-1.134h-220.915c-2.385 0-4.745.382-7.013 1.134-2.287.758-4.798.371-6.75-1.038-1.953-1.41-3.11-3.672-3.11-6.081v-232.239c0-2.409 1.157-4.671 3.11-6.081 1.953-1.411 4.464-1.798 6.75-1.038 2.269.752 4.628 1.134 7.013 1.134h220.915c2.385 0 4.745-.382 7.013-1.134 2.286-.76 4.797-.372 6.75 1.038s3.11 3.672 3.11 6.081v232.239c0 2.409-1.157 4.671-3.11 6.081-1.294.934-2.833 1.419-4.39 1.419zm-230.288-16.515h220.915c.625 0 1.25.016 1.874.047v-214.304c-.623.031-1.248.047-1.874.047h-220.915c-.625 0-1.25-.016-1.874-.047v214.304c.624-.031 1.249-.047 1.874-.047z" fill="#f90"/></g><path d="m469.975 344.285h-220.915c-16.445 0-29.776 13.331-29.776 29.776 0 16.445 13.331 29.776 29.776 29.776h220.915c16.445 0 29.776-13.331 29.776-29.776 0-16.444-13.331-29.776-29.776-29.776z" fill="#a4bcff"/><path d="m469.975 55.522h-220.915c-16.445 0-29.776 13.331-29.776 29.776 0 16.445 13.331 29.776 29.776 29.776h220.915c16.445 0 29.776-13.331 29.776-29.776 0-16.444-13.331-29.776-29.776-29.776z" fill="#a4bcff"/><g><path d="m469.975 411.338h-220.915c-20.554 0-37.276-16.722-37.276-37.276s16.722-37.276 37.276-37.276h220.915c20.554 0 37.276 16.722 37.276 37.276s-16.722 37.276-37.276 37.276zm-220.915-59.553c-12.283 0-22.276 9.993-22.276 22.276s9.993 22.276 22.276 22.276h220.915c12.283 0 22.276-9.993 22.276-22.276s-9.993-22.276-22.276-22.276z" fill="#2115c2"/></g><path d="m419.442 55.522-2.296-19.622c-1.894-16.192-15.613-28.4-31.916-28.4h-51.426c-16.302 0-30.022 12.208-31.916 28.4l-2.295 19.623h119.849z" fill="#ffff6f"/><g><path d="m419.442 63.022h-119.848c-2.141 0-4.18-.915-5.603-2.515-1.423-1.599-2.095-3.73-1.846-5.856l2.295-19.623c2.335-19.969 19.258-35.028 39.365-35.028h51.426c20.105 0 37.029 15.059 39.365 35.028l2.295 19.623c.249 2.126-.423 4.258-1.846 5.856-1.423 1.6-3.462 2.515-5.603 2.515zm-111.42-15h102.992l-1.316-11.252c-1.452-12.411-11.971-21.77-24.467-21.77h-51.426c-12.497 0-23.015 9.359-24.466 21.771z" fill="#f90"/></g><g><path d="m469.975 122.575h-220.915c-20.554 0-37.276-16.722-37.276-37.276s16.722-37.276 37.276-37.276h220.915c20.554 0 37.276 16.722 37.276 37.276s-16.722 37.276-37.276 37.276zm-220.915-59.553c-12.283 0-22.276 9.993-22.276 22.276s9.993 22.276 22.276 22.276h220.915c12.283 0 22.276-9.993 22.276-22.276s-9.993-22.276-22.276-22.276z" fill="#2115c2"/></g><g><path d="m139.971 217.033h-28.006c-10.406 0-18.873-8.466-18.873-18.872v-28.007c0-10.406 8.466-18.873 18.873-18.873h28.006c10.407 0 18.873 8.467 18.873 18.873v28.007c0 10.406-8.467 18.872-18.873 18.872zm-28.007-50.752c-2.135 0-3.873 1.737-3.873 3.873v28.007c0 2.135 1.737 3.872 3.873 3.872h28.006c2.136 0 3.873-1.737 3.873-3.872v-28.007c0-2.136-1.737-3.873-3.873-3.873z" fill="#2115c2"/></g><circle cx="416.261" cy="168.834" fill="#f90" r="12.04"/><g><path d="m385.011 197.484h-50.987c-4.142 0-7.5-3.357-7.5-7.5s3.358-7.5 7.5-7.5h50.987c4.142 0 7.5 3.357 7.5 7.5s-3.358 7.5-7.5 7.5z" fill="#f90"/></g><circle cx="302.774" cy="168.834" fill="#f90" r="12.04"/></g></svg>