<svg id="Capa_1" enable-background="new 0 0 512 512" height="512" viewBox="0 0 512 512" width="512" xmlns="http://www.w3.org/2000/svg"><g><circle cx="405.808" cy="438.257" fill="#ffff6f" r="66.244"/><circle cx="185.691" cy="438.257" fill="#ffff6f" r="66.244"/><path d="m498.53 130.462v9.684l-134.625-42.877c2.502-14.806 4.346-30.389 5.564-46.845.022-.313.022-.626.032-.938l.032-.032 90.961 28.965c22.648 7.214 38.036 28.264 38.036 52.043z" fill="#ff9bff"/><path d="m498.53 140.145v49.249l-145.064-46.208c.981-3.3 1.92-6.643 2.804-10.029 3.009-11.463 5.564-23.39 7.635-35.888z" fill="#565eec"/><path d="m498.53 189.395v49.26l-161.66-51.503c6.47-13.749 12.024-28.426 16.596-43.966z" fill="#ffff6f"/><path d="m498.53 238.655v85.246h-451.992c17.977-69.868 71.497-78.182 122.116-101.594-3.343 10.503.205 22.872 10.838 29.451l22.398 13.868c28.307 17.513 65.102 13.253 88.341-10.579 6.319-6.47 12.488-13.544 18.451-21.309 10.773-14.03 20.187-29.601 28.189-46.586z" fill="#ff9bff"/><g><path d="m498.529 147.646c-.763 0-1.53-.116-2.275-.354l-134.625-42.877c-3.559-1.134-5.741-4.713-5.119-8.396 2.436-14.417 4.28-29.944 5.48-46.149.003-.054.003-.148.005-.243l.012-.398c.064-1.899.848-3.703 2.191-5.047 1.984-1.982 4.941-2.727 7.611-1.875l90.961 28.966c25.876 8.243 43.259 32.03 43.259 59.189v9.684c0 2.394-1.142 4.643-3.074 6.055-1.3.951-2.853 1.445-4.426 1.445zm-126.19-55.562 118.687 37.801c-.243-20.361-13.365-38.127-32.807-44.32l-81.961-26.1c-1.004 11.285-2.315 22.202-3.919 32.619z" fill="#e207b9"/></g><g><path d="m498.529 196.894c-.763 0-1.53-.116-2.275-.354l-145.064-46.207c-3.893-1.24-6.077-5.368-4.912-9.284.983-3.307 1.903-6.599 2.735-9.786 2.983-11.366 5.504-23.213 7.493-35.22.356-2.147 1.628-4.034 3.485-5.171 1.856-1.136 4.117-1.407 6.19-.749l134.625 42.877c3.111.991 5.224 3.881 5.224 7.146v49.249c0 2.394-1.142 4.643-3.074 6.055-1.301.95-2.854 1.444-4.427 1.444zm-135.856-58.646 128.357 40.885v-33.506l-121.229-38.61c-1.784 9.541-3.888 18.941-6.277 28.044-.275 1.053-.558 2.116-.851 3.187z" fill="#2115c2"/></g><g><path d="m498.529 246.155c-.763 0-1.53-.116-2.275-.354l-161.66-51.502c-2.059-.656-3.734-2.168-4.599-4.148-.863-1.979-.831-4.236.089-6.191 6.317-13.427 11.764-27.856 16.186-42.889.57-1.936 1.896-3.561 3.678-4.507 1.783-.946 3.872-1.133 5.794-.522l145.064 46.208c3.111.991 5.224 3.881 5.224 7.146v49.26c0 2.394-1.143 4.643-3.074 6.055-1.301.95-2.854 1.444-4.427 1.444zm-151.35-63.59 143.851 45.829v-33.517l-132.618-42.243c-3.295 10.315-7.055 20.334-11.233 29.931z" fill="#f90"/></g><g><path d="m498.53 331.401h-451.992c-2.318 0-4.507-1.072-5.927-2.904-1.421-1.833-1.914-4.219-1.336-6.465 15.747-61.203 58.432-78.523 99.711-95.274 8.728-3.542 17.753-7.204 26.519-11.259 2.699-1.247 5.88-.784 8.11 1.184 2.23 1.967 3.087 5.065 2.186 7.898-2.059 6.468-.547 15.734 7.637 20.798l22.4 13.87c12.274 7.594 26.919 10.842 41.24 9.143 14.338-1.7 27.757-8.299 37.783-18.582 6.273-6.423 12.285-13.366 17.873-20.641 10.389-13.528 19.592-28.74 27.352-45.213 1.603-3.402 5.479-5.092 9.061-3.95l161.66 51.502c3.111.991 5.224 3.882 5.224 7.146v85.246c-.001 4.144-3.358 7.501-7.501 7.501zm-441.972-15h434.472v-72.264l-150.249-47.868c-7.591 15.182-16.37 29.299-26.152 42.037-5.948 7.744-12.351 15.14-19.034 21.981-12.411 12.727-29.016 20.898-46.752 23.001-17.671 2.098-35.75-1.911-50.9-11.284l-22.4-13.87c-8.679-5.369-14.13-14.245-15.348-23.892-5.239 2.224-10.454 4.34-15.57 6.416-38.792 15.741-72.617 29.47-88.067 75.743z" fill="#e207b9"/></g><g><path d="m242.999 221.824-45.708-13.495c-8.568-2.53-13.463-11.526-10.933-20.094s11.525-13.463 20.094-10.933l45.708 13.495c8.568 2.53 13.463 11.526 10.933 20.094-2.542 8.611-11.567 13.45-20.094 10.933z" fill="#a4bcff"/></g><g><path d="m288.291 156.763-45.708-13.495c-8.568-2.53-13.463-11.526-10.933-20.094s11.526-13.463 20.094-10.933l45.708 13.495c8.568 2.53 13.463 11.526 10.933 20.094-2.542 8.611-11.567 13.451-20.094 10.933z" fill="#a4bcff"/></g><path d="m351.299 24.166-52.851-15.604c-15.755-4.659-31.747 6.632-32.599 23.034-.212 4.074-.464 8.054-.757 11.942.584.105 1.168.235 1.75.407l45.708 13.495c8.568 2.53 13.463 11.526 10.933 20.094-2.542 8.611-11.567 13.451-20.094 10.933l-41.962-12.389c-2.09 13.523-4.764 25.691-7.944 36.676l43.97 12.982c8.568 2.53 13.463 11.526 10.933 20.094-2.542 8.611-11.568 13.451-20.094 10.933l-45.708-13.495c-.158-.047-.305-.111-.46-.161-7.23 15.204-15.76 27.343-25.196 37.287l35.233 10.403c8.568 2.53 13.463 11.526 10.933 20.094-2.542 8.611-11.568 13.451-20.094 10.933l-45.708-13.495c-3.339-.986-6.109-2.961-8.11-5.502-2.826 1.764-5.687 3.438-8.579 5.03-6.093 3.364-10.094 8.616-11.948 14.45-3.343 10.503.205 22.872 10.838 29.451l22.398 13.868c28.307 17.513 65.102 13.253 88.341-10.579 6.319-6.47 12.488-13.544 18.451-21.309 21.352-27.811 37.366-61.651 47.589-100.58 6.578-25.04 10.945-52.388 13.199-82.733.883-11.928-6.698-22.862-18.172-26.259z" fill="#565eec"/><g><path d="m303.388 88.467-45.708-13.495c-8.568-2.53-13.463-11.526-10.933-20.094s11.525-13.461 20.094-10.933l45.708 13.495c8.568 2.53 13.463 11.526 10.933 20.094-2.542 8.611-11.567 13.45-20.094 10.933z" fill="#a4bcff"/></g><path d="m353.429 16.974c-.002-.001-.004-.001-.006-.002l-52.848-15.602c-20.418-6.036-41.112 8.593-42.217 29.839-.086 1.655-.184 3.309-.285 4.959-8.526 1.548-15.903 7.726-18.519 16.587-3.434 11.63 2.519 23.835 13.418 28.477-1.393 8.001-3.033 15.646-4.901 22.856-10.409-.418-20.437 6.202-23.615 16.964-2.778 9.411.589 19.201 7.75 25.054-5.108 9.63-10.934 18.138-17.661 25.766l-5.969-1.762c-12.55-3.703-25.705 3.449-29.411 16.002-1.358 4.6-1.293 9.391.134 13.862-.773.441-1.539.888-2.322 1.32-22.18 12.246-22.717 43.674-1.434 56.842l22.4 13.87c31.275 19.349 71.969 14.623 97.652-11.717 34.178-34.992 55.603-78.286 67.928-125.224 6.736-25.641 11.128-53.145 13.426-84.084 1.136-15.334-8.755-29.635-23.52-34.007zm-99.489 40.028c1.368-4.632 6.24-7.202 10.777-5.864l45.709 13.495c2.223.656 4.057 2.139 5.164 4.174 3.116 5.73-.985 12.728-7.496 12.824-1.889.028 1.361.807-48.29-13.851-4.588-1.355-7.219-6.19-5.864-10.778zm-15.098 68.296c1.353-4.582 6.161-7.227 10.778-5.864l45.708 13.495c4.605 1.358 7.221 6.187 5.863 10.777-1.363 4.617-6.231 7.208-10.776 5.863-9.806-2.899-44.623-13.158-45.954-13.589-4.582-1.514-6.919-6.276-5.619-10.682zm-45.291 65.06c1.346-4.558 6.136-7.233 10.778-5.863l45.708 13.495c4.587 1.354 7.218 6.188 5.863 10.777-1.364 4.621-6.203 7.216-10.777 5.863-2.528-.746 5.851 1.728-45.714-13.497-4.501-1.331-7.238-6.101-5.858-10.775zm168.44-140.49c-2.229 30.016-6.474 56.637-12.974 81.384-11.842 45.095-32.217 85.859-64.156 118.559-20.866 21.401-53.838 25.019-79.023 9.438l-22.4-13.87c-11.4-7.054-11.477-24.183.784-30.953 1.345-.741 2.681-1.497 4-2.266 1.847 1.309 4.415 2.614 6.946 3.361l45.708 13.495c12.577 3.709 25.711-3.475 29.411-16.004 3.696-12.52-3.483-25.714-16.002-29.41l-24.038-7.098c5.898-7.393 11.119-15.472 15.774-24.402l40.148 11.853c12.788 3.77 25.793-3.751 29.41-16.003 3.705-12.549-3.451-25.705-16.002-29.412l-36.921-10.901c1.801-6.975 3.396-14.323 4.772-21.971l33.838 9.99h.001c12.476 3.681 25.707-3.456 29.41-16.003 3.706-12.55-3.452-25.705-16.003-29.412l-41.676-12.305c.124-1.979.238-3.969.342-5.956.599-11.555 11.872-19.519 22.986-16.23l52.851 15.603c8.042 2.389 13.432 10.173 12.814 18.513z" fill="#2115c2"/><path d="m81.51 381.422c-17.706 0-32.148-11.887-36.733-27.615l-28.456 51.348c-6.634 11.971-1.277 27.049 11.424 32.15l27.73 11.137c12.701 5.101 26.999-2.083 30.488-15.318l13.629-51.702z" fill="#ffff6f"/><g><path d="m63.955 457.581c-3.823 0-7.651-.724-11.275-2.179l-27.73-11.137c-8.049-3.232-14.33-9.773-17.235-17.946-2.904-8.174-2.159-17.213 2.045-24.8l28.456-51.348c1.468-2.647 4.384-4.157 7.392-3.818 3.009.336 5.521 2.448 6.368 5.355 3.873 13.287 15.742 22.214 29.533 22.214h18.082c2.326 0 4.521 1.079 5.941 2.922s1.904 4.24 1.312 6.49l-13.629 51.702c-2.211 8.388-7.925 15.431-15.676 19.325-4.26 2.14-8.917 3.22-13.584 3.22zm-19.563-87.606-21.511 38.816c-2.151 3.882-2.518 8.323-1.031 12.506 1.486 4.182 4.572 7.395 8.69 9.049l27.73 11.137c4.118 1.656 8.571 1.47 12.536-.524 3.966-1.992 6.773-5.453 7.905-9.746l11.148-42.29h-8.349c-15.142-.001-28.726-7.227-37.118-18.948z" fill="#f90"/></g><path d="m46.538 323.901c-1.003 3.904-1.898 8.012-2.674 12.315-4.238 23.541 13.739 45.206 37.646 45.206h70.147c9.948-5.97 21.588-9.409 34.034-9.409s24.086 3.439 34.034 9.409h152.048c9.948-5.97 21.588-9.409 34.034-9.409s24.086 3.439 34.034 9.409h4.079c30.162 0 54.609-24.447 54.609-54.609v-2.912z" fill="#565eec"/><g><path d="m443.92 388.922h-4.078c-1.359 0-1.36-1.703-2.526-2.403-9.092-5.456-20.861-10.365-31.509-10.365s-23.356 3.969-32.448 9.425c-1.166.7-.227 3.342-1.586 3.342h-152.047c-1.359 0-2.693-.369-3.859-1.069-9.093-5.456-19.527-10.098-30.176-10.098-10.648 0-21.083 4.642-30.176 10.098-1.166.7-2.499 1.069-3.859 1.069h-70.146c-13.579 0-26.362-5.974-35.07-16.39-8.75-10.467-12.38-24.187-9.957-37.644.799-4.428 1.738-8.751 2.791-12.852.852-3.315 3.841-5.634 7.264-5.634h451.992c4.143 0 7.5 3.357 7.5 7.5v2.912c0 34.247-27.862 62.109-62.11 62.109zm-2.06-15h2.061c24.429 0 44.575-18.689 46.888-42.521h-438.342c-.438 2.012-.847 4.065-1.223 6.147-1.633 9.068.811 18.313 6.704 25.362 5.851 6.998 14.438 11.012 23.562 11.012h68.129c10.98-6.162 23.398-7.419 36.052-7.419s25.072 1.257 36.052 7.419h148.013c10.979-6.162 23.398-7.438 36.051-7.438 12.655 0 25.074 1.276 36.053 7.438z" fill="#2115c2"/></g><circle cx="405.808" cy="438.257" fill="#565eec" r="25.04"/><circle cx="185.691" cy="438.257" fill="#565eec" r="25.04"/><g><path d="m405.808 470.796c-17.942 0-32.54-14.598-32.54-32.54s14.598-32.54 32.54-32.54c17.943 0 32.541 14.598 32.541 32.54-.001 17.943-14.598 32.54-32.541 32.54zm0-50.079c-9.672 0-17.54 7.868-17.54 17.54s7.868 17.54 17.54 17.54 17.541-7.868 17.541-17.54-7.87-17.54-17.541-17.54z" fill="#2115c2"/></g><g><path d="m185.691 470.796c-17.943 0-32.54-14.598-32.54-32.54s14.597-32.54 32.54-32.54 32.54 14.598 32.54 32.54c0 17.943-14.597 32.54-32.54 32.54zm0-50.079c-9.671 0-17.54 7.868-17.54 17.54s7.869 17.54 17.54 17.54 17.54-7.868 17.54-17.54-7.868-17.54-17.54-17.54z" fill="#2115c2"/></g><g><path d="m405.808 512c-40.663 0-73.743-33.081-73.743-73.743s33.081-73.743 73.743-73.743 73.743 33.081 73.743 73.743-33.081 73.743-73.743 73.743zm0-132.487c-32.391 0-58.744 26.352-58.744 58.744s26.352 58.743 58.744 58.743 58.744-26.352 58.744-58.744-26.353-58.743-58.744-58.743z" fill="#f90"/></g><g><path d="m185.691 512c-40.662 0-73.743-33.081-73.743-73.743s33.081-73.743 73.743-73.743 73.743 33.081 73.743 73.743-33.08 73.743-73.743 73.743zm0-132.487c-32.391 0-58.744 26.352-58.744 58.744s26.353 58.743 58.744 58.743 58.744-26.352 58.744-58.744-26.352-58.743-58.744-58.743z" fill="#f90"/></g></g></svg>