<svg id="Capa_1" enable-background="new 0 0 512 512" height="512" viewBox="0 0 512 512" width="512" xmlns="http://www.w3.org/2000/svg"><g><path d="m171.986 226.746c12.786-14.439 20.579-33.403 20.579-54.154 0-45.092-36.688-81.771-81.78-81.771-45.082 0-81.77 36.679-81.77 81.771 0 20.751 7.792 39.715 20.579 54.154-25.507 18.821-42.094 49.093-42.094 83.155 0 56.952 46.333 103.295 103.285 103.295 56.961 0 103.295-46.343 103.295-103.295 0-34.062-16.588-64.334-42.094-83.155zm-61.201-88.178c18.764 0 34.034 15.26 34.034 34.024 0 18.755-15.269 34.024-34.034 34.024-18.755 0-34.024-15.269-34.024-34.024 0-18.765 15.269-34.024 34.024-34.024zm0 226.881c-30.625 0-55.539-24.924-55.539-55.548s24.914-55.539 55.539-55.539c30.634 0 55.548 24.914 55.548 55.539 0 30.624-24.914 55.548-55.548 55.548z" fill="#ddbeff"/><path d="m363.018 89.208c-56.952 0-103.295 46.343-103.295 103.294v127.005c0 56.952 46.343 103.285 103.295 103.285s103.285-46.333 103.285-103.285v-127.005c0-56.952-46.333-103.294-103.285-103.294zm55.539 230.299c0 30.625-24.914 55.539-55.539 55.539-30.624 0-55.548-24.914-55.548-55.539v-127.005c0-30.624 24.924-55.548 55.548-55.548 30.625 0 55.539 24.924 55.539 55.548z" fill="#ff9bff"/><path d="m252.277 309.901c0 56.952-46.333 103.295-103.295 103.295h-38.197c56.961 0 103.295-46.343 103.295-103.295 0-34.062-16.587-64.333-42.093-83.155 12.786-14.439 20.579-33.403 20.579-54.154 0-45.092-36.688-81.771-81.78-81.771h38.197c45.092 0 81.78 36.679 81.78 81.771 0 20.751-7.792 39.715-20.579 54.154 25.506 18.821 42.093 49.093 42.093 83.155z" fill="#9448f5"/><g fill="#6d00ca"><path d="m110.785 214.116c22.901 0 41.533-18.628 41.533-41.524s-18.632-41.524-41.533-41.524c-22.896 0-41.524 18.628-41.524 41.524s18.628 41.524 41.524 41.524zm0-68.049c14.631 0 26.533 11.898 26.533 26.524s-11.902 26.524-26.533 26.524c-14.626 0-26.524-11.898-26.524-26.524s11.898-26.524 26.524-26.524z"/><path d="m173.833 309.9c0-34.76-28.283-63.038-63.048-63.038-34.76 0-63.039 28.278-63.039 63.038 0 34.766 28.279 63.049 63.039 63.049 34.765 0 63.048-28.283 63.048-63.049zm-111.087 0c0-26.488 21.55-48.038 48.039-48.038 26.494 0 48.048 21.55 48.048 48.038 0 26.494-21.554 48.049-48.048 48.049-26.489 0-48.039-21.554-48.039-48.049z"/><path d="m220.77 225.582c11.328-15.315 17.492-33.854 17.492-52.99 0-49.224-40.051-89.271-89.279-89.271h-38.197c-49.224 0-89.271 40.047-89.271 89.271 0 19.136 6.164 37.675 17.492 52.99-24.556 20.97-39.007 51.939-39.007 84.318 0 61.093 49.698 110.795 110.785 110.795h38.197c61.092 0 110.794-49.702 110.794-110.795 0-32.379-14.451-63.348-39.006-84.318zm-205.77 84.318c0-30.248 14.597-59.078 39.046-77.119 1.694-1.25 2.784-3.154 3.006-5.248.221-2.094-.448-4.184-1.844-5.76-12.055-13.611-18.693-31.078-18.693-49.182 0-40.953 33.317-74.271 74.271-74.271 40.958 0 74.28 33.317 74.28 74.271 0 18.103-6.639 35.569-18.694 49.182-1.396 1.576-2.064 3.666-1.844 5.76.222 2.094 1.312 3.998 3.006 5.248 24.449 18.041 39.046 46.871 39.046 77.119 0 52.821-42.973 95.795-95.794 95.795-52.817 0-95.786-42.973-95.786-95.795zm155.332 93.397c31.315-19.927 51.247-54.917 51.247-93.396 0-32.38-14.451-63.349-39.007-84.318 11.329-15.315 17.493-33.855 17.493-52.99 0-29.145-14.178-56.306-38.147-73.144 34.812 6.14 61.344 36.603 61.344 73.144 0 18.104-6.639 35.57-18.693 49.182-1.396 1.576-2.064 3.666-1.844 5.76.222 2.094 1.312 3.998 3.006 5.248 24.449 18.041 39.046 46.871 39.046 77.119-.001 45.482-31.868 83.664-74.445 93.395z"/></g><path d="m504.5 192.502v127.005c0 56.952-46.333 103.285-103.285 103.285h-38.197c56.952 0 103.285-46.333 103.285-103.285v-127.005c0-56.952-46.333-103.294-103.285-103.294h38.197c56.952 0 103.285 46.342 103.285 103.294z" fill="#ff63ed"/><g fill="#e207b9"><path d="m401.215 81.707h-38.197c-61.092 0-110.794 49.702-110.794 110.795v127.006c0 61.087 49.702 110.785 110.794 110.785h38.197c61.087 0 110.785-49.698 110.785-110.785v-127.006c0-61.093-49.698-110.795-110.785-110.795zm-133.991 237.801v-127.006c0-52.821 42.973-95.795 95.794-95.795 52.816 0 95.785 42.974 95.785 95.795v127.006c0 52.816-42.969 95.785-95.785 95.785-52.822 0-95.794-42.969-95.794-95.785zm229.776 0c0 45.482-31.861 83.661-74.438 93.388 33.319-21.51 51.241-56.999 51.241-93.388v-127.006c0-38.826-20.241-73.668-51.244-93.397 42.577 9.727 74.441 47.91 74.441 93.397z"/><path d="m426.057 319.508v-127.006c0-34.765-28.279-63.048-63.039-63.048-34.765 0-63.048 28.283-63.048 63.048v127.006c0 34.76 28.283 63.038 63.048 63.038 34.759 0 63.039-28.278 63.039-63.038zm-111.087 0v-127.006c0-26.494 21.554-48.048 48.048-48.048 26.489 0 48.039 21.554 48.039 48.048v127.006c0 26.488-21.55 48.038-48.039 48.038-26.495 0-48.048-21.55-48.048-48.038z"/></g></g></svg>