<svg id="Capa_1" enable-background="new 0 0 512 512" height="512" viewBox="0 0 512 512" width="512" xmlns="http://www.w3.org/2000/svg"><g><path d="m347.12 15.623h-246.866c-22.466 0-40.678 18.212-40.678 40.678v225.115c0 22.466 18.212 40.678 40.678 40.678h246.866c22.466 0 40.678-18.212 40.678-40.678v-225.115c-.001-22.466-18.213-40.678-40.678-40.678z" fill="#ddbeff"/><path d="m399.585 322.094h-351.797c-22.251 0-40.288 18.038-40.288 40.288v93.706c0 22.251 18.038 40.288 40.288 40.288h351.797c22.251 0 40.288-18.038 40.288-40.288v-93.706c0-22.25-18.037-40.288-40.288-40.288z" fill="#ff9bff"/><path d="m124.828 59.125h197.718v219.468h-197.718z" fill="#88f8d8" transform="matrix(0 1 -1 0 392.545 -54.828)"/><g><path d="m333.421 275.218h-219.468c-4.142 0-7.5-3.358-7.5-7.5v-197.718c0-4.142 3.358-7.5 7.5-7.5h219.468c4.142 0 7.5 3.358 7.5 7.5v197.718c0 4.142-3.358 7.5-7.5 7.5zm-211.968-15h204.468v-182.718h-204.468z" fill="#007ea8"/></g><g fill="#88f8d8"><circle cx="343.315" cy="409.235" r="21.159"/><circle cx="268.9" cy="409.235" r="21.159"/><path d="m174.799 388.076h-74.289c-11.686 0-21.159 9.473-21.159 21.159 0 11.686 9.473 21.159 21.159 21.159h74.289c11.686 0 21.159-9.473 21.159-21.159.001-11.686-9.473-21.159-21.159-21.159z"/></g><g><path d="m343.314 437.895c-15.803 0-28.659-12.856-28.659-28.66 0-15.803 12.856-28.659 28.659-28.659s28.66 12.856 28.66 28.659c0 15.804-12.856 28.66-28.66 28.66zm0-42.319c-7.532 0-13.659 6.127-13.659 13.659s6.127 13.66 13.659 13.66 13.66-6.128 13.66-13.66-6.128-13.659-13.66-13.659z" fill="#007ea8"/></g><g><path d="m268.9 437.895c-15.803 0-28.66-12.856-28.66-28.66 0-15.803 12.856-28.659 28.66-28.659 15.803 0 28.659 12.856 28.659 28.659.001 15.804-12.856 28.66-28.659 28.66zm0-42.319c-7.532 0-13.66 6.127-13.66 13.659s6.128 13.66 13.66 13.66 13.659-6.128 13.659-13.66-6.127-13.659-13.659-13.659z" fill="#007ea8"/></g><g><path d="m174.799 437.895h-74.29c-15.803 0-28.659-12.856-28.659-28.659s12.856-28.659 28.659-28.659h74.29c15.803 0 28.659 12.856 28.659 28.659s-12.856 28.659-28.659 28.659zm-74.289-42.319c-7.532 0-13.659 6.127-13.659 13.659s6.127 13.659 13.659 13.659h74.29c7.532 0 13.659-6.127 13.659-13.659s-6.127-13.659-13.659-13.659z" fill="#007ea8"/></g><circle cx="273.904" cy="150.086" fill="#007ea8" r="10.655"/><g><path d="m246.248 186.304h-45.123c-4.142 0-7.5-3.358-7.5-7.5s3.358-7.5 7.5-7.5h45.123c4.142 0 7.5 3.358 7.5 7.5s-3.358 7.5-7.5 7.5z" fill="#007ea8"/></g><circle cx="173.469" cy="150.086" fill="#007ea8" r="10.655"/><path d="m412.371 15.623h-65.251c22.466 0 40.678 18.212 40.678 40.678v225.115c0 22.466-18.212 40.678-40.678 40.678h65.252c22.466 0 40.678-18.212 40.678-40.678v-225.115c-.001-22.466-18.213-40.678-40.679-40.678z" fill="#b98eff"/><path d="m464.212 322.094h-64.627c22.251 0 40.288 18.038 40.288 40.288v93.706c0 22.251-18.038 40.288-40.288 40.288h64.627c22.251 0 40.288-18.038 40.288-40.288v-93.706c0-22.25-18.038-40.288-40.288-40.288z" fill="#ff63ed"/><path d="m412.371 8.124h-65.251-246.867c-26.565 0-48.178 21.612-48.178 48.178v225.115c0 26.565 21.612 48.178 48.178 48.178h246.867 65.251c26.565 0 48.178-21.612 48.178-48.178v-225.116c0-26.565-21.612-48.177-48.178-48.177zm-345.295 273.293v-225.116c0-18.294 14.883-33.178 33.178-33.178h246.866c18.294 0 33.178 14.883 33.178 33.178v225.115c0 18.294-14.883 33.178-33.178 33.178h-246.867c-18.294 0-33.177-14.883-33.177-33.177zm378.473 0c0 18.294-14.883 33.178-33.178 33.178h-30.349c8.238-8.666 13.275-20.436 13.275-33.178v-225.116c0-12.326-4.744-24.203-13.275-33.178h30.349c18.294 0 33.178 14.883 33.178 33.178z" fill="#6d00ca"/><path d="m464.212 314.594h-64.627-351.797c-26.35 0-47.788 21.438-47.788 47.788v93.706c0 26.351 21.438 47.788 47.788 47.788h416.424c26.351 0 47.788-21.438 47.788-47.788v-93.706c0-26.35-21.437-47.788-47.788-47.788zm-449.212 141.494v-93.706c0-18.08 14.708-32.788 32.788-32.788h351.797c18.08 0 32.788 14.708 32.788 32.788v93.706c0 18.08-14.708 32.788-32.788 32.788h-351.797c-18.08 0-32.788-14.708-32.788-32.788zm482 0c0 18.08-14.708 32.788-32.788 32.788h-29.892c8.079-8.558 13.053-20.171 13.053-32.788v-93.706c0-12.533-4.919-24.171-13.053-32.788h29.892c18.08 0 32.788 14.708 32.788 32.788z" fill="#e207b9"/></g></svg>