<svg id="Capa_1" enable-background="new 0 0 512 512" height="512" viewBox="0 0 512 512" width="512" xmlns="http://www.w3.org/2000/svg"><g><g><path d="m323.595 356.759v85.24c0 13.339-10.814 24.153-24.153 24.153h-40.317c-13.339 0-24.153-10.814-24.153-24.153s10.814-24.153 24.153-24.153h16.164v-61.086h48.306z" fill="#ff63ed"/></g><g><path d="m211.183 356.759v85.24c0 13.339-10.814 24.153-24.153 24.153h-40.317c-13.339 0-24.153-10.814-24.153-24.153s10.814-24.153 24.153-24.153h16.164v-61.086h48.306z" fill="#ff63ed"/></g><g><g><path d="m299.442 473.651h-40.318c-17.454 0-31.653-14.2-31.653-31.653s14.2-31.653 31.653-31.653h8.664v-53.586c0-4.142 3.358-7.5 7.5-7.5h48.307c4.142 0 7.5 3.358 7.5 7.5v85.239c0 17.454-14.199 31.653-31.653 31.653zm-40.318-48.306c-9.183 0-16.653 7.471-16.653 16.653s7.471 16.653 16.653 16.653h40.318c9.183 0 16.653-7.471 16.653-16.653v-77.739h-33.307v53.586c0 4.142-3.358 7.5-7.5 7.5z" fill="#e207b9"/></g></g><g><g><path d="m187.03 473.651h-40.317c-17.454 0-31.653-14.2-31.653-31.653s14.2-31.653 31.653-31.653h8.664v-53.586c0-4.142 3.358-7.5 7.5-7.5h48.307c4.142 0 7.5 3.358 7.5 7.5v85.239c-.001 17.454-14.201 31.653-31.654 31.653zm-40.318-48.306c-9.183 0-16.653 7.471-16.653 16.653s7.471 16.653 16.653 16.653h40.317c9.183 0 16.653-7.471 16.653-16.653v-77.739h-33.307v53.586c0 4.142-3.358 7.5-7.5 7.5z" fill="#e207b9"/></g></g><path d="m162.876 356.759h48.307v32.276h-48.307z" fill="#e207b9"/><path d="m275.288 356.759h48.307v32.276h-48.307z" fill="#e207b9"/><path d="m461.09 201.299v102.66c0 29.16-23.64 52.8-52.8 52.8h-347.99c-29.16 0-52.8-23.64-52.8-52.8v-102.66z" fill="#ddbeff"/><path d="m504.5 98.638v205.32c0 29.16-23.64 52.8-52.8 52.8h-43.41c29.16 0 52.8-23.64 52.8-52.8v-205.32c0-29.16-23.64-52.79-52.8-52.79h43.41c29.16 0 52.8 23.631 52.8 52.79z" fill="#9448f5"/><path d="m461.09 98.638v102.66h-453.59v-102.66c0-29.16 23.64-52.79 52.8-52.79h347.99c29.16 0 52.8 23.631 52.8 52.79z" fill="#b98eff"/><path d="m300.278 88.793h-214.401c-13.098 0-23.716 10.618-23.716 23.716v22.13c0 13.098 10.618 23.716 23.716 23.716h214.401c13.098 0 23.716-10.618 23.716-23.716v-22.13c-.001-13.099-10.619-23.716-23.716-23.716z" fill="#ddbeff"/><g><path d="m300.277 165.854h-214.401c-17.212 0-31.216-14.003-31.216-31.216v-22.13c0-17.212 14.003-31.216 31.216-31.216h214.401c17.213 0 31.216 14.003 31.216 31.216v22.13c.001 17.213-14.003 31.216-31.216 31.216zm-214.401-69.562c-8.941 0-16.216 7.274-16.216 16.216v22.13c0 8.941 7.274 16.216 16.216 16.216h214.401c8.942 0 16.216-7.274 16.216-16.216v-22.13c0-8.941-7.274-16.216-16.216-16.216z" fill="#6d00ca"/></g><path d="m300.278 239.248h-214.401c-13.098 0-23.716 10.618-23.716 23.716v32.13c0 13.098 10.618 23.716 23.716 23.716h214.401c13.098 0 23.716-10.618 23.716-23.716v-32.13c-.001-13.098-10.619-23.716-23.716-23.716z" fill="#88f8d8"/><g><path d="m300.277 326.31h-214.401c-17.212 0-31.216-14.003-31.216-31.216v-32.13c0-17.212 14.003-31.216 31.216-31.216h214.401c17.213 0 31.216 14.003 31.216 31.216v32.13c.001 17.212-14.003 31.216-31.216 31.216zm-214.401-79.562c-8.941 0-16.216 7.274-16.216 16.216v32.13c0 8.941 7.274 16.216 16.216 16.216h214.401c8.942 0 16.216-7.274 16.216-16.216v-32.13c0-8.941-7.274-16.216-16.216-16.216z" fill="#007ea8"/></g><circle cx="244.982" cy="270.695" fill="#007ea8" r="11.013"/><g><path d="m216.396 297.542h-46.639c-4.142 0-7.5-3.358-7.5-7.5s3.358-7.5 7.5-7.5h46.639c4.142 0 7.5 3.358 7.5 7.5s-3.357 7.5-7.5 7.5z" fill="#007ea8"/></g><circle cx="141.172" cy="270.695" fill="#007ea8" r="11.013"/><circle cx="390.542" cy="123.574" fill="#ff63ed" r="29.166"/><g><path d="m390.542 160.24c-20.218 0-36.667-16.448-36.667-36.666s16.449-36.667 36.667-36.667 36.666 16.449 36.666 36.667-16.448 36.666-36.666 36.666zm0-58.333c-11.947 0-21.667 9.72-21.667 21.667s9.72 21.666 21.667 21.666 21.666-9.719 21.666-21.666-9.719-21.667-21.666-21.667z" fill="#e207b9"/></g><path d="m419.71 279.029v23.15c0 9.19-7.45 16.63-16.63 16.63h-23.08c-9.18 0-16.62-7.44-16.62-16.63v-23.15z" fill="#ff63ed"/><path d="m419.71 255.878v23.15h-56.33v-23.15c0-9.19 7.44-16.63 16.62-16.63h23.08c9.18.001 16.63 7.441 16.63 16.63z" fill="#ff63ed"/><path d="m403.08 231.749h-23.08c-13.3 0-24.12 10.825-24.12 24.13v46.3c0 13.305 10.82 24.13 24.12 24.13h23.08c13.305 0 24.13-10.825 24.13-24.13 0-18.58 0-23.973 0-46.3 0-13.306-10.825-24.13-24.13-24.13zm-32.2 24.129c0-5.034 4.091-9.13 9.12-9.13h23.08c5.034 0 9.13 4.096 9.13 9.13v15.65h-41.33zm41.33 46.301c0 5.034-4.096 9.13-9.13 9.13h-23.08c-5.029 0-9.12-4.096-9.12-9.13v-15.65h41.33z" fill="#e207b9"/><path d="m451.7 38.349h-43.41-347.99c-33.25 0-60.3 27.046-60.3 60.29v102.66 102.66c0 33.25 27.05 60.3 60.3 60.3h347.99 43.41c33.25 0 60.3-27.051 60.3-60.3v-205.32c0-33.244-27.05-60.29-60.3-60.29zm-436.7 60.29c0-24.973 20.321-45.29 45.3-45.29h347.99c24.979 0 45.3 20.317 45.3 45.29v95.16h-438.59zm393.29 250.62h-347.99c-24.979 0-45.3-20.322-45.3-45.3v-95.16h438.59v95.16c0 24.978-20.321 45.3-45.3 45.3zm88.71-45.301c0 24.979-20.321 45.3-45.3 45.3h-3.652c12.762-11.214 20.542-27.621 20.542-45.3 0-5.791 0-199.529 0-205.32 0-17.198-7.413-33.761-20.539-45.29h3.649c24.979 0 45.3 20.317 45.3 45.29z" fill="#6d00ca"/></g></svg>