<svg id="Capa_1" enable-background="new 0 0 512 512" height="512" viewBox="0 0 512 512" width="512" xmlns="http://www.w3.org/2000/svg"><g><path d="m86.495 150.385h285.78v129.106h-285.78z" fill="#ffff6f"/><path d="m372.276 279.491v60.872c0 31.315-25.389 56.694-56.704 56.694h-172.383c-31.315 0-56.694-25.379-56.694-56.694v-60.872z" fill="#ff9bff"/><path d="m372.276 150.385h-285.781c0-78.92 63.976-142.885 142.885-142.885 78.92 0 142.896 63.965 142.896 142.885z" fill="#ff9bff"/><circle cx="281.514" cy="210.754" fill="#f90" r="11.061"/><circle cx="177.256" cy="210.754" fill="#f90" r="11.061"/><path d="m425.505 150.385v189.978c0 31.315-25.389 56.694-56.704 56.694h-53.229c31.315 0 56.704-25.379 56.704-56.694v-189.978c0-78.92-63.976-142.885-142.896-142.885h53.229c78.92 0 142.896 63.965 142.896 142.885z" fill="#ff63ed"/><path d="m280.5 397.057v68.123c0 10.857-4.399 20.689-11.52 27.8-7.111 7.121-16.943 11.52-27.8 11.52-21.713 0-39.319-17.606-39.319-39.319v-68.123h78.639z" fill="#ffd600"/><path d="m313.643 397.057v68.123c0 21.714-17.606 39.319-39.319 39.319h-33.143c10.857 0 20.689-4.399 27.8-11.52 7.121-7.11 11.52-16.943 11.52-27.8v-68.123h33.142z" fill="#f90"/><path d="m313.643 389.558c-12.533 0-101.168 0-111.781 0-4.142 0-7.5 3.358-7.5 7.5v68.123c0 25.816 21.003 46.819 46.819 46.819h33.143c25.816 0 46.819-21.003 46.819-46.819v-68.123c0-4.142-3.358-7.5-7.5-7.5zm-104.281 75.623v-60.623h63.638v60.623c0 17.572-14.222 31.819-31.819 31.819-17.545 0-31.819-14.274-31.819-31.819zm96.781 0c0 17.137-13.617 31.154-30.6 31.796 7.965-8.577 12.457-19.887 12.457-31.796v-60.623h18.143z" fill="#f95116"/><path d="m203.901 396.805h109.279v29.834h-109.279z" fill="#f95116"/><path d="m372.276 150.385h52.933v129.106h-52.933z" fill="#ffd600"/><path d="m282.609 0h-53.229c-82.922 0-150.385 67.462-150.385 150.385 0 4.142 7.568 3.29 11.71 3.29 16.289 0 269.252.887 316.679 1.01 2.689.007 5.289-.711 7.789-1.703 3.368-1.336 9.958 1.703 10.036 1.703 4.142 0 7.796-.158 7.796-4.3 0-82.923-67.467-150.385-150.396-150.385zm-53.229 15c72.464 0 131.295 56.959 135.184 127.885l.211 6.103-270.78-1.344.205-4.759c3.904-71.178 63.044-127.885 135.18-127.885zm150.211 127.885c-2.742-54.84-35.183-103.191-83.382-127.208 65.845 6.595 117.936 60.556 121.591 127.208z" fill="#e207b9"/><path d="m432.709 279.455c-.02-4.128-3.372-3.827-7.5-3.827h-52.934-285.78c-4.142 0-7.5-.279-7.5 3.863v60.872c0 35.397 28.797 64.194 64.194 64.194h225.611c35.402 0 64.204-28.797 64.204-64.231zm-338.714 60.908v-56.703h270.78v56.703c0 27.126-22.073 49.194-49.204 49.194h-172.382c-27.126.001-49.194-22.068-49.194-49.194zm274.806 49.195h-12.025c14.557-12.209 23-30.25 23-49.194v-53.372h37.97l.259 53.372c0 27.125-22.073 49.194-49.204 49.194z" fill="#e207b9"/><g fill="#f90"><path d="m252.806 222.684h-46.84c-4.142 0-7.5 3.358-7.5 7.5s3.358 7.5 7.5 7.5h46.84c4.142 0 7.5-3.358 7.5-7.5s-3.358-7.5-7.5-7.5z"/><path d="m425.209 142.885c-15.164 0-321.173 0-338.714 0-4.142 0-7.5 3.358-7.5 7.5v129.106c0 4.142 3.358 7.5 7.5 7.5h338.714c4.142 0 7.5-3.358 7.5-7.5v-129.106c0-4.142-3.358-7.5-7.5-7.5zm-331.214 15h270.78v114.106h-270.78zm323.714 114.106h-37.934v-114.106h37.934z"/></g></g></svg>