<svg id="Capa_1" enable-background="new 0 0 512 512" height="512" viewBox="0 0 512 512" width="512" xmlns="http://www.w3.org/2000/svg"><g><g><path d="m434.034 116.192c-59.01 0-114.492 22.983-156.21 64.701-10.978 10.978-20.645 22.916-28.951 35.612 16.064 12.033 28.441 28.718 35.135 48.058 8.025-16.559 18.848-31.837 32.243-45.232 31.461-31.461 73.288-48.793 117.782-48.793 21.037 0 41.481 3.873 60.522 11.294v-57.28c-19.436-5.515-39.761-8.36-60.521-8.36z" fill="#ff63ed"/></g><g><path d="m434.034 170.538c-44.494 0-86.321 17.331-117.782 48.793-13.395 13.395-24.218 28.673-32.243 45.232 2.901 8.38 4.737 17.256 5.341 26.47.076 0 .151-.006.228-.006 14.134 0 27.037 5.235 36.906 13.857 5.255-17.619 14.832-33.762 28.196-47.127 21.195-21.205 49.376-32.874 79.355-32.874 21.788 0 42.627 6.166 60.522 17.677v-60.729c-19.042-7.42-39.486-11.293-60.523-11.293z" fill="#a4bcff"/></g><g><g><path d="m326.484 312.384c-1.792 0-3.551-.643-4.936-1.852-8.837-7.72-20.152-11.981-31.873-12.005-.112.004-.219.006-.326.006-3.952 0-7.226-3.066-7.484-7.01-.548-8.366-2.211-16.612-4.944-24.507-.649-1.877-.527.773.339-1.015 8.472-17.481 19.807-33.383 33.688-47.265 32.881-32.881 76.594-50.989 123.086-50.989 21.866 0 43.145 3.972 63.245 11.806 2.88 1.123 4.776-.812 4.776 2.28v60.729c0 2.744-1.498 5.269-3.907 6.583-2.408 1.313-5.343 1.209-7.65-.276-16.765-10.785-36.29-16.485-56.464-16.485-27.979 0-54.277 10.895-74.051 30.677-12.306 12.305-21.404 27.509-26.313 43.968-.729 2.446-2.652 4.353-5.104 5.062-.685.197-1.386.293-2.082.293zm-31.498-25.083c9.421.985 18.486 4.063 26.543 8.987 5.988-15.022 16.282-32.27 27.846-43.834 22.606-22.616 52.672-35.071 84.659-35.071 18.565 0 36.658 4.229 53.021 12.322v-50.587c-16.941-5.98-39.185-5.514-57.455-5.514-42.485 0-82.432 16.548-112.479 46.596-11.979 11.978-21.879 25.593-29.46 40.506 1.914 6.107 6.514 20.239 7.325 26.595z" fill="#2115c2"/></g></g><g><g><path d="m284.011 272.063c-.147 0-.296-.004-.444-.013-3.029-.179-5.652-2.166-6.646-5.034-6.154-17.78-17.407-33.171-32.543-44.508-3.167-2.373-2.055-4.906.111-8.217 8.645-13.213 18.712-25.597 29.923-36.809 43.14-43.14 100.5-66.898 161.514-66.898 21.3 0 42.351 2.908 62.568 8.644 3.227.916 3.561 1.97 3.561 5.324v57.28c0 2.477-1.223 4.794-3.268 6.192-2.044 1.397-4.646 1.695-6.956.796-18.357-7.155-37.803-10.782-57.798-10.782-42.485 0-82.432 16.548-112.479 46.596-12.696 12.695-23.058 27.23-30.798 43.2-1.257 2.596-3.886 4.229-6.745 4.229zm-27.702-59.736c10.664 9.119 22.049 22.761 28.469 35.099 7.289-12.092 16.054-23.283 26.171-33.399 32.88-32.881 76.593-50.989 123.085-50.989 18.194 0 35.98 2.75 53.021 8.187v-43.691c-17.207-4.386-37.766-6.591-55.772-6.591-57.007 0-109.814 22.984-150.12 63.29-8.874 8.875-17.671 17.844-24.854 28.094z" fill="#e207b9"/></g></g><g><path d="m434.034 7.5c-139.542 0-258.828 86.717-306.919 209.199 16.979-12.799 38.1-20.396 61.001-20.396 3.046 0 6.058.141 9.035.404 11.623-19.531 25.754-37.75 42.245-54.241 51.984-51.984 121.112-80.62 194.637-80.62 20.612 0 40.888 2.253 60.522 6.64v-55.433c-19.623-3.646-39.85-5.553-60.521-5.553z" fill="#ffff6f"/></g><g><path d="m434.034 61.846c-73.525 0-142.653 28.635-194.637 80.62-16.491 16.491-30.622 34.71-42.245 54.241 19.301 1.704 37.049 8.808 51.722 19.798 8.306-12.696 17.973-24.634 28.951-35.612 41.718-41.718 97.2-64.701 156.21-64.701 20.76 0 41.085 2.846 60.522 8.359v-56.065c-19.635-4.387-39.911-6.64-60.523-6.64z" fill="#f90"/></g><g><g><path d="m127.115 224.199c-1.598 0-3.195-.509-4.536-1.527-2.673-2.03-3.672-5.589-2.445-8.714 24.485-62.359 66.627-115.594 121.87-153.95 56.542-39.258 122.945-60.008 192.03-60.008 20.787 0 41.61 1.911 61.892 5.679 3.553.661 6.13 3.76 6.13 7.374v55.433c0 2.276-1.034 4.43-2.811 5.853-1.775 1.423-4.104 1.963-6.325 1.466-19.182-4.286-38.994-6.459-58.886-6.459-71.522 0-138.763 27.851-189.334 78.423-15.894 15.894-29.723 33.65-41.103 52.773-1.473 2.476-4.239 3.892-7.104 3.636-2.819-.249-5.637-.375-8.376-.375-20.565 0-40.098 6.53-56.487 18.885-1.337 1.007-2.926 1.511-4.515 1.511zm306.919-209.199c-66.013 0-129.458 19.824-183.476 57.329-46.482 32.273-83.255 75.56-107.352 126.116 13.982-6.35 29.188-9.643 44.91-9.643 1.644 0 3.31.039 4.987.116 11.543-18.689 25.317-36.083 40.991-51.757 53.401-53.402 124.416-82.816 199.94-82.816 17.849 0 35.642 1.659 53.021 4.939v-39.934c-17.434-2.888-35.241-4.35-53.021-4.35z" fill="#f90"/></g></g><g><g><path d="m248.874 224.005c-1.61 0-3.189-.519-4.497-1.497-13.963-10.459-30.521-16.798-47.885-18.33-2.569-.227-4.842-1.758-6.017-4.055-1.175-2.296-1.087-5.035.231-7.252 12.016-20.192 26.614-38.936 43.387-55.709 53.404-53.405 124.411-82.816 199.94-82.816 20.99 0 41.902 2.295 62.157 6.821 3.427.766 5.864 3.808 5.864 7.319v56.065c0 2.351-1.103 4.566-2.978 5.983-1.877 1.418-4.308 1.873-6.569 1.232-18.886-5.358-38.56-8.075-58.475-8.075-57.007 0-110.6 22.198-150.906 62.504-10.484 10.484-19.897 22.063-27.978 34.415-1.135 1.734-2.936 2.921-4.976 3.28-.43.077-.865.115-1.298.115zm-39.276-33.074c13.262 2.656 25.916 7.769 37.325 15.095 7.621-10.833 16.208-21.046 25.598-30.436 43.141-43.14 100.5-66.898 161.514-66.898 17.968 0 35.759 2.07 53.021 6.16v-40.288c-17.344-3.465-35.15-5.219-53.021-5.219-71.522 0-138.763 27.851-189.334 78.423-13.199 13.199-24.972 27.68-35.103 43.163z" fill="#f95116"/></g></g><path d="m289.577 403.293c31.002 0 56.133-25.132 56.133-56.133 0-31.002-25.132-56.133-56.133-56.133-.076 0-.151.005-.228.006-3.466-52.896-47.46-94.73-101.233-94.73-42.616 0-79.09 26.277-94.118 63.51-1.564-.102-3.137-.172-4.728-.172-39.669 0-71.826 32.158-71.826 71.826s32.158 71.826 71.826 71.826z" fill="#88f8d8"/><circle cx="234.373" cy="311.056" fill="#007ea8" r="11.202"/><g><path d="m205.297 338.234h-47.439c-4.142 0-7.5-3.358-7.5-7.5s3.358-7.5 7.5-7.5h47.439c4.142 0 7.5 3.358 7.5 7.5s-3.358 7.5-7.5 7.5z" fill="#007ea8"/></g><circle cx="128.782" cy="311.056" fill="#007ea8" r="11.202"/><g><path d="m263.477 403.401v76.531c0 13.568-11 24.568-24.568 24.568h-41.009c-13.568 0-24.568-11-24.568-24.568s11-24.568 24.568-24.568h16.442v-51.963z" fill="#9448f5"/></g><g><path d="m149.136 403.401v76.531c0 13.568-11 24.568-24.568 24.568h-41.009c-13.568 0-24.568-11-24.568-24.568s11-24.568 24.568-24.568h16.441v-51.963z" fill="#9448f5"/></g><g><g><path d="m238.91 512h-41.01c-17.682 0-32.068-14.386-32.068-32.068s14.386-32.068 32.068-32.068h8.942v-44.463c0-4.142 3.358-5.499 7.5-5.499h49.136c4.143 0 7.5 1.357 7.5 5.499v76.531c0 17.682-14.386 32.068-32.068 32.068zm-41.01-49.136c-9.411 0-17.068 7.657-17.068 17.068s7.657 17.068 17.068 17.068h41.01c9.411 0 17.068-7.657 17.068-17.068v-69.031h-34.136v44.463c0 4.142-3.358 7.5-7.5 7.5z" fill="#6d00ca"/></g></g><g><g><path d="m124.568 512h-41.009c-17.682 0-32.068-14.386-32.068-32.068s14.386-32.068 32.068-32.068h8.941v-44.463c0-4.142 3.358-5.499 7.5-5.499h49.136c4.142 0 7.5 1.357 7.5 5.499v76.531c0 17.682-14.386 32.068-32.068 32.068zm-41.009-49.136c-9.411 0-17.068 7.657-17.068 17.068s7.657 17.068 17.068 17.068h41.009c9.411 0 17.068-7.657 17.068-17.068v-69.031h-34.136v44.463c0 4.142-3.358 7.5-7.5 7.5z" fill="#6d00ca"/></g></g><path d="m100 403.401h49.136v32.83h-49.136z" fill="#6d00ca"/><path d="m214.342 403.401h49.136v32.83h-49.136z" fill="#6d00ca"/><g><path d="m289.577 410.793h-200.306c-43.741 0-79.327-35.586-79.327-79.327 0-43.698 35.516-79.257 79.199-79.326 17.781-38.652 56.069-63.338 98.973-63.338 54.972 0 101.205 41.244 108.074 95.065 31.99 3.319 57.021 30.438 57.021 63.292 0 35.089-28.546 63.634-63.634 63.634zm-200.306-143.652c-35.47 0-64.327 28.856-64.327 64.326s28.857 64.327 64.327 64.327h200.306c26.816 0 48.634-21.817 48.634-48.633 0-26.785-21.768-48.583-48.542-48.633-.11.003-.211.004-.32.006-3.948 0-7.225-3.064-7.483-7.01-3.223-49.189-44.402-87.72-93.749-87.72-38.528 0-72.741 23.087-87.163 58.817-1.211 3.002-4.209 4.887-7.443 4.677-1.632-.108-2.979-.157-4.24-.157z" fill="#007ea8"/></g></g></svg>