<svg id="Capa_1" enable-background="new 0 0 512 512" height="512" viewBox="0 0 512 512" width="512" xmlns="http://www.w3.org/2000/svg"><g><path d="m366.072 155.784h-220.144c-14.182 0-25.678 11.497-25.678 25.678 0 14.182 11.497 25.678 25.678 25.678h220.145c14.182 0 25.678-11.497 25.678-25.678-.001-14.181-11.497-25.678-25.679-25.678z" fill="#7181ff"/><path d="m145.928 453.144h220.145c5.707 0 10.978 1.865 15.241 5.014v-256.032c-4.263 3.15-9.534 5.014-15.241 5.014h-220.145c-5.707 0-10.978-1.865-15.241-5.014v256.032c4.263-3.15 9.533-5.014 15.241-5.014z" fill="#ff9bff"/><path d="m366.072 504.5h-220.144c-14.182 0-25.678-11.497-25.678-25.678 0-14.182 11.497-25.678 25.678-25.678h220.145c14.182 0 25.678 11.496 25.678 25.678-.001 14.181-11.497 25.678-25.679 25.678z" fill="#7181ff"/><path d="m233.295 68.417h45.409c3.76 0 7.456.264 11.091.725v-41.118c0-11.335-9.189-20.524-20.524-20.524h-26.543c-11.335 0-20.524 9.189-20.524 20.524v41.118c3.636-.461 7.332-.725 11.091-.725z" fill="#7181ff"/><path d="m278.705 68.417h-45.409c-48.252 0-87.368 39.116-87.368 87.368h220.145c-.001-48.253-39.116-87.368-87.368-87.368z" fill="#ff9bff"/><g><path d="m381.314 465.658c-1.576 0-3.143-.496-4.458-1.468-3.14-2.32-6.869-3.546-10.784-3.546h-220.144c-3.915 0-7.645 1.227-10.784 3.546-2.277 1.682-5.309 1.94-7.835.664-2.528-1.275-4.122-3.865-4.122-6.696v-256.032c0-2.831 1.594-5.421 4.121-6.696 2.531-1.276 5.558-1.019 7.835.663 3.142 2.32 6.871 3.547 10.785 3.547h220.145c3.914 0 7.644-1.227 10.785-3.547 2.277-1.682 5.306-1.939 7.835-.663 2.527 1.275 4.121 3.865 4.121 6.696v256.032c0 2.831-1.594 5.421-4.122 6.696-1.068.539-2.225.804-3.378.804zm-235.386-20.014h220.145c2.639 0 5.231.306 7.741.904v-232.812c-2.51.599-5.103.904-7.741.904h-220.145c-2.639 0-5.231-.306-7.741-.904v232.812c2.509-.598 5.102-.904 7.741-.904z" fill="#e207b9"/></g><g><path d="m289.795 75.265c-.313 0-.628-.02-.942-.059-3.536-.44-6.855-.654-10.147-.654h-45.41c-3.292 0-6.611.214-10.147.654-2.135.266-4.285-.383-5.901-1.781-1.615-1.397-2.541-3.411-2.541-5.525v-40.38c-.002-15.175 12.569-27.52 28.022-27.52h26.543c15.452 0 28.023 12.345 28.023 27.521v40.379c0 2.114-.926 4.127-2.541 5.525-1.378 1.192-3.144 1.84-4.959 1.84zm-7.5-13.375v-33.804c0-7.365-5.843-13.355-13.023-13.355h-26.543c-7.181 0-13.023 5.991-13.023 13.355v33.804z" fill="#2115c2"/></g><g><path d="m366.072 163.284h-220.144c-4.143 0-7.5-3.358-7.5-7.5 0-52.31 42.558-94.868 94.867-94.868h45.41c52.31 0 94.867 42.558 94.867 94.868 0 4.142-3.357 7.5-7.5 7.5zm-212.295-15h204.445c-3.793-40.535-38.008-72.368-79.518-72.368h-45.41c-41.509.001-75.724 31.833-79.517 72.368z" fill="#e207b9"/></g><circle cx="256" cy="38.321" fill="#2115c2" r="8.699"/><circle cx="300.55" cy="110.819" fill="#e207b9" r="9.452"/><g><path d="m276.015 134.923h-40.029c-4.143 0-7.5-3.358-7.5-7.5s3.357-7.5 7.5-7.5h40.029c4.143 0 7.5 3.358 7.5 7.5s-3.358 7.5-7.5 7.5z" fill="#e207b9"/></g><circle cx="211.45" cy="110.819" fill="#e207b9" r="9.452"/><g><path d="m366.072 214.641h-220.144c-18.294 0-33.178-14.884-33.178-33.178s14.884-33.178 33.178-33.178h220.145c18.294 0 33.178 14.884 33.178 33.178s-14.885 33.178-33.179 33.178zm-220.144-51.357c-10.023 0-18.178 8.155-18.178 18.178s8.154 18.178 18.178 18.178h220.145c10.023 0 18.178-8.155 18.178-18.178s-8.154-18.178-18.178-18.178z" fill="#2115c2"/></g><g><path d="m366.072 512h-220.144c-18.294 0-33.178-14.884-33.178-33.178s14.884-33.178 33.178-33.178h220.145c18.294 0 33.178 14.884 33.178 33.178s-14.885 33.178-33.179 33.178zm-220.144-51.356c-10.023 0-18.178 8.155-18.178 18.178s8.154 18.178 18.178 18.178h220.145c10.023 0 18.178-8.155 18.178-18.178s-8.154-18.178-18.178-18.178z" fill="#2115c2"/></g><path d="m324.016 311.755-98.056 108.182 15.017-71.407h-52.993l98.057-108.183-15.018 71.408z" fill="#ffff6f"/><g><path d="m225.957 427.438c-1.156 0-2.323-.268-3.406-.82-3.017-1.54-4.627-4.91-3.931-8.224l13.116-62.364h-43.752c-2.967 0-5.654-1.749-6.856-4.461s-.692-5.878 1.3-8.076l98.057-108.182c2.273-2.509 5.945-3.184 8.966-1.644 3.017 1.54 4.627 4.91 3.931 8.224l-13.116 62.364h43.751c2.967 0 5.654 1.749 6.856 4.461s.693 5.878-1.3 8.076l-98.056 108.182c-1.458 1.609-3.493 2.464-5.56 2.464zm-21.052-86.408h36.072c2.26 0 4.399 1.019 5.823 2.774 1.425 1.755 1.981 4.058 1.517 6.27l-9.319 44.312 68.098-75.13h-36.072c-2.26 0-4.399-1.019-5.823-2.774-1.425-1.755-1.981-4.058-1.517-6.27l9.319-44.312z" fill="#f90"/></g></g></svg>