<svg id="Capa_1" enable-background="new 0 0 512 512" height="512" viewBox="0 0 512 512" width="512" xmlns="http://www.w3.org/2000/svg"><g><g><path d="m325.892 360.79v82.7c0 14.507-11.76 26.267-26.267 26.267h-43.846c-14.507 0-26.267-11.76-26.267-26.267s11.76-26.267 26.267-26.267h17.579v-56.433z" fill="#f90"/></g><g><path d="m203.641 360.79v82.7c0 14.507-11.76 26.267-26.267 26.267h-43.846c-14.507 0-26.267-11.76-26.267-26.267s11.76-26.267 26.267-26.267h17.579v-56.433z" fill="#f90"/></g><g><g><path d="m299.624 477.258h-43.846c-18.619 0-33.768-15.148-33.768-33.768 0-18.619 15.148-33.767 33.768-33.767h10.078v-48.933c0-4.142 3.357-7.5 7.5-7.5h52.535c4.143 0 7.5 3.358 7.5 7.5v82.7c.001 18.62-15.148 33.768-33.767 33.768zm-43.846-52.534c-10.349 0-18.768 8.419-18.768 18.767 0 10.349 8.419 18.768 18.768 18.768h43.846c10.349 0 18.768-8.419 18.768-18.768v-75.2h-37.535v48.933c0 4.142-3.357 7.5-7.5 7.5z" fill="#f95116"/></g></g><g><g><path d="m177.373 477.258h-43.846c-18.619 0-33.768-15.148-33.768-33.768 0-18.619 15.148-33.767 33.768-33.767h10.078v-48.933c0-4.142 3.357-7.5 7.5-7.5h52.535c4.143 0 7.5 3.358 7.5 7.5v82.7c.001 18.62-15.148 33.768-33.767 33.768zm-43.846-52.534c-10.349 0-18.768 8.419-18.768 18.767 0 10.349 8.419 18.768 18.768 18.768h43.846c10.349 0 18.768-8.419 18.768-18.768v-75.2h-37.535v48.933c0 4.142-3.357 7.5-7.5 7.5z" fill="#f95116"/></g></g><path d="m151.106 360.79h52.535v35.101h-52.535z" fill="#f95116"/><path d="m273.357 360.79h52.535v35.101h-52.535z" fill="#f95116"/><path d="m447.083 42.242h-58.086c31.711 0 57.417 25.707 57.417 57.417v203.714c0 31.711-25.707 57.417-57.417 57.417h58.086c31.711 0 57.417-25.707 57.417-57.417v-203.714c0-31.711-25.707-57.417-57.417-57.417z" fill="#b98eff"/><path d="m388.997 360.79c31.711 0 57.417-25.707 57.417-57.417v-203.714c0-31.711-25.707-57.417-57.417-57.417h-324.08c-31.71 0-57.417 25.706-57.417 57.417v203.714c0 31.711 25.707 57.417 57.417 57.417z" fill="#ddbeff"/><path d="m447.083 34.742c-17.751 0-361.679 0-382.166 0-35.795 0-64.917 29.122-64.917 64.917v203.714c0 35.795 29.122 64.917 64.917 64.917h382.166c35.795 0 64.917-29.122 64.917-64.917v-203.714c0-35.795-29.122-64.917-64.917-64.917zm-432.083 268.631v-203.714c0-27.524 22.393-49.917 49.917-49.917h324.08c27.524 0 49.917 22.393 49.917 49.917v203.714c0 27.524-22.393 49.917-49.917 49.917h-324.08c-27.524.001-49.917-22.393-49.917-49.917zm482 0c0 27.524-22.393 49.917-49.917 49.917h-16.627c14.545-12.102 23.458-30.309 23.458-49.917v-203.714c0-19.53-8.801-37.718-23.458-49.917h16.627c27.524 0 49.917 22.393 49.917 49.917z" fill="#6d00ca"/><path d="m368.535 102.056h-283.156c-9.977 0-18.065 8.088-18.065 18.065v86.663c0 9.977 8.088 18.065 18.065 18.065h283.156c9.977 0 18.065-8.088 18.065-18.065v-86.663c0-9.978-8.088-18.065-18.065-18.065z" fill="#88f8d8"/><g><path d="m368.535 232.35h-283.156c-14.097 0-25.565-11.469-25.565-25.565v-86.664c0-14.097 11.469-25.565 25.565-25.565h283.156c14.097 0 25.565 11.468 25.565 25.565v86.664c.001 14.096-11.468 25.565-25.565 25.565zm-283.156-122.794c-5.826 0-10.565 4.739-10.565 10.565v86.664c0 5.826 4.739 10.565 10.565 10.565h283.156c5.826 0 10.565-4.74 10.565-10.565v-86.664c0-5.826-4.739-10.565-10.565-10.565z" fill="#007ea8"/></g><circle cx="283.405" cy="158.921" fill="#007ea8" r="11.977"/><g><path d="m252.317 187.46h-50.721c-4.143 0-7.5-3.358-7.5-7.5s3.357-7.5 7.5-7.5h50.721c4.143 0 7.5 3.358 7.5 7.5s-3.357 7.5-7.5 7.5z" fill="#007ea8"/></g><circle cx="170.51" cy="158.921" fill="#007ea8" r="11.977"/><circle cx="325.095" cy="292.82" fill="#f90" r="35.399"/><g><path d="m325.095 335.719c-23.654 0-42.898-19.245-42.898-42.899s19.244-42.899 42.898-42.899c23.655 0 42.899 19.245 42.899 42.899 0 23.655-19.244 42.899-42.899 42.899zm0-70.798c-15.383 0-27.898 12.516-27.898 27.899 0 15.384 12.516 27.899 27.898 27.899 15.384 0 27.899-12.516 27.899-27.899s-12.515-27.899-27.899-27.899z" fill="#f95116"/></g><path d="m237.924 281.828-31.03-15.515c-8.171-4.085-17.785 1.856-17.785 10.992v31.03c0 9.135 9.614 15.077 17.785 10.992l31.03-15.515c9.057-4.529 9.057-17.455 0-21.984z" fill="#88f8d8"/><path d="m100.213 281.828 31.03-15.515c8.171-4.085 17.785 1.856 17.785 10.992v31.03c0 9.135-9.614 15.077-17.785 10.992l-31.03-15.515c-9.057-4.529-9.057-17.455 0-21.984z" fill="#88f8d8"/><g><path d="m201.386 328.142c-3.604 0-7.192-.997-10.391-2.974-5.877-3.632-9.386-9.925-9.386-16.833v-31.03c0-6.909 3.509-13.201 9.385-16.833 5.878-3.631 13.073-3.956 19.254-.866l31.03 15.515h-.001c6.748 3.374 10.939 10.155 10.939 17.699s-4.191 14.327-10.938 17.7l-31.03 15.515c-2.816 1.408-5.845 2.107-8.862 2.107zm.023-55.64c-1.173 0-2.088.457-2.529.729-.683.422-2.271 1.664-2.271 4.074v31.03c0 2.41 1.588 3.652 2.271 4.074.682.422 2.505 1.287 4.658.21l31.03-15.515c2.39-1.195 2.647-3.394 2.647-4.284s-.258-3.088-2.646-4.283h-.001l-31.03-15.515c-.763-.382-1.485-.52-2.129-.52z" fill="#007ea8"/></g><g><path d="m136.751 328.142c-3.019 0-6.045-.699-8.862-2.107l-31.03-15.515c-6.747-3.374-10.938-10.156-10.938-17.7.001-7.543 4.192-14.326 10.938-17.699l31.03-15.515c6.181-3.09 13.378-2.766 19.255.866 5.876 3.632 9.385 9.925 9.385 16.833v31.03c0 6.909-3.509 13.201-9.386 16.833-3.199 1.977-6.789 2.974-10.392 2.974zm-.023-55.64c-.644 0-1.366.138-2.13.52l-31.03 15.515c-2.389 1.194-2.646 3.393-2.647 4.283 0 .89.259 3.089 2.647 4.284l31.03 15.515c2.154 1.077 3.977.212 4.659-.21s2.271-1.664 2.271-4.074v-31.03c0-2.41-1.588-3.651-2.271-4.073-.441-.273-1.356-.73-2.529-.73z" fill="#007ea8"/></g></g></svg>