<svg id="Capa_1" enable-background="new 0 0 512 512" height="512" viewBox="0 0 512 512" width="512" xmlns="http://www.w3.org/2000/svg"><g><path d="m443.369 126.624h-176.681c-7.583 49.622-50.446 87.634-102.188 87.634-51.619 0-94.399-37.834-102.13-87.284-28.451 3.119-50.591 27.22-50.591 56.503v199.559c0 31.399 25.454 56.853 56.853 56.853h374.737c31.399 0 56.853-25.454 56.853-56.853v-199.558c0-31.4-25.454-56.854-56.853-56.854z" fill="#a4bcff"/><circle cx="164.499" cy="110.879" fill="#ff9bff" r="103.379"/><path d="m196.788 294.095v3.848c0 17.832-14.456 32.288-32.288 32.288-17.832 0-32.288-14.456-32.288-32.288v-3.848c-23.275 6.682-39.237 20.349-39.237 36.136 0 22.368 32.023 40.501 71.526 40.501s71.526-18.133 71.526-40.501c-.002-15.787-15.964-29.454-39.239-36.136z" fill="#565eec"/><path d="m164.499 214.259c-11.277 0-22.128-1.812-32.288-5.15v88.834c0 17.832 14.456 32.288 32.288 32.288 17.832 0 32.288-14.456 32.288-32.288v-88.834c-10.159 3.338-21.011 5.15-32.288 5.15z" fill="#565eec"/><ellipse cx="354.683" cy="271.4" fill="#ffff6f" rx="78.709" ry="50.68"/><circle cx="218.337" cy="100.096" fill="#e207b9" r="11.423"/><g><path d="m188.688 127.663h-48.376c-4.142 0-7.5-3.358-7.5-7.5s3.358-7.5 7.5-7.5h48.376c4.142 0 7.5 3.358 7.5 7.5s-3.358 7.5-7.5 7.5z" fill="#e207b9"/></g><circle cx="110.662" cy="100.096" fill="#e207b9" r="11.423"/><path d="m443.369 439.889c-16.67 0-358.126 0-374.737 0-31.399 0-56.853-25.454-56.853-56.853v64.611c0 31.399 25.454 56.853 56.853 56.853h374.737c31.399 0 56.853-25.454 56.853-56.853v-64.611c0 31.399-25.454 56.853-56.853 56.853z" fill="#7181ff"/><g fill="#2115c2"><path d="m443.369 119.124h-176.681c-3.705 0-3.661 2.541-4.22 6.203-3.423 22.404-17.614 49.145-34.846 64.071-17.404 15.075-40.065 22.16-63.122 22.16-22.999 0-51.01-9.881-68.393-24.89-17.208-14.857-27.983-37.714-31.474-60.044-.619-3.96.906-7.537-3.08-7.105-32.652 3.579-57.274 31.075-57.274 63.958v199.559 64.61c-.001 35.485 28.868 64.354 64.352 64.354h374.737c35.484 0 64.353-28.869 64.353-64.354v-64.61-199.558c.001-35.485-28.868-64.354-64.352-64.354zm-424.091 64.354c0-22.885 15.544-42.366 37.127-47.826 5.237 22.893 20.802 40.925 38.75 56.422 20.107 17.36 42.746 24.018 69.343 24.018 26.664 0 46.304-7.807 66.434-25.244 18.28-15.834 36.991-33.291 42.001-56.725h170.434c27.213 0 49.353 22.14 49.353 49.354v199.559c0 27.213-22.14 49.354-49.353 49.354h-374.736c-27.213 0-49.353-22.14-49.353-49.354zm473.444 240.814v23.354c0 27.213-22.14 49.354-49.353 49.354h-374.738c-27.213 0-49.353-22.14-49.353-49.354v-23.354c12.234 14.608 30.352 23.098 49.353 23.098h374.737c19.008 0 37.107-8.475 49.354-23.098z"/><path d="m164.499 214.259c-11.277 0-22.128-1.812-32.288-5.15v39.106c10.373 2.438 21.182 3.733 32.288 3.733s21.915-1.295 32.288-3.733v-39.106c-10.159 3.338-21.011 5.15-32.288 5.15z"/><path d="m204.288 288.608v-79.499c0-5.098-4.989-3.978-9.841-2.387-9.644 3.168-19.719 4.775-29.947 4.775s-20.304-1.606-29.947-4.775c-4.846-1.589-9.841-2.717-9.841 2.387v79.499c-24.35 8.443-39.237 24.067-39.237 41.623 0 26.916 34.712 48 79.025 48s79.026-21.084 79.026-48c-.001-17.556-14.888-33.18-39.238-41.623zm-64.577-69.638c16.199 3.705 33.377 3.705 49.576 0v78.973c0 13.668-11.12 24.788-24.788 24.788s-24.788-11.12-24.788-24.788c0-23.254 0-53.168 0-78.973zm71.669 133.373c-12.401 7.021-29.05 10.889-46.881 10.889s-34.48-3.867-46.881-10.889c-11.056-6.26-17.145-14.113-17.145-22.112 0-9.859 9.461-19.489 24.767-25.796 3.123 18.969 19.666 33.296 39.259 33.296 19.493 0 36.113-14.201 39.259-33.296 15.306 6.308 24.767 15.938 24.767 25.796 0 7.998-6.088 15.852-17.145 22.112z"/></g><path d="m354.683 322.08c-43.47 0-78.709-22.69-78.709-50.68v48.651c0 27.99 35.239 50.68 78.709 50.68s78.709-22.69 78.709-50.68v-48.651c0 27.99-35.239 50.68-78.709 50.68z" fill="#ffd600"/><path d="m440.892 271.399c-.001-16.175-9.409-31.141-26.493-42.141-16.062-10.342-37.269-16.038-59.715-16.038s-43.654 5.696-59.716 16.038c-17.084 11-26.492 25.966-26.493 42.141v.001 48.651c0 16.175 9.409 31.142 26.493 42.142 16.062 10.342 37.27 16.038 59.716 16.038s43.653-5.696 59.715-16.038c17.084-11 26.493-25.967 26.493-42.142v-48.651c0-.001 0-.001 0-.001zm-86.208-43.179c38.599 0 71.208 19.774 71.208 43.18 0 25.33-35.688 43.18-71.208 43.18-35.529 0-71.209-18.061-71.209-43.18 0-23.406 32.61-43.18 71.209-43.18zm71.208 76.229v15.603c0 23.406-32.609 43.18-71.208 43.18s-71.209-19.774-71.209-43.18v-15.603c3.364 3.305 7.562 6.563 11.493 9.094 16.062 10.342 37.27 16.038 59.716 16.038s43.653-5.696 59.715-16.038c3.93-2.531 8.128-5.789 11.493-9.094z" fill="#f90"/><g><path d="m164.5 221.759c-61.139 0-110.879-49.74-110.879-110.879s49.739-110.88 110.879-110.88 110.879 49.74 110.879 110.879-49.74 110.88-110.879 110.88zm0-206.759c-52.868 0-95.879 43.011-95.879 95.879s43.011 95.879 95.879 95.879 95.879-43.011 95.879-95.879-43.011-95.879-95.879-95.879z" fill="#e207b9"/></g></g></svg>