<svg id="Capa_1" enable-background="new 0 0 512 512" height="512" viewBox="0 0 512 512" width="512" xmlns="http://www.w3.org/2000/svg"><g><g><path d="m359.032 389.533v86.851c0 15-12.16 27.16-27.16 27.16h-45.337c-15 0-27.16-12.16-27.16-27.16s12.16-27.16 27.16-27.16h18.176v-59.691z" fill="#9448f5"/></g><g><path d="m232.626 389.533v86.851c0 15-12.16 27.16-27.16 27.16h-45.337c-15 0-27.16-12.16-27.16-27.16s12.16-27.16 27.16-27.16h18.176v-59.691z" fill="#9448f5"/></g><path d="m178.305 389.533h54.32v36.294h-54.32z" fill="#6d00ca"/><path d="m304.711 389.533h54.32v36.294h-54.32z" fill="#6d00ca"/><path d="m504.19 127.443c0 .16-.01 11.83-.03 26.46v.17l-.16-.17-.16-.17-148.94-.01h-.36l.03-26.14c-.99-48.4-196.47-48.99-197.43-.51-.03.41-.05 12.26-.05 26.98l-.4-.34-149.13-.01c.03-14.84.07-26.81.1-27.34 6.77-157.61 495.11-157.16 496.53 1.08z" fill="#ffff6f"/><path d="m479.18 328.653-12.88 22.74c-13.35 23.57-38.34 38.14-65.42 38.14h-289.76c-27.08 0-52.07-14.57-65.42-38.14l-12.88-22.74c-11.68-20.63-12.95-45.56-3.42-67.26l21.61-49.24h75.24c17.03.01 30.83-13.79 30.83-30.83-.01-8.93 0-18.6.01-27.27 0-14.72.02-26.57.05-26.98.96-48.48 196.44-47.89 197.43.51l-.03 26.14h.34l-.07 27.59c-.04 17.05 13.76 30.9 30.8 30.92l75.45.09 21.54 49.07c9.53 21.7 8.26 46.63-3.42 67.26z" fill="#ffff6f"/><circle cx="256" cy="264.913" fill="#f90" r="85.953"/><g fill="#f95116"><circle cx="256" cy="214.913" r="13.315"/><circle cx="291.355" cy="229.558" r="13.315"/><circle cx="306" cy="264.913" r="13.315"/><circle cx="291.355" cy="300.269" r="13.315"/><circle cx="256" cy="314.913" r="13.315"/><circle cx="220.645" cy="300.269" r="13.315"/><circle cx="206" cy="264.913" r="13.315"/><circle cx="220.645" cy="229.558" r="13.315"/></g><circle cx="307.905" cy="129.554" fill="#f90" r="11.013"/><circle cx="204.096" cy="129.554" fill="#f90" r="11.013"/><path d="m157.08 181.323c0 17.04-13.8 30.84-30.83 30.83h-87.92c-17.05 0-30.86-13.83-30.83-30.88.01-9.01.03-18.79.06-27.57l149.13.01.4.34c-.01 8.67-.02 18.34-.01 27.27z" fill="#f90"/><g><g><path d="m331.871 511.045h-45.336c-19.111 0-34.66-15.548-34.66-34.66s15.549-34.66 34.66-34.66h10.676v-52.191c0-4.142 3.357-7.5 7.5-7.5h54.32c4.143 0 7.5 3.358 7.5 7.5v86.851c0 19.112-15.549 34.66-34.66 34.66zm-45.336-54.32c-10.841 0-19.66 8.819-19.66 19.66s8.819 19.66 19.66 19.66h45.336c10.841 0 19.66-8.819 19.66-19.66v-79.351h-39.32v52.191c0 4.142-3.357 7.5-7.5 7.5z" fill="#6d00ca"/></g></g><g><g><path d="m205.465 511.045h-45.336c-19.111 0-34.66-15.548-34.66-34.66s15.549-34.66 34.66-34.66h10.676v-52.191c0-4.142 3.357-4.4 7.5-4.4h54.321c4.143 0 7.5.258 7.5 4.4v86.851c0 19.112-15.549 34.66-34.661 34.66zm-45.336-54.32c-10.841 0-19.66 8.819-19.66 19.66s8.819 19.66 19.66 19.66h45.336c10.841 0 19.661-8.819 19.661-19.66v-79.351h-39.321v52.191c0 4.142-3.357 7.5-7.5 7.5z" fill="#6d00ca"/></g></g><g><path d="m400.88 397.034h-289.76c-29.725 0-57.292-16.072-71.946-41.944l-12.88-22.74c-12.782-22.576-14.188-50.229-3.761-73.972l21.608-49.239c1.196-2.726 3.892-4.486 6.868-4.486h75.24.015c6.23 0 12.082-2.423 16.483-6.824 4.405-4.406 6.832-10.268 6.832-16.506-.01-8.927 0-18.603.01-27.278 0-21.469.031-26.014.055-27.121h-.003c.202-10.212 6.598-24.408 35.92-34.041 18.398-6.044 43.025-9.378 69.345-9.387h.104c26.611 0 51.611 3.382 70.407 9.526 29.911 9.777 36.441 24.107 36.651 34.407l.311 26.205c.001.036.001.072.001.108l-.07 27.59c-.015 6.241 2.405 12.114 6.812 16.537 4.404 4.419 10.264 6.857 16.498 6.864l75.449.09c2.974.003 5.664 1.763 6.858 4.485l21.54 49.07c10.428 23.742 9.021 51.395-3.761 73.97v.001l-12.88 22.74c-14.654 25.873-42.221 41.945-71.946 41.945zm-344.971-177.381-19.641 44.754c-8.536 19.436-7.385 42.07 3.078 60.55l12.88 22.739c11.995 21.18 34.562 34.336 58.894 34.336h289.76c24.331 0 46.898-13.157 58.894-34.336l12.88-22.739c10.463-18.48 11.614-41.115 3.079-60.549l-19.574-44.592-70.557-.084c-10.245-.012-19.871-4.017-27.105-11.276-7.237-7.263-11.21-16.909-11.187-27.161l.07-27.535-.309-26.089c-.329-16.064-41.623-29.175-92.064-29.175-.034 0-.063 0-.096 0-50.302.017-89.954 12.634-90.273 28.725-.001.05-.002.1-.004.149-.021 1.081-.044 10.71-.044 26.683-.01 8.673-.02 18.337-.01 27.261 0 10.253-3.986 19.882-11.226 27.121-7.234 7.234-16.853 11.218-27.085 11.218-.009 0-.016 0-.024 0zm423.271 109h.01z" fill="#f90"/></g><g><path d="m256 358.367c-51.53 0-93.453-41.923-93.453-93.453s41.923-93.454 93.453-93.454 93.453 41.923 93.453 93.453-41.923 93.454-93.453 93.454zm0-171.907c-43.259 0-78.453 35.194-78.453 78.453s35.194 78.453 78.453 78.453 78.453-35.194 78.453-78.453-35.194-78.453-78.453-78.453z" fill="#f95116"/></g><g><path d="m279.319 156.4h-46.639c-4.143 0-7.5-3.358-7.5-7.5s3.357-7.5 7.5-7.5h46.639c4.143 0 7.5 3.358 7.5 7.5s-3.357 7.5-7.5 7.5z" fill="#f90"/></g><g><path d="m504.162 161.574c-.76 0-1.513-.116-2.234-.34l-147.027-.01c-4.105 0-7.447-3.301-7.499-7.405l-.33-26.14c-.329-16.07-41.623-29.181-92.064-29.181-.034 0-.063 0-.096 0-50.302.017-89.954 12.634-90.273 28.725-.001.05-.002.099-.004.148-.021 1.075-.044 10.706-.044 26.684 0 2.925-1.7 5.583-4.356 6.809-1.72.793-3.637.893-5.378.351l-147.297-.011c-1.992 0-3.902-.792-5.309-2.202s-2.195-3.321-2.191-5.313c.05-24.319.089-27.128.107-27.647 1.742-40.564 32.282-73.97 88.318-96.607 48.137-19.446 111.518-29.537 178.444-28.392 63.765 1.083 122.857 12.416 166.393 31.912 50.92 22.803 78.02 55.454 78.369 94.421v.067c0 .16-.011 11.834-.03 26.47v.16c0 3.074-1.876 5.836-4.732 6.971-.9.356-1.838.53-2.767.53zm-141.855-15.35 134.363.009c.013-10.524.021-18.197.021-18.76-.707-73.888-119.719-109.559-230.016-111.433-64.027-1.084-126.928 8.864-172.57 27.302-34.986 14.133-77.078 40.058-78.951 83.317-.018.808-.048 7.202-.078 19.545l134.516.009c.007-14.806.033-18.332.053-19.288h-.004c.203-10.212 6.599-24.408 35.921-34.041 18.398-6.044 43.025-9.378 69.345-9.387h.103c26.612 0 51.612 3.382 70.408 9.526 29.911 9.777 36.441 24.107 36.651 34.407z" fill="#f90"/></g><path d="m504.5 154.243c-.02 8.68-.04 18.38-.06 27.33-.04 17.01-13.85 30.77-30.86 30.76l-12.52-.01-75.45-.09c-17.04-.02-30.84-13.87-30.8-30.92l.07-27.59h.02l148.6.18h.68z" fill="#f90"/><g><path d="m473.598 219.833c-.007 0-.015 0-.021 0l-87.975-.1c-21.199-.025-38.34-17.221-38.292-38.437l.07-27.592c.011-4.135 3.365-7.481 7.5-7.481l149.3.18c2.068 0 4.044.854 5.462 2.36l.32.34c1.313 1.396 2.042 3.241 2.038 5.157l-.06 27.329c-.049 21.093-17.248 38.244-38.342 38.244zm-111.238-58.601-.051 20.1c-.03 12.901 10.395 23.386 23.31 23.401l87.967.1h.014c12.841 0 23.311-10.439 23.341-23.278l.044-20.16z" fill="#f95116"/></g><g><path d="m126.27 219.653c-.009 0-.016 0-.024 0h-87.916c-21.208 0-38.368-17.174-38.33-38.393.01-9.01.03-18.796.06-27.582.014-4.132 3.368-7.475 7.5-7.475h.001l149.13.01c1.783 0 3.508.635 4.864 1.792l.399.34c1.675 1.427 2.639 3.517 2.636 5.717-.01 8.665-.02 18.329-.01 27.253v.008c0 21.17-17.111 38.33-38.31 38.33zm-111.233-58.449c-.018 6.649-.03 13.564-.037 20.078-.022 12.911 10.41 23.372 23.33 23.372h87.92.015c12.887 0 23.311-10.419 23.315-23.324-.007-6.537-.004-13.469.002-20.116z" fill="#f95116"/></g></g></svg>