<svg id="Capa_1" enable-background="new 0 0 512 512" height="512" viewBox="0 0 512 512" width="512" xmlns="http://www.w3.org/2000/svg"><g><path d="m318.791 7.5h-187.898c-28.885 0-52.302 23.416-52.302 52.302v286.559c0 28.885 23.416 52.302 52.302 52.302h187.898c28.885 0 52.302-23.416 52.302-52.302v-286.559c0-28.886-23.416-52.302-52.302-52.302z" fill="#88f8d8"/><path d="m148.699 41.252h152.286v188.642h-152.286z" fill="#ddbeff" transform="matrix(0 1 -1 0 360.415 -89.269)"/><circle cx="272.667" cy="121.472" fill="#6d00ca" r="10.147"/><g><path d="m246.329 156.321h-42.973c-4.142 0-7.5-3.358-7.5-7.5s3.358-7.5 7.5-7.5h42.973c4.142 0 7.5 3.358 7.5 7.5s-3.358 7.5-7.5 7.5z" fill="#6d00ca"/></g><circle cx="177.017" cy="121.472" fill="#6d00ca" r="10.147"/><g><path d="m319.164 219.216h-188.643c-4.142 0-7.5-3.358-7.5-7.5v-152.286c0-4.142 3.358-7.5 7.5-7.5h188.643c4.142 0 7.5 3.358 7.5 7.5v152.286c0 4.142-3.358 7.5-7.5 7.5zm-181.143-15h173.643v-137.286h-173.643z" fill="#6d00ca"/></g><g><path d="m314.554 398.663v82.469c0 12.906-10.462 23.368-23.368 23.368h-39.007c-12.906 0-23.368-10.462-23.368-23.368s10.462-23.368 23.368-23.368h15.639v-59.101z" fill="#f90"/></g><g><path d="m205.796 398.663v82.469c0 12.906-10.462 23.368-23.368 23.368h-39.007c-12.906 0-23.368-10.462-23.368-23.368s10.462-23.368 23.368-23.368h15.639v-59.101z" fill="#f90"/></g><g><g><path d="m291.186 512h-39.007c-17.021 0-30.868-13.848-30.868-30.868 0-17.021 13.848-30.869 30.868-30.869h8.139v-51.601c0-4.142 3.358-7.5 7.5-7.5h46.737c4.142 0 7.5 3.358 7.5 7.5v82.469c-.001 17.021-13.848 30.869-30.869 30.869zm-39.007-46.737c-8.75 0-15.868 7.119-15.868 15.869s7.119 15.868 15.868 15.868h39.007c8.75 0 15.868-7.119 15.868-15.868v-74.969h-31.737v51.601c0 4.142-3.358 7.5-7.5 7.5h-15.638z" fill="#f95116"/></g></g><g><g><path d="m182.428 512h-39.007c-17.021 0-30.869-13.848-30.869-30.868 0-17.021 13.848-30.869 30.869-30.869h8.139v-51.601c0-4.142 3.358-7.5 7.5-7.5h46.736c4.142 0 7.5 3.358 7.5 7.5v82.469c0 17.021-13.848 30.869-30.868 30.869zm-39.007-46.737c-8.75 0-15.869 7.119-15.869 15.869s7.119 15.868 15.869 15.868h39.007c8.75 0 15.868-7.119 15.868-15.868v-74.969h-31.736v51.601c0 4.142-3.358 7.5-7.5 7.5h-15.639z" fill="#f95116"/></g></g><path d="m159.059 398.663h46.737v31.227h-46.737z" fill="#f95116"/><path d="m267.818 398.663h46.737v31.227h-46.737z" fill="#f95116"/><path d="m381.107 7.5h-62.316c28.885 0 52.302 23.416 52.302 52.302v286.559c0 28.885-23.416 52.302-52.302 52.302h62.316c28.885 0 52.302-23.416 52.302-52.302v-286.559c0-28.886-23.417-52.302-52.302-52.302z" fill="#17d9c3"/><path d="m381.107 0c-4.246 0-245.993 0-250.214 0-32.975 0-59.802 26.827-59.802 59.802v286.559c0 32.975 26.827 59.802 59.802 59.802h250.214c32.975 0 59.802-26.827 59.802-59.802v-286.559c0-32.975-26.827-59.802-59.802-59.802zm-295.016 346.361v-286.559c0-24.704 20.098-44.802 44.802-44.802h187.898c24.704 0 44.801 20.098 44.801 44.802v286.559c0 24.704-20.098 44.802-44.801 44.802h-187.898c-24.704 0-44.802-20.099-44.802-44.802zm339.818 0c0 24.704-20.098 44.802-44.802 44.802h-22.745c12.789-11.305 20.231-27.65 20.231-44.802v-286.559c0-17.37-7.572-33.613-20.231-44.802h22.745c24.704 0 44.802 20.098 44.802 44.802z" fill="#007ea8"/><g fill="#ddbeff"><path d="m204.453 283.531h-21.387v-21.387h-31.158v21.387h-21.387v31.158h21.387v21.387h31.158v-21.387h21.387z"/><circle cx="251.68" cy="318.128" r="17.949"/><circle cx="301.215" cy="280.018" r="17.949"/></g><g><path d="m183.066 343.576h-31.158c-4.142 0-7.5-3.358-7.5-7.5v-13.887h-13.887c-4.142 0-7.5-3.358-7.5-7.5v-31.158c0-4.142 3.358-7.5 7.5-7.5h13.887v-13.887c0-4.142 3.358-7.5 7.5-7.5h31.158c4.142 0 7.5 3.358 7.5 7.5v13.887h13.887c4.142 0 7.5 3.358 7.5 7.5v31.158c0 4.142-3.358 7.5-7.5 7.5h-13.887v13.887c0 4.142-3.358 7.5-7.5 7.5zm-23.658-15h16.158v-13.887c0-4.142 3.358-7.5 7.5-7.5h13.887v-16.158h-13.887c-4.142 0-7.5-3.358-7.5-7.5v-13.887h-16.158v13.887c0 4.142-3.358 7.5-7.5 7.5h-13.887v16.158h13.887c4.142 0 7.5 3.358 7.5 7.5z" fill="#6d00ca"/></g><g><path d="m251.68 343.576c-14.033 0-25.449-11.416-25.449-25.449s11.416-25.449 25.449-25.449 25.449 11.416 25.449 25.449-11.416 25.449-25.449 25.449zm0-35.897c-5.761 0-10.449 4.688-10.449 10.449s4.688 10.449 10.449 10.449 10.449-4.688 10.449-10.449-4.688-10.449-10.449-10.449z" fill="#6d00ca"/></g><g><path d="m301.215 305.466c-14.033 0-25.449-11.416-25.449-25.449s11.416-25.449 25.449-25.449 25.449 11.416 25.449 25.449-11.416 25.449-25.449 25.449zm0-35.897c-5.761 0-10.449 4.688-10.449 10.449s4.688 10.449 10.449 10.449 10.449-4.688 10.449-10.449-4.688-10.449-10.449-10.449z" fill="#6d00ca"/></g></g></svg>