<svg id="Capa_1" enable-background="new 0 0 512 512" height="512" viewBox="0 0 512 512" width="512" xmlns="http://www.w3.org/2000/svg"><g><g><path d="m314.554 398.663v82.469c0 12.906-10.462 23.368-23.368 23.368h-39.007c-12.906 0-23.368-10.462-23.368-23.368s10.462-23.368 23.368-23.368h15.639v-59.101z" fill="#ff63ed"/></g><g><path d="m205.796 398.663v82.469c0 12.906-10.462 23.368-23.368 23.368h-39.007c-12.906 0-23.368-10.462-23.368-23.368s10.462-23.368 23.368-23.368h15.639v-59.101z" fill="#ff63ed"/></g><g><g><path d="m291.186 512h-39.007c-17.021 0-30.868-13.848-30.868-30.868 0-17.021 13.848-30.869 30.868-30.869h8.139v-51.601c0-4.142 3.357-7.5 7.5-7.5h46.737c4.143 0 7.5 3.358 7.5 7.5v82.469c0 17.021-13.848 30.869-30.869 30.869zm-39.007-46.737c-8.75 0-15.868 7.119-15.868 15.869s7.118 15.868 15.868 15.868h39.007c8.75 0 15.869-7.119 15.869-15.868v-74.969h-31.737v51.601c0 4.142-3.357 7.5-7.5 7.5h-15.639z" fill="#e207b9"/></g></g><g><g><path d="m182.428 512h-39.007c-17.021 0-30.868-13.848-30.868-30.868 0-17.021 13.848-30.869 30.868-30.869h8.139v-51.601c0-4.142 3.357-7.5 7.5-7.5h46.736c4.143 0 7.5 3.358 7.5 7.5v82.469c0 17.021-13.848 30.869-30.868 30.869zm-39.007-46.737c-8.75 0-15.868 7.119-15.868 15.869s7.118 15.868 15.868 15.868h39.007c8.75 0 15.868-7.119 15.868-15.868v-74.969h-31.736v51.601c0 4.142-3.357 7.5-7.5 7.5h-15.639z" fill="#e207b9"/></g></g><path d="m159.059 398.663h46.737v41.227h-46.737z" fill="#e207b9"/><path d="m267.818 398.663h46.737v41.227h-46.737z" fill="#e207b9"/><path d="m401.107 7.5h-62.316c28.885 0 52.302 23.416 52.302 52.302v286.559c0 28.885-23.416 52.302-52.302 52.302h62.316c28.885 0 52.302-23.416 52.302-52.302v-286.559c0-28.886-23.417-52.302-52.302-52.302z" fill="#ffd600"/><path d="m338.791 7.5h-227.898c-28.885 0-52.302 23.416-52.302 52.302v286.559c0 28.885 23.416 52.302 52.302 52.302h227.898c28.885 0 52.302-23.416 52.302-52.302v-286.559c0-28.886-23.416-52.302-52.302-52.302z" fill="#ffff6f"/><path d="m401.106 0c-7.644 0-282.155 0-290.213 0-32.974 0-59.801 26.827-59.801 59.802v286.559c0 32.975 26.827 59.802 59.802 59.802h290.213c32.975 0 59.802-26.827 59.802-59.802v-286.559c-.001-32.975-26.828-59.802-59.803-59.802zm-335.014 346.361v-286.559c0-24.704 20.097-44.802 44.802-44.802h227.897c24.704 0 44.802 20.098 44.802 44.802v286.559c0 24.704-20.098 44.802-44.802 44.802h-227.897c-24.705 0-44.802-20.099-44.802-44.802zm379.816 0c0 24.704-20.098 44.802-44.802 44.802h-22.745c12.869-11.394 20.231-27.674 20.231-44.802v-286.559c0-17.014-7.28-33.335-20.231-44.802h22.745c24.704 0 44.802 20.098 44.802 44.802z" fill="#f90"/><path d="m303.719 113.358h-157.754c-17.879 0-32.374 14.494-32.374 32.374v101.778c0 17.879 14.494 32.374 32.374 32.374h157.754c17.879 0 32.374-14.494 32.374-32.374v-101.778c0-17.88-14.494-32.374-32.374-32.374z" fill="#17d9c3"/><g fill="#b98eff"><path d="m333.23 363.9v34.76h-72.26v-77.32h29.7c23.51 0 42.56 19.05 42.56 42.56z"/><path d="m188.71 321.34h72.26v77.32h-72.26z"/><path d="m188.71 321.34v77.32h-72.26v-34.76c0-23.51 19.06-42.56 42.56-42.56z"/></g><path d="m290.67 313.84c-14.51 0-117.673 0-131.66 0-27.603 0-50.06 22.457-50.06 50.06v34.76c0 4.142 3.357 7.5 7.5 7.5h216.78c4.143 0 7.5-3.358 7.5-7.5v-34.76c0-27.603-22.457-50.06-50.06-50.06zm-166.72 50.06c0-19.332 15.728-35.06 35.06-35.06h22.2v62.32h-57.26zm72.26-35.06h57.26v62.32h-57.26zm129.52 62.32h-57.26v-62.32h22.2c19.332 0 35.061 15.728 35.061 35.06v27.26z" fill="#6d00ca"/><circle cx="172.601" cy="176.621" fill="#88f8d8" r="25.681"/><circle cx="277.079" cy="176.621" fill="#88f8d8" r="25.681"/><path d="m249.077 229.801h-48.47c-12.893 0-23.345 10.452-23.345 23.345v26.738h95.159v-26.738c.001-12.893-10.451-23.345-23.344-23.345z" fill="#88f8d8"/><g><path d="m172.601 209.802c-18.296 0-33.181-14.885-33.181-33.181s14.885-33.181 33.181-33.181 33.181 14.885 33.181 33.181c-.001 18.296-14.886 33.181-33.181 33.181zm0-51.362c-10.024 0-18.181 8.156-18.181 18.181s8.156 18.181 18.181 18.181 18.181-8.156 18.181-18.181-8.157-18.181-18.181-18.181z" fill="#007ea8"/></g><g><path d="m277.079 209.802c-18.296 0-33.181-14.885-33.181-33.181s14.885-33.181 33.181-33.181 33.181 14.885 33.181 33.181-14.885 33.181-33.181 33.181zm0-51.362c-10.024 0-18.181 8.156-18.181 18.181s8.156 18.181 18.181 18.181 18.181-8.156 18.181-18.181-8.156-18.181-18.181-18.181z" fill="#007ea8"/></g><circle cx="276.745" cy="54.464" fill="#f90" r="11.013"/><g><path d="m248.159 81.31h-46.639c-4.143 0-7.5-3.358-7.5-7.5s3.357-7.5 7.5-7.5h46.639c4.143 0 7.5 3.358 7.5 7.5s-3.357 7.5-7.5 7.5z" fill="#f90"/></g><circle cx="172.935" cy="54.464" fill="#f90" r="11.013"/><path d="m303.719 105.858h-157.754c-21.986 0-39.873 17.887-39.873 39.874v101.778c0 21.987 17.887 39.874 39.873 39.874h157.754c21.986 0 39.874-17.887 39.874-39.874v-101.779c0-21.986-17.888-39.873-39.874-39.873zm-118.956 166.526v-19.238c0-8.737 7.108-15.845 15.845-15.845h48.47c8.736 0 15.845 7.108 15.845 15.845v19.238zm143.83-24.874c0 13.716-11.158 24.874-24.874 24.874h-23.797v-19.238c0-17.008-13.837-30.845-30.845-30.845h-48.47c-17.008 0-30.845 13.837-30.845 30.845v19.238h-23.798c-13.715 0-24.873-11.158-24.873-24.874v-101.779c0-13.715 11.158-24.874 24.873-24.874h157.754c13.716 0 24.874 11.158 24.874 24.874v101.779z" fill="#007ea8"/></g></svg>