<svg id="Capa_1" enable-background="new 0 0 511.988 511.988" height="512" viewBox="0 0 511.988 511.988" width="512" xmlns="http://www.w3.org/2000/svg"><g><g><path d="m323.993 408.645v72.552c0 12.863-10.428 23.291-23.291 23.291h-38.877c-12.863 0-23.291-10.428-23.291-23.291s10.428-23.291 23.291-23.291h15.587v-49.262h46.581z" fill="#f90"/></g><g><path d="m215.596 408.645v72.552c0 12.863-10.428 23.291-23.291 23.291h-38.877c-12.863 0-23.291-10.428-23.291-23.291s10.428-23.291 23.291-23.291h15.587v-49.262h46.581z" fill="#f90"/></g><g><g><path d="m300.702 511.988h-38.877c-16.978 0-30.791-13.813-30.791-30.791s13.813-30.79 30.791-30.79h8.087v-41.762c0-4.143 3.358-7.5 7.5-7.5h46.582c4.142 0 7.5 3.357 7.5 7.5v72.552c-.001 16.978-13.814 30.791-30.792 30.791zm-38.877-46.581c-8.707 0-15.791 7.083-15.791 15.79s7.083 15.791 15.791 15.791h38.877c8.707 0 15.791-7.084 15.791-15.791v-65.052h-31.582v41.762c0 4.143-3.358 7.5-7.5 7.5z" fill="#f95116"/></g></g><g><g><path d="m192.306 511.988h-38.877c-16.978 0-30.791-13.813-30.791-30.791s13.813-30.79 30.791-30.79h8.086v-41.762c0-4.143 3.358-7.5 7.5-7.5h46.582c4.142 0 7.5 3.357 7.5 7.5v72.552c-.001 16.978-13.813 30.791-30.791 30.791zm-38.878-46.581c-8.707 0-15.791 7.083-15.791 15.79s7.084 15.791 15.791 15.791h38.877c8.707 0 15.791-7.084 15.791-15.791v-65.052h-31.582v41.762c0 4.143-3.358 7.5-7.5 7.5z" fill="#f95116"/></g></g><path d="m169.015 408.645h46.581v31.123h-46.581z" fill="#f95116"/><path d="m277.412 408.645h46.581v31.123h-46.581z" fill="#f95116"/><path d="m384.042 137.524h-316.187c-27.854 0-50.434 22.58-50.434 50.434v170.253c0 27.854 22.58 50.434 50.434 50.434h316.187c27.854 0 50.434-22.58 50.434-50.434v-170.253c0-27.854-22.58-50.434-50.434-50.434z" fill="#ffff6f"/><path d="m354.07 190.56h-205.135c-17.779 0-32.192 14.413-32.192 32.192v100.665c0 17.779 14.413 32.192 32.192 32.192h205.135c17.779 0 32.192-14.413 32.192-32.192v-100.665c0-17.779-14.413-32.192-32.192-32.192z" fill="#88f8d8"/><path d="m444.132 137.524h-60.09c27.854 0 50.434 22.58 50.434 50.434v170.253c0 27.854-22.58 50.434-50.434 50.434h60.09c27.854 0 50.434-22.58 50.434-50.434v-170.253c0-27.854-22.58-50.434-50.434-50.434z" fill="#ffd600"/><path d="m354.07 183.06h-205.135c-21.886 0-39.692 17.806-39.692 39.692v100.665c0 21.886 17.806 39.691 39.692 39.691h205.135c21.886 0 39.692-17.806 39.692-39.691v-100.665c-.001-21.886-17.806-39.692-39.692-39.692zm-205.135 15h205.135c13.615 0 24.692 11.077 24.692 24.692v22.393h-36.011v-22.393c0-4.143-3.358-7.5-7.5-7.5s-7.5 3.357-7.5 7.5v22.393h-40.833v-22.393c0-4.143-3.358-7.5-7.5-7.5s-7.5 3.357-7.5 7.5v22.393h-40.832v-22.393c0-4.143-3.358-7.5-7.5-7.5s-7.5 3.357-7.5 7.5v22.393h-40.833v-22.393c0-4.143-3.358-7.5-7.5-7.5s-7.5 3.357-7.5 7.5v22.393h-36.011v-22.393c.001-13.615 11.078-24.692 24.693-24.692zm205.135 150.049h-205.135c-13.615 0-24.692-11.076-24.692-24.691v-63.272h254.519v63.272c-.001 13.615-11.077 24.691-24.692 24.691z" fill="#007ea8"/><g fill="#f90"><circle cx="67.082" cy="236.919" r="19.981"/><circle cx="67.082" cy="309.249" r="19.981"/></g><g><g><path d="m67.082 264.401c-15.153 0-27.481-12.328-27.481-27.481 0-15.152 12.328-27.48 27.481-27.48s27.481 12.328 27.481 27.48c0 15.153-12.328 27.481-27.481 27.481zm0-39.962c-6.882 0-12.481 5.599-12.481 12.48s5.599 12.481 12.481 12.481 12.481-5.6 12.481-12.481-5.599-12.48-12.481-12.48z" fill="#f95116"/></g><g><path d="m67.082 336.731c-15.153 0-27.481-12.328-27.481-27.481s12.328-27.481 27.481-27.481 27.481 12.328 27.481 27.481-12.328 27.481-27.481 27.481zm0-39.963c-6.882 0-12.481 5.6-12.481 12.481s5.599 12.481 12.481 12.481 12.481-5.6 12.481-12.481-5.599-12.481-12.481-12.481z" fill="#f95116"/></g></g><circle cx="307.031" cy="289.982" fill="#007ea8" r="11.782"/><g><path d="m276.45 318.179h-49.896c-4.142 0-7.5-3.357-7.5-7.5s3.358-7.5 7.5-7.5h49.896c4.142 0 7.5 3.357 7.5 7.5s-3.358 7.5-7.5 7.5z" fill="#007ea8"/></g><circle cx="195.973" cy="289.982" fill="#007ea8" r="11.782"/><path d="m358.921 92.633h-54.381c-13.874 0-25.122 11.247-25.122 25.122v19.769h104.624v-19.769c0-13.874-11.247-25.122-25.121-25.122z" fill="#0eb4bb"/><g><path d="m384.042 142.204h-104.624c-4.142 0-7.5-.537-7.5-4.68v-19.769c0-17.988 14.634-32.622 32.622-32.622h54.381c17.987 0 32.621 14.634 32.621 32.622v19.769c0 4.142-3.358 4.68-7.5 4.68zm-97.124-12.18h89.624v-12.269c0-9.717-7.905-17.622-17.621-17.622h-54.381c-9.717 0-17.622 7.905-17.622 17.622z" fill="#007ea8"/></g><path d="m118.692 137.524 108.248-100.494c6.758-6.758 6.758-17.716 0-24.474s-17.716-6.758-24.474 0l-134.611 124.968z" fill="#0eb4bb"/><g><path d="m116.307 142.639h-50.836c-3.084 0-3.469.497-4.596-2.374s-.382-6.14 1.878-8.237l134.517-124.882c9.681-9.563 25.337-9.527 34.973.106 9.671 9.673 9.671 25.409 0 35.081-.066.066-.133.131-.201.193l-108.247 100.494c-1.387 1.288-5.595-.381-7.488-.381zm-29.349-12.615h28.79l105.974-98.382c3.739-3.83 3.711-9.987-.084-13.783-3.823-3.822-10.045-3.823-13.867.001-.066.065-.132.13-.201.192z" fill="#007ea8"/></g><path d="m444.132 130.024h-60.09-316.186c-31.945 0-57.934 25.989-57.934 57.934v170.254c0 31.944 25.989 57.934 57.934 57.934h316.187 60.09c31.945 0 57.934-25.989 57.934-57.934v-170.255c-.001-31.944-25.99-57.933-57.935-57.933zm-419.21 228.187v-170.254c0-23.674 19.26-42.934 42.934-42.934h316.187c23.674 0 42.934 19.26 42.934 42.934v170.254c0 23.674-19.26 42.934-42.934 42.934h-316.187c-23.674 0-42.934-19.26-42.934-42.934zm462.144 0c0 23.674-19.26 42.934-42.934 42.934h-21.232c11.89-10.749 19.076-26.324 19.076-42.934v-170.254c0-16.364-7.013-32.029-19.076-42.934h21.232c23.674 0 42.934 19.26 42.934 42.934z" fill="#f90"/></g></svg>