<svg id="Capa_1" enable-background="new 0 0 512 512" height="512" viewBox="0 0 512 512" width="512" xmlns="http://www.w3.org/2000/svg"><g><path d="m434.305 319.174v49.732c0 26.207-10.411 51.333-28.94 69.863l-7.538 7.538c-3.754-1.652-7.898-2.583-12.263-2.583h-75.809z" fill="#ffd600"/><g><path d="m397.825 453.807c-1.02 0-2.047-.208-3.02-.636-2.936-1.292-6.045-1.947-9.241-1.947h-75.809c-3.033 0-5.769-1.827-6.929-4.63-1.161-2.803-.52-6.028 1.625-8.174l124.55-124.55c2.146-2.145 5.371-2.788 8.174-1.625 2.803 1.16 4.63 3.896 4.63 6.929v49.731c0 28.393-11.058 55.088-31.137 75.167l-7.538 7.538c-1.436 1.436-3.355 2.197-5.305 2.197zm-69.963-17.583h57.702c3.517 0 6.968.479 10.313 1.427l4.185-4.186c17.246-17.245 26.744-40.174 26.744-64.56v-31.625z" fill="#f90"/></g><path d="m434.305 243.755v75.419l-124.549 124.55h-75.419z" fill="#ff63ed"/><path d="m425.326 101.938-327.16 327.16c-13.204-17.168-20.471-38.3-20.471-60.192v-225.805c0-26.207 10.411-51.343 28.94-69.873l7.538-7.538c3.754 1.662 7.898 2.583 12.263 2.583h259.13c4.365 0 8.509-.921 12.263-2.583l7.538 7.538c8.377 8.389 15.104 18.129 19.959 28.71z" fill="#ffd600"/><circle cx="280.417" cy="161.212" fill="#f90" r="12.717"/><g><path d="m247.408 191.053h-53.856c-4.143 0-7.5-3.357-7.5-7.5s3.357-7.5 7.5-7.5h53.856c4.143 0 7.5 3.357 7.5 7.5s-3.357 7.5-7.5 7.5z" fill="#f90"/></g><circle cx="160.543" cy="161.212" fill="#f90" r="12.717"/><g><path d="m98.166 436.599c-.161 0-.323-.005-.486-.016-2.153-.14-4.143-1.201-5.459-2.912-14.204-18.468-22.026-41.469-22.026-64.766v-225.804c0-28.399 11.059-55.098 31.138-75.176l7.537-7.538c2.19-2.191 5.503-2.809 8.339-1.555 2.91 1.287 6.015 1.94 9.228 1.94h259.129c3.213 0 6.318-.653 9.228-1.94 2.834-1.253 6.147-.637 8.339 1.555l7.538 7.538c8.963 8.975 16.187 19.364 21.474 30.886 1.309 2.851.704 6.214-1.513 8.432l-327.16 327.16c-1.413 1.41-3.324 2.196-5.306 2.196zm17.954-362.249-4.182 4.183c-17.246 17.245-26.744 40.176-26.744 64.568v225.805c0 17.133 4.927 34.08 14.003 48.556l317.027-317.027c-4.264-8.066-9.687-15.418-16.166-21.905l-4.179-4.179c-3.336.945-6.788 1.423-10.315 1.423h-259.128c-3.528-.002-6.98-.479-10.316-1.424z" fill="#f90"/></g><path d="m434.305 168.357v75.398l-199.968 199.969h-75.398z" fill="#fff"/><path d="m434.305 143.101v25.256l-275.366 275.367h-32.504c-4.365 0-8.509.931-12.263 2.583l-7.538-7.538c-3.053-3.053-5.876-6.287-8.469-9.67l327.16-327.16c5.857 12.792 8.98 26.817 8.98 41.162z" fill="#ff63ed"/><path d="m432.146 98.816c-1.022-2.233-3.073-3.824-5.491-4.26-2.416-.433-4.895.342-6.632 2.078l-327.16 327.16c-2.66 2.661-2.938 6.88-.648 9.866 6.207 8.1 11.027 12.144 16.655 17.949 2.199 2.198 5.508 2.801 8.325 1.561 2.936-1.292 6.045-1.947 9.241-1.947h183.32c1.989 0 3.896-.79 5.304-2.196l124.55-124.55c1.406-1.407 2.196-3.314 2.196-5.304v-75.418-75.398-25.257c0-15.382-3.25-30.282-9.66-44.284zm-5.34 141.832-195.576 195.576h-54.184l249.759-249.759v54.183zm-310.683 197.002c-3.458-3.498-5.156-5.042-7.838-8.064l314.217-314.217c2.859 8.941 4.304 18.229 4.304 27.731v22.149l-270.974 270.975h-29.396c-3.517 0-6.968.478-10.313 1.426zm190.526-1.426h-54.204l174.36-174.36v54.204z" fill="#e207b9"/><path d="m385.561 7.5h-259.122c-16.783 0-30.389 13.605-30.389 30.389 0 16.783 13.605 30.389 30.389 30.389h259.122c16.783 0 30.389-13.605 30.389-30.389 0-16.784-13.606-30.389-30.389-30.389z" fill="#7181ff"/><path d="m385.561 504.5h-259.122c-16.783 0-30.389-13.605-30.389-30.389 0-16.783 13.605-30.389 30.389-30.389h259.122c16.783 0 30.389 13.605 30.389 30.389 0 16.784-13.606 30.389-30.389 30.389z" fill="#7181ff"/><g><path d="m385.562 75.777h-259.124c-20.892 0-37.888-16.997-37.888-37.889s16.997-37.888 37.888-37.888h259.123c20.892 0 37.888 16.997 37.888 37.889s-16.996 37.888-37.887 37.888zm-259.124-60.777c-12.62 0-22.888 10.268-22.888 22.889s10.268 22.889 22.888 22.889h259.123c12.62 0 22.888-10.268 22.888-22.889s-10.267-22.889-22.887-22.889z" fill="#2115c2"/></g><g><path d="m385.562 512h-259.124c-20.892 0-37.888-16.997-37.888-37.889s16.996-37.889 37.888-37.889h259.123c20.892 0 37.888 16.997 37.888 37.889s-16.996 37.889-37.887 37.889zm-259.124-60.777c-12.62 0-22.888 10.268-22.888 22.889s10.268 22.888 22.888 22.888h259.123c12.62 0 22.888-10.268 22.888-22.889s-10.268-22.889-22.888-22.889h-259.123z" fill="#2115c2"/></g></g></svg>