<svg id="Capa_1" enable-background="new 0 0 512 512" height="512" viewBox="0 0 512 512" width="512" xmlns="http://www.w3.org/2000/svg"><g><path d="m210.855 312.938c-10.443-10.444-27.377-10.451-37.82-.007l-51.995 51.995c-10.444 10.444-10.443 27.384 0 37.828l6.878 6.878 89.815-89.815z" fill="#ff63ed"/><path d="m122.214 359.382h127.017v36.475h-127.017z" fill="#ff63ed" transform="matrix(.707 -.707 .707 .707 -212.62 241.928)"/><path d="m250.21 352.292-6.684-6.684-89.815 89.815 6 6c7.066 7.066 15.391 12.179 24.28 15.32l81.056-81.057c-3.061-8.55-8.002-16.559-14.837-23.394z" fill="#ff63ed"/><path d="m265.047 375.685-81.056 81.057c22.126 7.822 47.666 3.371 65.514-13.944 18.509-17.949 23.688-44.403 15.542-67.113z" fill="#ff63ed"/><path d="m472.478 128.471c-19.951-20.017-10.726-48.391-2.321-65.135 4.412-8.79 2.734-19.406-4.22-26.36l-22.814-22.814c-8.89-8.89-23.302-8.89-32.192 0-25.882 25.881-384.37 384.369-396.778 396.777-8.89 8.89-8.89 23.303 0 32.192l22.814 22.814c6.954 6.954 17.57 8.632 26.36 4.22 16.744-8.405 45.118-17.629 65.135 2.322 41.941 41.801 109.13 43.108 151.001 1.237l1.184-1.184c36.103-36.102 41.18-91.482 15.231-133.006-7.691-12.308-6.12-28.237 4.142-38.499l1.007-1.007c10.262-10.262 26.192-11.833 38.499-4.142 41.524 25.949 96.903 20.872 133.006-15.231l1.184-1.184c41.87-41.87 40.563-109.06-1.238-151z" fill="#ffceff"/><path d="m456.733 183.999-81.056 81.056c22.709 8.146 49.164 2.967 67.113-15.543 17.314-17.847 21.765-43.387 13.943-65.513z" fill="#ff63ed"/><path d="m441.413 159.72-5.999-6-89.815 89.815 6.684 6.684c6.835 6.835 14.845 11.776 23.394 14.837l81.056-81.056c-3.14-8.889-8.254-17.215-15.32-24.28z" fill="#ff63ed"/><path d="m314.102 167.493h127.017v36.476h-127.017z" fill="#ff63ed" transform="matrix(.707 -.707 .707 .707 -20.732 321.411)"/><path d="m402.743 121.05c-10.443-10.444-27.384-10.444-37.827 0l-51.995 51.995c-10.444 10.443-10.436 27.377.007 37.82l6.878 6.878 89.815-89.815z" fill="#ff63ed"/><g fill="#f90"><path d="m210.855 312.938c-10.443-10.444-27.377-10.451-37.82-.007l-51.995 51.995c-10.444 10.444-10.443 27.384 0 37.828l6.878 6.878 89.815-89.815z"/><path d="m122.214 359.382h127.017v36.475h-127.017z" transform="matrix(.707 -.707 .707 .707 -212.62 241.928)"/><path d="m250.21 352.292-6.684-6.684-89.815 89.815 6 6c7.066 7.066 15.391 12.179 24.28 15.32l81.056-81.057c-3.061-8.55-8.002-16.559-14.837-23.394z"/><path d="m265.047 375.685-81.056 81.057c22.126 7.822 47.666 3.371 65.514-13.944 18.509-17.949 23.688-44.403 15.542-67.113z"/><path d="m456.733 183.999-81.056 81.056c22.709 8.146 49.164 2.967 67.113-15.543 17.314-17.847 21.765-43.387 13.943-65.513z"/><path d="m441.413 159.72-5.999-6-89.815 89.815 6.684 6.684c6.835 6.835 14.845 11.776 23.394 14.837l81.056-81.056c-3.14-8.889-8.254-17.215-15.32-24.28z"/><path d="m314.102 167.493h127.017v36.476h-127.017z" transform="matrix(.707 -.707 .707 .707 -20.732 321.411)"/><path d="m402.743 121.05c-10.443-10.444-27.384-10.444-37.827 0l-51.995 51.995c-10.444 10.443-10.436 27.377.007 37.82l6.878 6.878 89.815-89.815z"/></g><path d="m272.109 373.159c0-.001 0-.002-.001-.002 0-.001-.001-.002-.001-.003v-.001s0-.001-.001-.001c-3.544-9.894-9.126-18.697-16.593-26.164-4.67-4.67-34.7-34.7-39.354-39.354-13.353-13.352-35.078-13.356-48.426-.008l-51.995 51.996c-13.353 13.353-13.353 35.081 0 48.434 5.537 5.537 3.312 3.31 38.67 38.669 13.942 13.943 32.669 21.29 51.364 21.29 18.068 0 35.59-6.868 48.953-19.832 19.962-19.357 26.786-48.805 17.384-75.024zm-133.583 36.472 79.208-79.208 15.185 15.186-79.209 79.208zm-12.182-39.403 51.995-51.995c7.5-7.5 19.706-7.5 27.214.008l1.575 1.574-79.208 79.208-1.575-1.575c-7.506-7.504-7.506-19.715-.001-27.22zm37.974 65.195 79.208-79.208 1.38 1.381c4.776 4.775 8.574 10.242 11.328 16.296-9.042 9.042-65.056 65.056-74.058 74.059-6.39-2.85-12.147-6.817-17.162-11.832zm79.964 1.992c-12.212 11.847-28.867 17.211-45.516 15.158 6.794-6.794 56.517-56.517 62.112-62.112 2.056 17.157-3.901 34.644-16.596 46.954z" fill="#f95116"/><g><path d="m123.168 477.8c-16.148-16.095-39.626-9.392-56.476-.931-11.712 5.878-25.789 3.619-35.028-5.62l-22.814-22.814c-11.8-11.8-11.8-31 0-42.799 12.408-12.409 370.896-370.897 396.778-396.778 11.801-11.799 30.999-11.798 42.798 0l22.814 22.814c9.24 9.24 11.498 23.316 5.62 35.028-8.459 16.851-15.163 40.329.93 56.477v-.001c44.886 45.035 45.917 116.909 1.228 161.6l-1.184 1.184c-38.182 38.181-97.382 44.347-142.283 16.287-9.471-5.918-21.487-4.649-29.221 3.085l-1.007 1.008c-7.734 7.734-9.003 19.75-3.085 29.22 28.054 44.895 21.901 104.095-16.288 142.284l-1.184 1.184c-45.333 45.333-117.279 42.941-161.598-1.228zm-24.54-24.765c13.723 0 25.682 4.726 35.128 14.139 38.801 38.673 101.223 40.427 140.404 1.245l1.184-1.184c34.299-34.297 37.768-85.971 14.174-123.727-9.641-15.429-7.503-35.075 5.199-47.777l1.007-1.007c12.702-12.702 32.348-14.839 47.776-5.199 37.748 23.589 89.415 20.139 123.728-14.174l1.184-1.184c39.044-39.044 37.562-101.467-1.246-140.403-17.478-17.537-18.796-43.744-3.712-73.794 2.973-5.923 1.839-13.033-2.82-17.692l-22.814-22.814c-5.951-5.951-15.634-5.951-21.585 0-25.883 25.883-384.37 384.37-396.779 396.779-5.951 5.951-5.951 15.634 0 21.585l22.814 22.814c4.659 4.66 11.77 5.791 17.692 2.821 13.865-6.96 26.912-10.428 38.666-10.428z" fill="#e207b9"/></g><path d="m463.804 181.5c-.001-.002-.002-.004-.003-.006-3.624-10.254-9.372-19.365-17.085-27.077-.547-.549-38.265-38.265-38.671-38.671v.001c-13.379-13.381-35.05-13.387-48.434-.001l-51.995 51.995c-13.382 13.382-13.376 35.043.007 48.427 4.654 4.654 34.684 34.684 39.354 39.354 13.773 13.771 31.962 20.76 50.134 20.76 18.92 0 37.475-7.538 51.058-21.547 18.775-19.349 24.765-47.411 15.635-73.235zm-145.572 24.061c-7.518-7.517-7.53-19.691-.007-27.213l51.995-51.996c7.521-7.519 19.7-7.522 27.22 0v.001l1.575 1.574-79.208 79.208zm27.367 27.368-15.185-15.186 79.208-79.208 15.185 15.185zm11.987 11.986-1.38-1.38 79.208-79.209.696.696v.001c5.015 5.015 8.982 10.771 11.831 17.161l-74.059 74.059c-6.052-2.753-11.519-6.551-16.296-11.328zm79.819-.623c-12.309 12.694-29.798 18.649-46.953 16.595l62.111-62.111c2.059 16.647-3.308 33.302-15.158 45.516z" fill="#f95116"/></g></svg>