<svg id="Capa_1" enable-background="new 0 0 512 512" height="512" viewBox="0 0 512 512" width="512" xmlns="http://www.w3.org/2000/svg"><g><path d="m250.991 60.455c8.175 0 15.885 1.968 22.704 5.438v-58.393h-45.408v58.394c6.818-3.47 14.529-5.439 22.704-5.439z" fill="#9448f5"/><g><path d="m273.694 73.394c-1.164 0-2.33-.271-3.401-.815-6.028-3.067-12.521-4.623-19.302-4.623h-.001c-6.78 0-13.273 1.556-19.302 4.623-2.325 1.184-5.098 1.072-7.321-.291-2.225-1.363-3.58-3.785-3.58-6.394v-58.394c0-4.143 3.357-7.5 7.5-7.5h45.407c4.143 0 7.5 3.357 7.5 7.5v58.394c0 2.608-1.355 5.03-3.58 6.394-1.199.734-2.557 1.106-3.92 1.106zm-22.704-20.439c5.207 0 10.29.679 15.204 2.025v-39.98h-30.407v39.98c4.914-1.346 9.996-2.025 15.203-2.025z" fill="#6d00ca"/></g><path d="m301.138 121.873v-11.271c0-27.696-22.452-50.147-50.147-50.147-27.695 0-50.147 22.452-50.147 50.147v11.271c15.992-4.268 32.802-6.533 50.147-6.533s34.155 2.265 50.147 6.533z" fill="#ff63ed"/><path d="m439.038 360.078c-17.859 67.157-70.733 120.03-137.889 137.889 17.576-28.115 31.261-61.389 39.839-98.05 36.661-8.589 69.935-22.274 98.05-39.839z" fill="#ff9bff"/><path d="m200.833 121.873c-17.565 28.115-31.25 61.389-39.839 98.05-36.661 8.589-69.936 22.274-98.05 39.849 17.848-67.156 70.722-120.03 137.889-137.899z" fill="#ff9bff"/><path d="m340.987 399.917c-8.578 36.661-22.263 69.935-39.839 98.05-16.003 4.268-32.813 6.533-50.158 6.533s-34.155-2.265-50.158-6.533c-17.576-28.115-31.261-61.389-39.839-98.05 28.262 6.617 58.526 10.204 89.997 10.204s61.736-3.588 89.997-10.204z" fill="#ffceff"/><path d="m340.987 219.923c-28.262-6.617-58.526-10.203-89.996-10.203s-61.735 3.587-89.997 10.203c8.589-36.661 22.274-69.935 39.839-98.05h.01c15.992-4.268 32.802-6.533 50.147-6.533s34.155 2.265 50.147 6.533c17.577 28.115 31.262 61.389 39.85 98.05z" fill="#ffceff"/><path d="m351.191 309.92c0 31.481-3.586 61.745-10.204 89.997-28.262 6.617-58.526 10.204-89.996 10.204s-61.735-3.587-89.997-10.204c-6.617-28.251-10.204-58.516-10.204-89.997 0-31.47 3.586-61.735 10.204-89.997 28.262-6.617 58.526-10.203 89.997-10.203s61.735 3.587 89.996 10.203c6.617 28.262 10.204 58.527 10.204 89.997z" fill="#ff9bff"/><path d="m426.012 224.844c-24.448-50.214-69.863-88.344-124.874-102.971 17.576 28.115 31.261 61.389 39.849 98.05 22.106 5.179 42.969 12.222 62.224 20.843 9.85-2.381 17.744-8.039 22.801-15.922z" fill="#ff9bff"/><path d="m443.457 303.302h-.739c-5.669 0-10.259-3.976-11.4-9.383-3.173-15.031-14.029-26.115-29.42-29.317-5.397-1.123-9.268-5.874-9.268-11.387v-.62c0-5.615 3.839-10.385 9.219-11.497.463-.096.908-.222 1.363-.331-19.255-8.62-40.117-15.664-62.224-20.843 6.617 28.261 10.203 58.526 10.203 89.996 0 31.481-3.586 61.745-10.203 89.996 36.661-8.589 69.935-22.274 98.05-39.839v-.01c4.268-15.992 6.533-32.802 6.533-50.147 0-2.273-.044-4.536-.121-6.79-.65.112-1.316.172-1.993.172z" fill="#ffceff"/><path d="m160.994 219.924c-36.661 8.589-69.936 22.274-98.05 39.849-4.268 16.003-6.533 32.802-6.533 50.147 0 5.426.247 10.793.683 16.106.022-.102.052-.199.073-.301 1.113-5.38 5.883-9.218 11.377-9.218h.739c5.669 0 10.259 3.976 11.401 9.383 3.173 15.031 14.029 26.114 29.419 29.317 5.397 1.123 9.268 5.875 9.268 11.387v.62c0 5.615-3.839 10.385-9.219 11.498-2.532.524-4.928 1.281-7.201 2.213 18.081 7.783 37.531 14.187 58.044 18.992-6.617-28.251-10.203-58.515-10.203-89.996-.001-31.472 3.585-61.736 10.202-89.997z" fill="#ffceff"/><path d="m160.994 399.917c-20.512-4.805-39.962-11.209-58.044-18.992-10.703 4.392-18.395 13.102-21.585 24.346 25.411 45.116 68.28 79.084 119.467 92.696-17.574-28.115-31.26-61.389-39.838-98.05z" fill="#ff9bff"/><circle cx="302.991" cy="297.513" fill="#e207b9" r="11.033"/><g><path d="m274.354 324.395h-46.726c-4.143 0-7.5-3.357-7.5-7.5s3.357-7.5 7.5-7.5h46.726c4.143 0 7.5 3.357 7.5 7.5s-3.358 7.5-7.5 7.5z" fill="#e207b9"/></g><circle cx="198.99" cy="297.513" fill="#e207b9" r="11.033"/><path d="m27.839 378.733c15.047 3.177 26.138 14.053 29.327 29.469 1.113 5.38 5.883 9.219 11.519 9.219h.74c5.521 0 10.116-3.968 11.254-9.369 3.173-15.053 14.051-26.15 29.472-29.34 5.38-1.113 9.219-5.883 9.219-11.498v-.62c0-5.513-3.871-10.264-9.268-11.387-15.39-3.202-26.246-14.286-29.419-29.317-1.141-5.406-5.732-9.382-11.401-9.383h-.739c-5.494 0-10.264 3.838-11.377 9.218-3.189 15.417-14.281 26.294-29.327 29.47-5.406 1.141-9.382 5.732-9.382 11.258v1.022c0 5.525 3.976 10.116 9.382 11.258z" fill="#ffff6f"/><path d="m400.571 271.418c12.393 2.578 21.356 11.645 23.967 24.016 1.571 7.444 6.528 13.071 13.532 14.804-.025 15.27-1.888 30.397-5.537 45.02-25.184 15.359-52.705 26.637-81.647 34.423 4.975-24.789 7.804-51.771 7.804-79.762 0-26.552-2.556-53.607-7.802-79.743 12.314 3.324 24.121 7.144 37.095 12.316-1.815 2.963-2.087 6.437-2.087 10.103v.619c.001 9.016 5.844 16.367 14.675 18.204zm52.499 38.502c0-2.262-.042-4.633-.125-7.047-.073-2.166-1.081-4.194-2.763-5.562-2.892-2.352-5.788-1.064-6.69-1.064-.139-.044-5.101.405-5.938-3.555-3.841-18.194-16.036-31.223-34.254-35.014-1.91-.397-4.103-2.517-4.103-4.463v-.619c0-2.051 2.379-4.367 4.282-4.761 11.585-2.388 21.322-8.272 28.026-18.724 1.413-2.202 2.396-5.198 1.25-7.551-24.903-51.147-69.93-89.279-124.117-105.364v-5.594c0-31.787-25.86-57.647-57.647-57.647-31.786 0-57.646 25.86-57.646 57.647v5.602c-84.938 25.237-144.434 103.496-144.434 193.716 0 5.365.238 10.99.708 16.719.304 3.71 3.284 6.636 7 6.872 3.68.224 6.949-2.221 7.778-5.781.04-.154.077-.31.114-.486.531-5.375 4.915-3.667 6.864-3.667l.854.167c1.996 0 3.61 1.643 4.044 3.696 3.841 18.194 17.011 31.319 35.229 35.11 1.91.397 3.296 2.099 3.296 4.057l.001.607c0 2.052-1.332 3.76-3.239 4.154-2.872.595-5.741 1.476-8.528 2.619-12.888 5.287-23.837 16.273-27.685 29.84-.546 1.924-1.497 3.383-.517 5.125 35.029 62.189 101.42 103.048 176.161 103.048 92.008 0 171.896-62.007 195.294-149.994.005-.017.005-.034.01-.051.004-.014.009-.028.013-.042 4.487-16.846 6.762-34.338 6.762-51.993zm-202.079 92.7c-28.431 0-56.67-3.014-83.727-8.974-5.931-26.84-8.974-55.213-8.974-83.726 0-28.533 3.036-56.826 8.974-83.725 25.995-5.733 54.144-8.975 83.726-8.975 29.475 0 57.617 3.217 83.725 8.975 5.945 26.933 8.974 55.242 8.974 83.725 0 28.468-3.041 56.878-8.974 83.726-26.315 5.797-54.368 8.974-83.724 8.974zm-45.357-274.213c14.864-3.711 30.137-5.568 45.358-5.568 14.887 0 30.247 1.796 45.345 5.565 15.395 25.24 26.579 52.502 34.416 81.621-26.287-5.275-53.373-7.806-79.761-7.806-27.886 0-54.867 2.81-79.762 7.806 7.769-28.892 18.954-56.275 34.404-81.618zm211.607 95.68c-1.742 2.015-2.641 4.631-4.881 6.09-2.26 1.472-5.866 1.783-8.57 2.644-17.129-7.497-36.621-14.175-56.586-19.114-6.737-27.287-16.659-54.165-29.825-78.746 42.935 16.267 78.554 47.899 99.862 89.126zm-208.897-113.484c0-23.516 19.132-42.647 42.647-42.647s42.646 19.132 42.646 42.647v1.752c-13.312-2.864-27.928-4.515-42.646-4.515-14.495 0-29.069 1.592-42.647 4.515zm-23.752 24.366c-13.406 25.041-23.218 52.023-29.815 78.737-29.075 7.184-55.544 17.399-78.74 29.822 18.939-49.927 58.617-89.606 108.555-108.559zm-75.377 212.894c-12.393-2.578-20.998-11.152-23.609-23.523-1.906-9.027-9.521-14.658-18.648-14.658l-.813.239c-1.589 0-.743-.715-2.234-.341.027-15.249 1.889-30.367 5.536-44.987 25.537-15.584 53.224-26.792 81.65-34.433-5.172 25.772-7.805 52.689-7.805 79.761 0 27.018 2.629 53.964 7.801 79.748-9.92-2.676-19.392-5.662-29.357-9.337 3.202-3.473 2.72-8.121 2.721-13.128l-.001-.608c0-9.018-6.41-16.895-15.241-18.733zm-19.672 56.582c1.244-3.206 1.073-7.41 3.218-9.913 2.337-2.725 7.069-3.676 10.328-5.402 15.405 6.445 33.506 12.508 51.686 17.002 6.749 27.356 16.657 54.171 29.801 78.716-39.548-15.079-73.424-43.587-95.033-80.403zm116.109 87.019c-15.667-25.681-26.764-53.174-34.427-81.65 25.725 5.16 52.74 7.806 79.766 7.806 26.355 0 53.406-2.517 79.765-7.806-7.658 28.498-18.868 56.163-34.427 81.65-14.73 3.674-29.967 5.536-45.338 5.536s-30.608-1.862-45.339-5.536zm111.743-6.593c13.424-25.065 23.186-51.894 29.812-78.736 27.081-6.69 53.947-16.545 78.738-29.817-18.947 49.929-58.621 89.607-108.55 108.553z" fill="#e207b9"/><g><path d="m69.426 424.921h-.74c-9.108 0-17.041-6.393-18.864-15.199-2.567-12.416-11.145-21.036-23.531-23.651l.001.001c-9.028-1.905-15.334-9.553-15.334-18.597v-1.021c0-9.044 6.306-16.691 15.334-18.597 12.386-2.614 20.963-11.235 23.531-23.651 1.821-8.806 9.694-15.198 18.721-15.198h.739c9.127 0 16.832 6.306 18.738 15.333 2.611 12.371 11.217 20.945 23.609 23.523 8.831 1.838 15.24 9.715 15.24 18.73v.62c0 9.097-6.393 17.021-15.199 18.842-12.419 2.568-21.04 11.149-23.652 23.542-1.902 9.022-9.547 15.323-18.593 15.323zm-.883-100.914c-1.948 0-3.644 1.361-4.031 3.236-3.776 18.252-16.906 31.444-35.124 35.29-2.021.427-3.431 2.038-3.431 3.92v1.021c0 1.882 1.41 3.493 3.43 3.919.001.001.001.001.001.001 18.219 3.846 31.349 17.038 35.123 35.289.395 1.905 2.111 3.237 4.175 3.237h.74c1.881 0 3.491-1.405 3.915-3.417 3.842-18.226 17.035-31.361 35.292-35.138 1.906-.394 3.237-2.102 3.237-4.152v-.62c0-1.946-1.386-3.647-3.296-4.045-18.219-3.791-31.389-16.916-35.229-35.11-.434-2.053-2.066-3.432-4.063-3.432h-.739z" fill="#f90"/></g><path d="m484.161 241.076c-15.047-3.177-26.138-14.053-29.327-29.469-1.113-5.38-5.883-9.219-11.52-9.219h-.74c-5.52 0-10.116 3.968-11.254 9.369-3.173 15.053-14.051 26.15-29.472 29.34-5.38 1.113-9.219 5.883-9.219 11.497v.62c0 5.513 3.871 10.264 9.268 11.387 15.39 3.202 26.246 14.286 29.419 29.317 1.141 5.406 5.732 9.382 11.401 9.383h.739c5.494 0 10.264-3.838 11.377-9.218 3.189-15.417 14.281-26.294 29.327-29.47 5.406-1.141 9.382-5.732 9.382-11.258v-1.022c.001-5.525-3.975-10.116-9.381-11.257z" fill="#ffff6f"/><g><path d="m443.457 310.802h-.739c-9.127 0-16.832-6.306-18.738-15.333-2.611-12.371-11.217-20.945-23.609-23.523-8.831-1.838-15.24-9.715-15.24-18.73v-.62c0-9.095 6.392-17.02 15.198-18.842 12.42-2.568 21.041-11.149 23.653-23.542 1.901-9.022 9.547-15.323 18.593-15.323h.74c9.108 0 17.041 6.393 18.864 15.199 2.567 12.416 11.145 21.036 23.531 23.651l-.001-.001c9.028 1.905 15.334 9.553 15.334 18.597v1.021c0 9.043-6.305 16.69-15.332 18.597-12.388 2.614-20.965 11.235-23.533 23.651-1.822 8.805-9.695 15.198-18.721 15.198zm-.883-100.914c-1.881 0-3.491 1.405-3.915 3.417-3.842 18.226-17.035 31.361-35.292 35.138-1.906.395-3.237 2.102-3.237 4.152v.62c0 1.946 1.386 3.647 3.296 4.045 18.219 3.791 31.389 16.916 35.229 35.11.434 2.053 2.066 3.432 4.063 3.432h.739c1.948 0 3.644-1.361 4.031-3.236 3.776-18.253 16.906-31.444 35.124-35.289 2.02-.427 3.431-2.039 3.431-3.921v-1.021c0-1.882-1.41-3.493-3.43-3.919-.001-.001-.001-.001-.001-.001-18.219-3.846-31.349-17.038-35.123-35.289-.395-1.905-2.111-3.237-4.175-3.237z" fill="#f90"/></g></g></svg>