<svg id="Capa_1" enable-background="new 0 0 512 512" height="512" viewBox="0 0 512 512" width="512" xmlns="http://www.w3.org/2000/svg"><g><path d="m451.704 15.848h-43.411c29.159 0 52.796 23.638 52.796 52.796v265.319c0 29.159-23.638 52.796-52.796 52.796h43.411c29.159 0 52.796-23.638 52.796-52.796v-265.319c0-29.158-23.638-52.796-52.796-52.796z" fill="#0eb4bb"/><g><path d="m323.622 386.759v85.24c0 13.339-10.814 24.153-24.153 24.153h-40.317c-13.339 0-24.153-10.814-24.153-24.153s10.814-24.153 24.153-24.153h16.164v-61.086h48.306z" fill="#9448f5"/></g><g><path d="m211.21 386.759v85.24c0 13.339-10.814 24.153-24.153 24.153h-40.317c-13.339 0-24.153-10.814-24.153-24.153s10.814-24.153 24.153-24.153h16.164v-61.086h48.306z" fill="#9448f5"/></g><g><g><path d="m299.469 503.652h-40.317c-17.454 0-31.653-14.199-31.653-31.653s14.2-31.653 31.653-31.653h8.664v-53.587c0-4.143 3.358-7.5 7.5-7.5h48.307c4.142 0 7.5 3.357 7.5 7.5v85.24c-.001 17.454-14.201 31.653-31.654 31.653zm-40.318-48.306c-9.183 0-16.653 7.471-16.653 16.653s7.471 16.653 16.653 16.653h40.317c9.183 0 16.653-7.471 16.653-16.653v-77.74h-33.307v53.587c0 4.143-3.358 7.5-7.5 7.5z" fill="#6d00ca"/></g></g><g><g><path d="m187.057 503.652h-40.317c-17.454 0-31.653-14.199-31.653-31.653s14.2-31.653 31.653-31.653h8.664v-53.587c0-4.143 3.358-7.5 7.5-7.5h48.307c4.142 0 7.5 3.357 7.5 7.5v85.24c-.001 17.454-14.201 31.653-31.654 31.653zm-40.318-48.306c-9.183 0-16.653 7.471-16.653 16.653s7.471 16.653 16.653 16.653h40.317c9.183 0 16.653-7.471 16.653-16.653v-77.74h-33.307v53.587c0 4.143-3.358 7.5-7.5 7.5z" fill="#6d00ca"/></g></g><path d="m162.903 386.759h48.307v32.276h-48.307z" fill="#6d00ca"/><path d="m275.315 386.759h48.307v32.276h-48.307z" fill="#6d00ca"/><path d="m406.09 116.08v-45.23h-343.59v45.23h-55v217.88c0 29.16 23.64 52.8 52.8 52.8h347.99c29.16 0 52.8-23.64 52.8-52.8v-217.88z" fill="#88f8d8"/><path d="m379.05 169.091h-289.51c-14.934 0-27.04 12.106-27.04 27.04v110.287c0 14.934 12.106 27.04 27.04 27.04h289.51c14.934 0 27.04-12.106 27.04-27.04v-110.287c0-14.934-12.106-27.04-27.04-27.04z" fill="#9448f5"/><g fill="#ddbeff"><path d="m152.657 174.952c-30.295 12.108-51.709 41.705-51.709 76.322 0 34.617 21.414 64.214 51.709 76.322z"/><path d="m315.933 174.952v152.645c30.295-12.108 51.709-41.705 51.709-76.322 0-34.618-21.414-64.215-51.709-76.323z"/></g><g><g><path d="m152.657 335.097c-.94 0-1.885-.177-2.783-.536-34.277-13.699-56.425-46.392-56.425-83.286 0-36.896 22.148-69.588 56.426-83.287 2.311-.922 4.928-.64 6.989.755 2.061 1.396 3.294 3.722 3.294 6.21v152.645c0 2.488-1.234 4.814-3.294 6.21-1.26.851-2.729 1.289-4.207 1.289zm-7.5-148.145c-22.616 13.282-36.709 37.465-36.709 64.322 0 26.856 14.093 51.039 36.709 64.322z" fill="#6d00ca"/></g><g><path d="m315.933 335.097c-1.479 0-2.947-.438-4.206-1.29-2.06-1.396-3.294-3.722-3.294-6.21v-152.645c0-2.488 1.234-4.814 3.294-6.21 2.061-1.395 4.679-1.678 6.989-.755 34.277 13.699 56.426 46.392 56.426 83.287s-22.148 69.587-56.425 83.286c-.899.36-1.843.537-2.784.537zm7.5-148.145v128.645c22.616-13.283 36.709-37.466 36.709-64.322 0-26.858-14.094-51.041-36.709-64.323z" fill="#6d00ca"/></g></g><path d="m152.66 228.8h163.27v104.66h-163.27z" fill="#ffff6f"/><g><path d="m89.54 176.591c-10.774 0-19.54 8.766-19.54 19.54v110.287c0 10.774 8.766 19.54 19.54 19.54h55.62l90.96 2.888 87.502-2.888h55.428c10.774 0 19.54-8.766 19.54-19.54v-110.287c0-10.774-8.766-19.54-19.54-19.54h-55.618l-89.138-3.566-89.134 3.566zm289.51 164.367h-55.428l-86.671-8.122-91.791 8.122h-55.62c-19.045 0-34.54-15.494-34.54-34.54v-110.287c0-19.046 15.495-34.54 34.54-34.54h55.62l89.838 2.313 88.432-2.313h55.62c19.045 0 34.54 15.494 34.54 34.54v110.287c0 19.046-15.494 34.54-34.54 34.54z" fill="#6d00ca"/></g><g><path d="m315.93 340.96h-163.27c-4.142 0-7.5-3.357-7.5-7.5v-104.66c0-4.143 3.358-7.5 7.5-7.5h163.27c4.142 0 7.5 3.357 7.5 7.5v104.66c0 4.143-3.358 7.5-7.5 7.5zm-155.77-15h148.27v-89.66h-148.27z" fill="#f90"/></g><path d="m152.66 169.09h163.27v59.71h-163.27z" fill="#f90"/><g><path d="m315.93 236.3h-163.27c-4.142 0-7.5-3.357-7.5-7.5v-59.71c0-4.143 3.358-7.5 7.5-7.5h163.27c4.142 0 7.5 3.357 7.5 7.5v59.71c0 4.142-3.358 7.5-7.5 7.5zm-155.77-15h148.27v-44.71h-148.27z" fill="#f95116"/></g><g><path d="m271.397 272.056h-72.798c-4.142 0-7.5-3.357-7.5-7.5s3.358-7.5 7.5-7.5h72.798c4.142 0 7.5 3.357 7.5 7.5s-3.358 7.5-7.5 7.5z" fill="#f90"/></g><g><path d="m271.397 307.811h-72.798c-4.142 0-7.5-3.357-7.5-7.5s3.358-7.5 7.5-7.5h72.798c4.142 0 7.5 3.357 7.5 7.5s-3.358 7.5-7.5 7.5z" fill="#f90"/></g><circle cx="290.282" cy="111.842" fill="#007ea8" r="11.73"/><g><path d="m259.835 139.948h-49.675c-4.142 0-7.5-3.357-7.5-7.5s3.358-7.5 7.5-7.5h49.675c4.142 0 7.5 3.357 7.5 7.5s-3.357 7.5-7.5 7.5z" fill="#007ea8"/></g><circle cx="179.714" cy="111.842" fill="#007ea8" r="11.73"/><path d="m461.09 68.64v47.44h-55v-45.23h-343.59v45.23h-55v-47.44c0-29.15 23.64-52.79 52.8-52.79h347.99c29.16 0 52.8 23.64 52.8 52.79z" fill="#17d9c3"/><path d="m451.704 8.348c-21.398 0-380.577.003-391.404.003-33.25 0-60.3 27.045-60.3 60.29v47.439 217.88c0 33.249 27.05 60.3 60.3 60.3 13.369 0 368.761-.001 391.404-.001 33.248 0 60.296-27.049 60.296-60.296v-265.318c0-33.249-27.049-60.297-60.296-60.297zm-436.704 60.293c0-24.973 20.321-45.29 45.3-45.29h347.99c14.595 0 27.592 6.944 35.882 17.693 5.897 7.648 9.417 17.219 9.417 27.601v39.936h-39.999v-37.73c0-4.143-3.358-7.5-7.5-7.5h-343.59c-4.142 0-7.5 3.357-7.5 7.5v37.729h-40zm0 265.319v-210.38h47.5c4.142 0 7.5-3.357 7.5-7.5v-37.729h328.59v37.729c0 4.143 3.358 7.5 7.5 7.5h47.499v210.383c0 24.975-20.314 45.296-45.296 45.296-.007 0-.013.001-.019.001h-347.974c-24.979 0-45.3-20.322-45.3-45.3zm482 .003c0 24.977-20.32 45.296-45.296 45.296h-3.654c12.965-11.403 20.54-27.875 20.54-45.299 0-9.495 0-252.673 0-265.319 0-17.295-7.478-33.817-20.54-45.293h3.654c24.977 0 45.296 20.32 45.296 45.297z" fill="#007ea8"/></g></svg>