<svg id="Capa_1" enable-background="new 0 0 512 512" height="512" viewBox="0 0 512 512" width="512" xmlns="http://www.w3.org/2000/svg"><path d="m178.639 52.022c-13.87 0-25.114 11.244-25.114 25.114v35.809c0 13.87 11.244 25.114 25.114 25.114 13.87 0 25.114-11.244 25.114-25.114v-35.809c0-13.87-11.244-25.114-25.114-25.114z" fill="#9448f5"/><path d="m333.361 52.022c-13.87 0-25.114 11.244-25.114 25.114v35.809c0 13.87 11.244 25.114 25.114 25.114 13.87 0 25.114-11.244 25.114-25.114v-35.809c0-13.87-11.244-25.114-25.114-25.114z" fill="#ff63ed"/><g><path d="m183.999 374.085c-1.909.115-3.707.172-5.36.172-29.08 0-101.746-16.877-101.746-81.588 0-60.448 43.065-142.923 86.164-160.036-5.804-4.6-9.532-11.706-9.532-19.688v-17.784c-85.869 16.813-146.025 117.235-146.025 197.508 0 87.894 72.113 167.309 171.139 167.309 28.348 0 54.484-6.518 77.361-17.87-30.765-15.266-55.627-39.284-72.001-68.023z" fill="#b98eff"/><path d="m256 117.077c-15.948-10.575-33.484-18.242-52.247-21.916v17.784c0 7.984-3.73 15.092-9.537 19.692 8.415 3.346 16.832 9.197 24.93 16.882 11.005-12.458 23.359-23.494 36.854-32.442z" fill="#9448f5"/></g><path d="m294.3 149.506c-13.731 13.028-26.535 31.35-36.847 51.802 14.731 29.195 24.389 62.723 24.389 91.361 0 24.158-10.159 41.662-24.405 54.109 21.686 18.964 52.85 26.159 72.021 27.307 13.982-24.542 21.777-52.521 21.777-81.416 0-47.897-21.42-102.961-56.935-143.163z" fill="#b98eff"/><path d="m358.475 95.161v17.784c0 7.984-3.73 15.092-9.537 19.692 43.037 17.114 86.169 99.501 86.169 160.031 0 64.536-72.49 81.588-101.746 81.588-29.08 0-101.746-16.877-101.746-81.588 0-60.448 43.065-142.923 86.163-160.036-5.804-4.6-9.532-11.706-9.532-19.688v-17.783c-85.868 16.812-146.025 117.235-146.025 197.508 0 87.893 72.113 167.309 171.139 167.309s171.14-79.415 171.14-167.309c0-80.273-60.156-180.695-146.025-197.508z" fill="#ff9bff"/><circle cx="381.273" cy="405.389" fill="#e207b9" r="10.166"/><g><path d="m354.887 430.747h-43.051c-4.143 0-7.5-3.357-7.5-7.5s3.357-7.5 7.5-7.5h43.051c4.143 0 7.5 3.357 7.5 7.5s-3.358 7.5-7.5 7.5z" fill="#e207b9"/></g><circle cx="285.449" cy="405.389" fill="#e207b9" r="10.166"/><path d="m259.334 435.39c-13.752-6.823-31.305-13.824-42.447-24.036-12.34-11.31-17.942-26.187-26.371-40.982-1.414-2.481-4.113-3.938-6.965-3.773-1.756.104-3.409.158-4.912.158-15.197 0-39.054-4.811-58.091-15.558-23.991-13.544-36.155-33.236-36.155-58.53 0-56.941 39.422-132.719 77.922-151.507 4.805 2.791 10.379 4.398 16.324 4.398 5.934 0 11.498-1.601 16.296-4.382 6.19 3.035 12.579 7.644 19.048 13.782 1.396 1.325 3.245 2.06 5.162 2.06.11 0 .22-.002.331-.007 2.034-.09 3.943-1.002 5.291-2.528 4.898-5.545 5.09-15.542 10.367-20.313 6.457-5.838 18.086-6.251 25.01-10.843 2.096-1.39 3.355-3.736 3.355-6.251 0-2.514-1.26-4.861-3.354-6.251-15.563-10.32-31.983-17.594-48.893-21.689v-12.002c0-17.983-14.63-32.614-32.614-32.614s-32.614 14.631-32.614 32.614v12.008c-39.427 9.567-76.12 36.592-103.88 76.706-26.783 38.701-42.144 84.925-42.144 126.819 0 44.845 18.441 89.269 50.594 121.881 33.651 34.132 79.125 52.929 128.045 52.929 28.605 0 55.755-6.275 80.695-18.652 2.552-1.266 4.166-3.869 4.166-6.718s-1.614-5.453-4.166-6.719zm-48.081-322.445v-8.33c10.63 2.9 21.056 7.225 31.163 12.926-8.302 6.317-16.268 13.496-23.81 21.457-4.101-3.418-8.212-6.337-12.312-8.743 3.088-4.917 4.959-11.092 4.959-17.31zm-50.228-35.809c0-9.713 7.902-17.614 17.614-17.614s17.614 7.901 17.614 17.614v35.81c0 9.756-7.955 17.614-17.614 17.614-9.681 0-17.614-7.885-17.614-17.614 0-12.411 0-23.083 0-35.81zm17.614 375.343c-44.873 0-86.554-17.21-117.364-48.46-29.408-29.83-46.275-70.415-46.275-111.35 0-38.345 14.758-82.563 39.479-118.284 24.81-35.85 57.036-60.329 91.546-69.767v8.327c0 6.086 1.794 12.271 4.959 17.31-19.045 11.204-38.224 33.406-53.79 62.618-17.668 33.156-27.801 69.53-27.801 99.796 0 30.666 15.139 55.423 43.781 71.592 22.875 12.914 49.562 17.496 65.465 17.496.38 0 .768-.003 1.162-.009 14.788 24.484 35.063 44.828 59.327 59.614-19.035 7.383-39.32 11.117-60.489 11.117z" fill="#6d00ca"/><g><path d="m328.002 381.585c-.15 0-.3-.005-.45-.014-12.022-.72-25.459-6.996-39.977-12.384-12.544-4.655-26.226-7.752-36.532-16.765-1.629-1.425-2.563-3.483-2.563-5.647s.936-4.223 2.565-5.646c14.492-12.661 21.839-28.965 21.839-48.46 0-26.208-8.597-58.275-23.585-87.981-1.072-2.124-1.072-4.631-.001-6.756 5.384-10.679 15.211-16.117 21.493-25.009 6.594-9.334 9.682-22.019 16.888-28.857 1.476-1.399 3.447-2.141 5.492-2.052 2.033.09 3.943 1.002 5.291 2.527 36.277 41.066 58.813 97.825 58.813 148.128 0 29.557-7.87 58.993-22.761 85.129-1.336 2.35-3.83 3.787-6.512 3.787zm-6.002-11.57c12.119-22.816 20.277-51.945 20.277-77.347 0-44.361-18.955-94.252-49.852-132.07-10.089 10.871-19.658 24.779-28.03 40.772 14.957 30.771 23.489 63.847 23.489 91.298.001 20.937-8.758 40.725-22.384 55.347 0 0 14.75 20.375 56.5 22z" fill="#6d00ca"/></g><g><path d="m328.002 381.585c-.15 0-.3-.005-.45-.014-22.409-1.342-54.276-9.704-76.509-29.148-1.629-1.425-2.563-3.483-2.563-5.647s.936-4.223 2.565-5.646c14.492-12.661 21.839-28.965 21.839-48.46 0-26.208-8.597-58.275-23.585-87.981-1.072-2.124-1.072-4.631-.001-6.756 11.036-21.888 24.309-40.514 38.382-53.866 1.476-1.399 3.447-2.141 5.492-2.052 2.033.09 3.943 1.002 5.291 2.527 36.277 41.066 58.813 97.825 58.813 148.128 0 29.557-7.87 58.993-22.761 85.129-1.337 2.349-3.831 3.786-6.513 3.786zm-60.668-35.364c17.319 12.218 39.728 18.244 56.439 19.99 12.119-22.816 18.504-48.141 18.504-73.543 0-44.361-18.955-94.252-49.852-132.07-10.089 10.871-19.658 24.779-28.03 40.772 14.957 30.771 23.489 63.847 23.489 91.298.001 20.937-6.924 38.931-20.55 53.553z" fill="#6d00ca"/></g><g><path d="m314.051 177.795c-6.344-9.987-13.438-19.493-21.208-28.288-13.731 13.028-26.535 31.35-36.847 51.802 7.657 15.175 13.924 31.518 18.196 47.739 3.815-12.101 8.97-24.435 15.232-36.186 8.077-15.161 16.773-26.911 24.627-35.067z" fill="#6d00ca"/></g><path d="m469.855 165.85c-27.76-40.115-64.453-67.139-103.88-76.707v-12.007c0-17.983-14.631-32.614-32.614-32.614s-32.614 14.631-32.614 32.614v12.007c-39.427 9.567-76.12 36.592-103.88 76.707-26.783 38.701-42.145 84.926-42.145 126.819 0 44.845 18.441 89.269 50.594 121.881 33.651 34.132 79.125 52.929 128.045 52.929s94.394-18.797 128.045-52.929c32.154-32.612 50.594-77.036 50.594-121.881 0-41.894-15.361-88.118-42.145-126.819zm-152.817-24.688c4.805 2.79 10.379 4.397 16.324 4.397 5.942 0 11.512-1.605 16.315-4.392 38.504 18.811 77.931 94.587 77.931 151.502 0 25.236-12.145 44.908-36.097 58.469-19.06 10.789-42.938 15.619-58.149 15.619-15.197 0-39.054-4.811-58.091-15.558-23.991-13.544-36.155-33.236-36.155-58.53-.001-56.941 39.423-132.721 77.922-151.507zm-1.291-64.026c0-9.713 7.901-17.614 17.614-17.614s17.614 7.901 17.614 17.614v35.81c0 9.631-7.844 17.614-17.614 17.614-9.823 0-17.614-8.031-17.614-17.614 0-12.411 0-23.083 0-35.81zm134.978 326.883c-30.81 31.25-72.49 48.46-117.363 48.46s-86.554-17.21-117.364-48.46c-29.409-29.829-46.275-70.414-46.275-111.35 0-38.345 14.758-82.563 39.479-118.284 24.81-35.85 57.036-60.329 91.546-69.767v8.327c0 6.059 1.758 12.212 4.959 17.31-19.045 11.204-38.224 33.407-53.79 62.618-17.668 33.156-27.801 69.53-27.801 99.796 0 30.666 15.139 55.423 43.781 71.592 22.874 12.914 49.562 17.496 65.465 17.496 15.92 0 42.637-4.601 65.539-17.566 28.594-16.188 43.707-40.919 43.707-71.521 0-30.284-10.144-66.67-27.828-99.826-15.567-29.185-34.737-51.373-53.769-62.578 3.076-4.893 4.965-11.004 4.965-17.319v-8.327c34.51 9.438 66.735 33.917 91.546 69.767 24.719 35.719 39.478 79.937 39.478 118.282 0 40.935-16.866 81.52-46.275 111.35z" fill="#e207b9"/></svg>