<svg id="Capa_1" enable-background="new 0 0 512 512" height="512" viewBox="0 0 512 512" width="512" xmlns="http://www.w3.org/2000/svg"><g><circle cx="256" cy="211.18" fill="#7181ff" r="203.68"/><circle cx="256" cy="211.18" fill="#ff63ed" r="75.648"/><circle cx="256" cy="211.18" fill="#fff" r="27.284"/><path d="m195.753 405.798v52.652h-15.409c-12.716 0-23.025 10.309-23.025 23.025s10.309 23.025 23.025 23.025h38.434c12.716 0 23.025-10.309 23.025-23.025v-67.116c-15.923-1.096-31.344-4.013-46.05-8.561z" fill="#ff63ed"/><path d="m302.912 409.421v49.029h-15.409c-12.716 0-23.025 10.309-23.025 23.025s10.309 23.025 23.025 23.025h38.434c12.716 0 23.025-10.309 23.025-23.025v-89.022c-14.434 7.417-29.871 13.154-46.05 16.968z" fill="#ff63ed"/><circle cx="311.945" cy="70.918" fill="#1900ce" r="11.87"/><g><path d="m281.135 99.27h-50.27c-4.143 0-7.5-3.357-7.5-7.5s3.357-7.5 7.5-7.5h50.27c4.143 0 7.5 3.357 7.5 7.5s-3.358 7.5-7.5 7.5z" fill="#2115c2"/></g><circle cx="200.055" cy="70.918" fill="#1900ce" r="11.87"/><g><path d="m142.31 332.37c-1.919 0-3.839-.732-5.304-2.196-31.735-31.736-49.213-73.995-49.213-118.994 0-44.998 17.478-87.258 49.213-118.994 2.93-2.928 7.678-2.928 10.607 0 2.929 2.93 2.929 7.678 0 10.607-28.903 28.902-44.82 67.396-44.82 108.387 0 40.992 15.917 79.484 44.82 108.387 2.929 2.93 2.929 7.678 0 10.607-1.465 1.464-3.384 2.196-5.303 2.196z" fill="#2115c2"/></g><g><path d="m172.643 302.037c-1.919 0-3.839-.732-5.304-2.196-23.646-23.646-36.669-55.134-36.669-88.661s13.022-65.015 36.669-88.661c2.931-2.929 7.679-2.927 10.607 0 2.929 2.93 2.929 7.678 0 10.607-20.814 20.813-32.276 48.533-32.276 78.054s11.462 57.241 32.276 78.054c2.929 2.93 2.929 7.678 0 10.607-1.465 1.464-3.384 2.196-5.303 2.196z" fill="#2115c2"/></g><g><path d="m339.357 302.037c-1.92 0-3.839-.732-5.304-2.196-2.929-2.93-2.929-7.678 0-10.607 20.814-20.813 32.276-48.533 32.276-78.054s-11.462-57.241-32.276-78.054c-2.929-2.93-2.929-7.678 0-10.607 2.93-2.928 7.678-2.928 10.607 0 23.646 23.646 36.669 55.134 36.669 88.661s-13.022 65.015-36.669 88.661c-1.464 1.464-3.384 2.196-5.303 2.196z" fill="#2115c2"/></g><g><path d="m369.69 332.371c-1.919 0-3.839-.732-5.304-2.196-2.929-2.93-2.929-7.678 0-10.607 59.766-59.765 59.766-157.01 0-216.774-2.929-2.93-2.929-7.678 0-10.607 2.93-2.928 7.678-2.928 10.607 0 65.613 65.614 65.613 172.375 0 237.989-1.464 1.463-3.384 2.195-5.303 2.195z" fill="#2115c2"/></g><g><path d="m256 294.328c-45.849 0-83.148-37.3-83.148-83.148s37.3-83.148 83.148-83.148 83.148 37.3 83.148 83.148-37.299 83.148-83.148 83.148zm0-151.297c-37.577 0-68.148 30.571-68.148 68.148s30.571 68.148 68.148 68.148 68.148-30.571 68.148-68.148-30.571-68.148-68.148-68.148z" fill="#e207b9"/></g><g><path d="m256 245.964c-19.18 0-34.784-15.604-34.784-34.784s15.604-34.784 34.784-34.784 34.784 15.604 34.784 34.784-15.604 34.784-34.784 34.784zm0-54.568c-10.909 0-19.784 8.875-19.784 19.783 0 10.909 8.875 19.784 19.784 19.784s19.784-8.875 19.784-19.784c0-10.908-8.875-19.783-19.784-19.783z" fill="#e207b9"/></g><g><path d="m218.777 512h-38.434c-16.831 0-30.524-13.693-30.524-30.524 0-16.832 13.693-30.525 30.524-30.525h7.909v-45.152c0-2.382 1.132-4.622 3.049-6.036 1.916-1.414 4.39-1.832 6.667-1.129 14.326 4.431 29.247 7.204 44.349 8.244 3.933.271 6.984 3.54 6.984 7.482v67.116c.001 16.831-13.693 30.524-30.524 30.524zm-38.433-46.05c-8.561 0-15.524 6.965-15.524 15.525s6.963 15.525 15.524 15.525h38.434c8.561 0 15.524-6.964 15.524-15.524v-60.231c-10.496-1.072-20.886-2.924-31.049-5.533v42.739c0 4.143-3.357 7.5-7.5 7.5h-15.409z" fill="#e207b9"/></g><path d="m195.753 405.798v29.797c14.934 3.983 30.342 6.48 46.05 7.421v-28.657c-15.923-1.096-31.344-4.013-46.05-8.561z" fill="#e207b9"/><g><path d="m325.937 512h-38.434c-16.831 0-30.524-13.693-30.524-30.524 0-16.832 13.693-30.525 30.524-30.525h7.909v-41.529c0-3.479 2.393-6.502 5.779-7.3 15.38-3.625 30.299-9.122 44.342-16.339 2.325-1.194 5.104-1.093 7.336.27 2.23 1.362 3.592 3.787 3.592 6.401v89.022c0 16.831-13.693 30.524-30.524 30.524zm-38.434-46.05c-8.561 0-15.524 6.965-15.524 15.525s6.963 15.525 15.524 15.525h38.434c8.561 0 15.524-6.964 15.524-15.524v-77.131c-10.042 4.446-20.43 8.103-31.049 10.927v43.179c0 4.143-3.357 7.5-7.5 7.5h-15.409z" fill="#e207b9"/></g><path d="m302.912 409.421v29.314c15.881-3.24 31.298-8.124 46.049-14.567v-31.715c-14.433 7.417-29.87 13.154-46.049 16.968z" fill="#e207b9"/><g><path d="m256 422.359c-116.445 0-211.18-94.734-211.18-211.18s94.735-211.179 211.18-211.179 211.18 94.734 211.18 211.18-94.735 211.179-211.18 211.179zm0-407.359c-108.174 0-196.18 88.006-196.18 196.18s88.006 196.18 196.18 196.18 196.18-88.006 196.18-196.18-88.006-196.18-196.18-196.18z" fill="#2115c2"/></g></g></svg>