<svg id="Capa_1" enable-background="new 0 0 512 512" height="512" viewBox="0 0 512 512" width="512" xmlns="http://www.w3.org/2000/svg"><g><g><path d="m318.916 397.887v83.073c0 13-10.539 23.54-23.54 23.54h-39.293c-13 0-23.54-10.539-23.54-23.54s10.539-23.539 23.54-23.539h15.753v-59.534z" fill="#565eec"/></g><g><path d="m209.361 397.887v83.073c0 13-10.539 23.54-23.54 23.54h-39.293c-13 0-23.54-10.539-23.54-23.54s10.539-23.539 23.54-23.539h15.753v-59.534z" fill="#565eec"/></g><g><g><path d="m295.377 512h-39.293c-17.115 0-31.04-13.924-31.04-31.039s13.924-31.04 31.04-31.04h8.253v-52.034c0-4.143 3.358-7.5 7.5-7.5h47.079c4.142 0 7.5 3.357 7.5 7.5v83.074c.001 17.115-13.924 31.039-31.039 31.039zm-39.293-47.079c-8.844 0-16.04 7.195-16.04 16.04 0 8.844 7.195 16.039 16.04 16.039h39.293c8.844 0 16.04-7.195 16.04-16.039v-75.574h-32.079v52.034c0 4.143-3.358 7.5-7.5 7.5z" fill="#2115c2"/></g></g><g><g><path d="m185.822 512h-39.292c-17.115 0-31.04-13.924-31.04-31.039s13.924-31.04 31.04-31.04h8.253v-52.034c0-4.143 3.358-7.5 7.5-7.5h47.079c4.142 0 7.5 3.357 7.5 7.5v83.074c-.001 17.115-13.925 31.039-31.04 31.039zm-39.293-47.079c-8.844 0-16.04 7.195-16.04 16.04 0 8.844 7.195 16.039 16.04 16.039h39.292c8.844 0 16.04-7.195 16.04-16.039v-75.574h-32.079v52.034c0 4.143-3.358 7.5-7.5 7.5z" fill="#2115c2"/></g></g><path d="m162.282 397.887h47.079v31.456h-47.079z" fill="#2115c2"/><path d="m271.837 397.887h47.079v31.456h-47.079z" fill="#2115c2"/><path d="m340.928 7.5h-213.958c-20.811 0-37.681 16.871-37.681 37.681v63.77h44.045v-57.406h201.232v57.407h44.045v-63.77c-.001-20.811-16.872-37.682-37.683-37.682z" fill="#ffff6f"/><g><path d="m378.61 116.451h-44.045c-4.142 0-7.5-3.357-7.5-7.5v-49.906h-186.232v49.906c0 4.143-3.358 7.5-7.5 7.5h-44.044c-4.142 0-7.5-3.357-7.5-7.5v-63.77c0-24.912 20.268-45.181 45.181-45.181h213.958c24.913 0 45.181 20.269 45.181 45.182v63.77c.001 4.142-3.357 7.499-7.499 7.499zm-36.545-15h29.045v-56.27c0-16.642-13.539-30.181-30.181-30.181h-213.959c-16.642 0-30.182 13.539-30.182 30.182v56.27h29.045v-49.907c0-4.143 3.358-7.5 7.5-7.5h201.231c4.142 0 7.5 3.357 7.5 7.5v49.906z" fill="#f90"/></g><path d="m398.102 108.951h-338.051c-21.895 0-39.644 17.749-39.644 39.644v209.648c0 21.895 17.749 39.644 39.644 39.644h338.05c21.895 0 39.644-17.749 39.644-39.644v-209.648c0-21.895-17.749-39.644-39.643-39.644z" fill="#ffceff"/><circle cx="272.808" cy="205.371" fill="#e207b9" r="9.279"/><g><path d="m248.724 229.171h-39.295c-4.142 0-7.5-3.357-7.5-7.5s3.358-7.5 7.5-7.5h39.295c4.142 0 7.5 3.357 7.5 7.5s-3.358 7.5-7.5 7.5z" fill="#e207b9"/></g><circle cx="185.345" cy="205.371" fill="#e207b9" r="9.279"/><path d="m451.949 108.951h-53.847c21.895 0 39.644 17.749 39.644 39.644v209.648c0 21.895-17.749 39.644-39.644 39.644h53.847c21.895 0 39.644-17.749 39.644-39.644v-209.648c0-21.895-17.749-39.644-39.644-39.644z" fill="#ff9bff"/><circle cx="108.097" cy="253.419" fill="#565eec" r="55.336"/><circle cx="350.056" cy="253.419" fill="#565eec" r="55.336"/><g><path d="m108.097 316.255c-34.647 0-62.835-28.188-62.835-62.836s28.188-62.836 62.835-62.836c34.648 0 62.836 28.188 62.836 62.836s-28.188 62.836-62.836 62.836zm0-110.672c-26.376 0-47.835 21.459-47.835 47.836s21.459 47.836 47.835 47.836c26.377 0 47.836-21.459 47.836-47.836s-21.459-47.836-47.836-47.836z" fill="#2115c2"/></g><g><path d="m350.056 316.255c-34.647 0-62.835-28.188-62.835-62.836s28.188-62.836 62.835-62.836c34.648 0 62.836 28.188 62.836 62.836s-28.188 62.836-62.836 62.836zm0-110.672c-26.376 0-47.835 21.459-47.835 47.836s21.459 47.836 47.835 47.836c26.377 0 47.836-21.459 47.836-47.836s-21.459-47.836-47.836-47.836z" fill="#2115c2"/></g><g fill="#ff9bff"><circle cx="69.594" cy="158.138" r="16.958"/><circle cx="69.594" cy="348.701" r="16.958"/><circle cx="388.559" cy="158.138" r="16.958"/><circle cx="388.559" cy="348.701" r="16.958"/></g><path d="m297.965 141.18h-137.778c-6.188 0-11.205 5.017-11.205 11.205v11.505c0 6.188 5.017 11.205 11.205 11.205h137.778c6.188 0 11.205-5.017 11.205-11.205v-11.505c.001-6.188-5.016-11.205-11.205-11.205z" fill="#7181ff"/><g><path d="m69.594 182.596c-13.486 0-24.458-10.972-24.458-24.458s10.972-24.458 24.458-24.458 24.458 10.972 24.458 24.458-10.972 24.458-24.458 24.458zm0-33.916c-5.215 0-9.458 4.243-9.458 9.458s4.243 9.458 9.458 9.458 9.458-4.243 9.458-9.458-4.243-9.458-9.458-9.458z" fill="#e207b9"/></g><g><path d="m69.594 373.158c-13.486 0-24.458-10.972-24.458-24.458 0-13.485 10.972-24.457 24.458-24.457s24.458 10.972 24.458 24.457c-.001 13.487-10.972 24.458-24.458 24.458zm0-33.915c-5.215 0-9.458 4.242-9.458 9.457s4.243 9.458 9.458 9.458 9.458-4.243 9.458-9.458-4.243-9.457-9.458-9.457z" fill="#e207b9"/></g><g><path d="m388.559 182.596c-13.486 0-24.458-10.972-24.458-24.458s10.972-24.458 24.458-24.458 24.458 10.972 24.458 24.458-10.972 24.458-24.458 24.458zm0-33.916c-5.215 0-9.458 4.243-9.458 9.458s4.243 9.458 9.458 9.458 9.458-4.243 9.458-9.458-4.243-9.458-9.458-9.458z" fill="#e207b9"/></g><g><path d="m388.559 373.158c-13.486 0-24.458-10.972-24.458-24.458 0-13.485 10.972-24.457 24.458-24.457s24.458 10.972 24.458 24.457c0 13.487-10.972 24.458-24.458 24.458zm0-33.915c-5.215 0-9.458 4.242-9.458 9.457s4.243 9.458 9.458 9.458 9.458-4.243 9.458-9.458-4.243-9.457-9.458-9.457z" fill="#e207b9"/></g><g><path d="m297.965 182.596h-137.777c-10.314 0-18.706-8.391-18.706-18.705v-11.506c0-10.314 8.391-18.705 18.706-18.705h137.778c10.314 0 18.705 8.391 18.705 18.705v11.506c-.001 10.314-8.392 18.705-18.706 18.705zm-137.777-33.916c-2.043 0-3.706 1.662-3.706 3.705v11.506c0 2.043 1.662 3.705 3.706 3.705h137.778c2.043 0 3.705-1.662 3.705-3.705v-11.506c0-2.043-1.662-3.705-3.705-3.705z" fill="#2115c2"/></g><path d="m261.933 308.755h-65.714c-26.088 0-47.237 21.149-47.237 47.237v41.895h160.189v-41.895c0-26.088-21.149-47.237-47.238-47.237z" fill="#ff9bff"/><path d="m451.949 101.451h-53.847-338.051c-25.995 0-47.144 21.148-47.144 47.144v209.648c0 25.995 21.149 47.144 47.144 47.144h338.05 53.847c25.995 0 47.144-21.148 47.144-47.144v-209.648c.001-25.995-21.148-47.144-47.143-47.144zm-424.042 256.792v-209.648c0-17.724 14.42-32.144 32.144-32.144h338.05c17.724 0 32.144 14.42 32.144 32.144v209.648c0 17.724-14.42 32.144-32.144 32.144h-81.431v-34.395c0-30.183-24.555-54.737-54.737-54.737h-65.714c-30.182 0-54.737 24.555-54.737 54.737v34.395h-81.431c-17.724 0-32.144-14.42-32.144-32.144zm128.575 32.144v-34.395c0-21.911 17.826-39.737 39.737-39.737h65.714c21.911 0 39.737 17.826 39.737 39.737v34.395zm327.611-32.144c0 17.724-14.42 32.144-32.144 32.144h-19.39c8.116-8.678 12.687-20.192 12.687-32.144v-209.648c0-12.179-4.733-23.638-12.687-32.144h19.39c17.724 0 32.144 14.42 32.144 32.144z" fill="#e207b9"/></g></svg>