<svg id="Capa_1" enable-background="new 0 0 512 512" height="512" viewBox="0 0 512 512" width="512" xmlns="http://www.w3.org/2000/svg"><g><path d="m408.293 12.218h-347.997c-29.158 0-52.796 23.637-52.796 52.796v265.319c0 29.159 23.638 52.796 52.796 52.796h56.033c-2.317-4.202-2.52-9.57.424-14.229l17.907-28.339c2.564-4.057 7.028-6.517 11.827-6.517h175.61c4.799 0 9.264 2.46 11.827 6.517l17.907 28.339c2.944 4.659 2.741 10.027.424 14.229h56.038c29.159 0 52.796-23.638 52.796-52.796v-265.319c0-29.159-23.638-52.796-52.796-52.796z" fill="#ffceff"/><path d="m72.134 67.955h324.321v81.122h-324.321z" fill="#ffff6f"/><circle cx="286.199" cy="100.183" fill="#f90" r="11.013"/><g><path d="m257.614 127.029h-46.639c-4.143 0-7.5-3.358-7.5-7.5s3.357-7.5 7.5-7.5h46.639c4.143 0 7.5 3.358 7.5 7.5s-3.357 7.5-7.5 7.5z" fill="#f90"/></g><circle cx="182.39" cy="100.183" fill="#f90" r="11.013"/><path d="m451.704 12.218h-43.411c29.159 0 52.796 23.638 52.796 52.796v265.319c0 29.159-23.638 52.796-52.796 52.796h43.411c29.159 0 52.796-23.638 52.796-52.796v-265.319c0-29.159-23.638-52.796-52.796-52.796z" fill="#ff9bff"/><path d="m72.134 149.077v114.009c0 20.4 16.538 36.938 36.938 36.938h250.445c20.4 0 36.938-16.538 36.938-36.938v-114.009z" fill="#ff9bff"/><path d="m310.178 181.705h-151.767c-23.625 0-42.846 19.221-42.846 42.846s19.221 42.845 42.846 42.845h151.767c23.625 0 42.846-19.22 42.846-42.845s-19.221-42.846-42.846-42.846zm-151.767 70.691c-15.354 0-27.846-12.491-27.846-27.845s12.491-27.846 27.846-27.846 27.846 12.492 27.846 27.846-12.491 27.845-27.846 27.845zm119.229 0h-86.69c6.459-7.524 10.307-17.413 10.307-27.845 0-9.998-3.513-19.913-10.308-27.846h86.69c-6.786 7.934-10.307 17.853-10.307 27.846.001 10 3.537 19.946 10.308 27.845zm32.538 0c-15.354 0-27.845-12.491-27.845-27.845s12.491-27.846 27.845-27.846 27.846 12.492 27.846 27.846-12.492 27.845-27.846 27.845z" fill="#e207b9"/><g><path d="m359.518 307.524h-250.446c-24.504 0-44.438-19.935-44.438-44.438v-114.008c0-4.142 3.357-7.5 7.5-7.5h7.5l154.658 4.205 154.663-4.205h7.5c4.143 0 7.5 3.358 7.5 7.5v114.009c0 24.502-19.934 44.437-44.437 44.437zm-279.884-150.946v106.509c0 16.232 13.206 29.438 29.438 29.438h250.445c16.231 0 29.438-13.206 29.438-29.438v-106.509l-7.73-1.649-146.934-2.744-151.249 1.829z" fill="#e207b9"/></g><g><path d="m396.455 156.578h-324.321c-4.143 0-7.5-3.358-7.5-7.5v-81.122c0-4.142 3.357-7.5 7.5-7.5h324.321c4.143 0 7.5 3.358 7.5 7.5v81.122c0 4.142-3.357 7.5-7.5 7.5zm-316.821-15h309.321v-66.122h-309.321z" fill="#f90"/></g><g fill="#e207b9"><circle cx="52.453" cy="48.27" r="8.84"/><circle cx="416.136" cy="48.27" r="8.84"/><circle cx="52.453" cy="347.077" r="8.84"/><circle cx="416.136" cy="347.077" r="8.84"/></g><g><path d="m323.622 390.389v85.24c0 13.339-10.814 24.153-24.153 24.153h-40.317c-13.339 0-24.153-10.814-24.153-24.153s10.814-24.153 24.153-24.153h16.164v-61.086h48.306z" fill="#9448f5"/></g><g><path d="m211.21 390.389v85.24c0 13.339-10.814 24.153-24.153 24.153h-40.317c-13.339 0-24.153-10.814-24.153-24.153s10.814-24.153 24.153-24.153h16.164v-61.086h48.306z" fill="#9448f5"/></g><g><g><path d="m299.469 507.282h-40.317c-17.454 0-31.653-14.2-31.653-31.653s14.199-31.653 31.653-31.653h8.664v-53.586c0-4.142 3.357-7.5 7.5-7.5h48.307c4.143 0 7.5 3.358 7.5 7.5v85.24c-.001 17.453-14.2 31.652-31.654 31.652zm-40.318-48.306c-9.183 0-16.653 7.471-16.653 16.653s7.471 16.653 16.653 16.653h40.317c9.183 0 16.653-7.471 16.653-16.653v-77.74h-33.307v53.586c0 4.142-3.357 7.5-7.5 7.5h-16.163z" fill="#6d00ca"/></g></g><g><g><path d="m187.057 507.282h-40.317c-17.454 0-31.653-14.2-31.653-31.653s14.199-31.653 31.653-31.653h8.664v-53.586c0-4.142 3.357-7.5 7.5-7.5h48.307c4.143 0 7.5 3.358 7.5 7.5v85.24c-.001 17.453-14.2 31.652-31.654 31.652zm-40.318-48.306c-9.183 0-16.653 7.471-16.653 16.653s7.471 16.653 16.653 16.653h40.317c9.183 0 16.653-7.471 16.653-16.653v-77.74h-33.307v53.586c0 4.142-3.357 7.5-7.5 7.5h-16.163z" fill="#6d00ca"/></g></g><path d="m162.903 390.389h48.307v32.276h-48.307z" fill="#6d00ca"/><path d="m275.315 390.389h48.307v32.276h-48.307z" fill="#6d00ca"/><path d="m351.831 368.9-17.907-28.339c-2.564-4.057-7.028-6.517-11.827-6.517h-175.61c-4.799 0-9.264 2.46-11.827 6.517l-17.907 28.339c-5.886 9.316.808 21.464 11.827 21.464h211.423c11.02 0 17.714-12.148 11.828-21.464z" fill="#ff9bff"/><path d="m451.704 4.718h-43.411-347.997c-33.247 0-60.296 27.049-60.296 60.296v265.318c0 33.248 27.049 60.296 60.296 60.296h52.189c4.018 4.591 9.764 7.235 16.095 7.235h211.423c6.332 0 12.078-2.644 16.095-7.235h52.195 43.411c33.247 0 60.296-27.049 60.296-60.296v-265.318c0-33.247-27.049-60.296-60.296-60.296zm-111.701 378.146h-211.423c-5.093 0-8.228-5.62-5.486-9.958l17.906-28.34c1.196-1.893 3.247-3.023 5.486-3.023h175.61c2.239 0 4.29 1.13 5.487 3.024l17.906 28.339c2.743 4.341-.395 9.958-5.486 9.958zm68.29-7.235h-46.768c-.121-3.514-1.242-7.391-3.354-10.735 0 0 0 0-.001 0l-17.906-28.339c-3.961-6.269-10.753-10.012-18.168-10.012h-175.61c-7.415 0-14.207 3.743-18.168 10.011l-17.905 28.339c-2.093 3.312-3.23 7.142-3.355 10.735h-46.762c-24.977 0-45.296-20.32-45.296-45.296v-265.318c0-24.977 20.319-45.296 45.296-45.296h347.997c24.977 0 45.296 20.32 45.296 45.296v265.318c0 24.977-20.319 45.297-45.296 45.297zm88.707-45.296c0 24.977-20.319 45.296-45.296 45.296h-3.654c13.048-11.466 20.539-27.99 20.539-45.296v-265.319c0-17.836-7.866-34.159-20.539-45.296h3.654c24.977 0 45.296 20.32 45.296 45.296z" fill="#e207b9"/></g></svg>