<svg id="Capa_1" enable-background="new 0 0 512 512" height="512" viewBox="0 0 512 512" width="512" xmlns="http://www.w3.org/2000/svg"><g><path d="m97.115 258.47c-11.013-11.013-28.869-11.013-39.882 0l-41.489 41.489c-11.013 11.013-11.013 28.869 0 39.883l21 21c31.386-35.558 52.915-65.072 70.814-91.929z" fill="#9448f5"/><path d="m300.978 15.743c-11.013-11.013-28.869-11.013-39.882 0l-41.489 41.489c-11.013 11.013-11.013 28.869 0 39.883l8.497 8.497c2.023-2.07 4.074-4.153 6.186-6.264 28.34-28.34 58.81-48.125 88.732-61.562z" fill="#9448f5"/><path d="m496.257 211.022-22.043-22.043c-13.437 29.922-33.221 60.392-61.561 88.732-2.112 2.112-4.194 4.162-6.264 6.185l8.497 8.497c11.013 11.013 28.869 11.013 39.882 0l41.489-41.489c11.013-11.013 11.013-28.869 0-39.882z" fill="#9448f5"/><path d="m253.53 414.885-10.443-10.443c-26.856 17.9-56.371 39.429-91.929 70.815l21 21c11.013 11.013 28.869 11.013 39.882 0l41.489-41.489c11.014-11.014 11.014-28.87.001-39.883z" fill="#9448f5"/><path d="m499.304 71.709c-.362-32.448-26.565-58.651-59.014-59.014-55.589-.62-137.094 17.743-206.002 86.652-98.938 98.938-98.888 151.021-201.318 265.751-19.529 21.874-18.512 55.219 2.223 75.954l35.754 35.754c20.735 20.735 54.08 21.752 75.954 2.223 114.73-102.43 166.813-102.38 265.751-201.319 68.909-68.907 87.272-150.412 86.652-206.001z" fill="#ff9bff"/><g><path d="m36.743 368.342c-1.986 0-3.895-.788-5.304-2.196l-20.999-21c-13.92-13.921-13.92-36.57 0-50.491l41.489-41.489c13.952-13.952 36.537-13.954 50.49.001l-.001-.001 10.443 10.442c2.528 2.529 2.921 6.489.939 9.464-22.217 33.335-44.248 61.936-71.432 92.733-1.37 1.553-3.321 2.469-5.39 2.533-.079.003-.157.004-.235.004zm25.794-104.569-41.489 41.49c-8.091 8.089-8.092 21.184 0 29.274l15.332 15.333c22.972-26.448 42.281-51.568 61.512-80.016l-6.08-6.08-.001-.001c-8.091-8.09-21.184-8.09-29.274 0z" fill="#6d00ca"/></g><g><path d="m222.799 110.916-8.497-8.497c-13.92-13.921-13.92-36.57 0-50.491l41.489-41.489c13.922-13.919 36.571-13.919 50.491 0l22.042 22.042c3.71 3.712 2.554 9.998-2.232 12.146-31.89 14.32-60.993 34.515-86.5 60.023-2.091 2.091-4.122 4.154-6.126 6.204-2.907 2.977-7.704 3.023-10.667.062zm43.6-89.869-41.489 41.489c-8.091 8.089-8.092 21.184 0 29.274l3.155 3.155c.306-.307.612-.614.92-.923 24.176-24.176 51.446-43.819 81.19-58.496l-14.501-14.5c-8.089-8.089-21.185-8.091-29.275.001z" fill="#6d00ca"/></g><g><path d="m434.826 308.154c-9.537 0-18.502-3.714-25.245-10.458l-8.497-8.496c-1.417-1.417-2.209-3.343-2.197-5.347s.824-3.92 2.258-5.321c2.05-2.004 4.113-4.034 6.204-6.126 25.508-25.508 45.702-54.61 60.023-86.5 1.01-2.25 3.062-3.859 5.487-4.305 2.426-.44 4.915.33 6.659 2.073l22.043 22.042c.001 0 .001.001.001.001 13.919 13.92 13.918 36.57-.001 50.49l-41.489 41.489c-6.743 6.744-15.709 10.458-25.246 10.458zm-17.792-24.219 3.155 3.154c3.91 3.91 9.108 6.064 14.638 6.064s10.727-2.153 14.637-6.063l41.489-41.49c8.072-8.071 8.072-21.204.001-29.275l-14.501-14.5c-14.677 29.743-34.319 57.013-58.495 81.19-.309.308-.617.614-.924.92z" fill="#6d00ca"/></g><g><path d="m166.855 501.561-21-21c-1.464-1.464-2.257-3.468-2.193-5.537s.981-4.02 2.533-5.39c30.793-27.181 59.394-49.211 92.733-71.432 2.975-1.985 6.935-1.59 9.464.938l10.443 10.443c13.92 13.92 13.919 36.57-.001 50.491l-41.489 41.489c-13.921 13.916-36.569 13.917-50.49-.002zm-4.726-25.941 15.334 15.333c8.071 8.071 21.203 8.071 29.273 0l41.489-41.489c8.072-8.071 8.073-21.204.001-29.274l-6.08-6.081c-28.452 19.232-53.572 38.54-80.017 61.511z" fill="#6d00ca"/></g><g><path d="m65.644 482.111-35.755-35.754c-23.557-23.558-24.662-61.445-2.514-86.254 48.287-54.086 73.312-93.666 97.513-131.943 26.541-41.977 51.609-81.628 104.097-134.116 81.412-81.412 174.955-89.217 211.39-88.849 17.665.197 34.271 7.184 46.759 19.671 12.488 12.488 19.474 29.094 19.671 46.759.406 36.439-7.438 129.979-88.848 211.39-52.489 52.488-92.139 77.557-134.117 104.098-38.277 24.2-77.858 49.225-131.943 97.512-24.76 22.104-62.65 21.089-86.253-2.514zm372.145-461.929c-36.115 0-122.556 8.829-198.196 84.469-51.308 51.307-75.944 90.273-102.026 131.525-24.526 38.793-49.888 78.906-99.002 133.917-16.855 18.878-16.006 47.718 1.932 65.655l35.754 35.754c17.939 17.939 46.778 18.784 65.655 1.932 55.011-49.114 95.125-74.476 133.917-99.002 41.254-26.082 80.219-50.718 131.526-102.026 77.383-77.382 84.841-166.073 84.455-200.614-.152-13.722-5.578-26.62-15.277-36.32-9.699-9.699-22.597-15.125-36.32-15.277-.778-.008-1.586-.013-2.418-.013z" fill="#e207b9"/></g><g fill="#ddbeff"><circle cx="137.373" cy="327.549" r="15.576"/><circle cx="83.817" cy="381.105" r="15.576"/><circle cx="182.756" cy="372.933" r="15.576"/><circle cx="129.201" cy="426.488" r="15.576"/><circle cx="328.903" cy="136.02" r="15.576"/><circle cx="382.458" cy="82.464" r="15.576"/><circle cx="374.286" cy="181.403" r="15.576"/><circle cx="427.841" cy="127.848" r="15.576"/></g><g><path d="m121.056 343.868c-9.018-9.02-9.021-23.616.001-32.636 8.995-8.998 23.635-8.997 32.634 0 8.997 8.998 8.997 23.637 0 32.635-8.996 8.997-23.636 8.998-32.635.001zm10.608-22.028c-3.157 3.155-3.158 8.262 0 11.42 3.147 3.149 8.272 3.149 11.419 0 3.149-3.149 3.149-8.272 0-11.42-3.147-3.149-8.272-3.149-11.419 0z" fill="#6d00ca"/></g><g><path d="m67.5 397.423c-8.998-8.999-8.998-23.638-.001-32.636 9-8.996 23.638-8.996 32.636 0 8.997 8.998 8.997 23.637 0 32.635s-23.636 8.998-32.635.001zm10.606-22.028c-3.148 3.148-3.148 8.271.001 11.421 3.148 3.146 8.27 3.149 11.42-.001 3.149-3.149 3.149-8.272 0-11.42-3.146-3.148-8.27-3.149-11.421 0z" fill="#6d00ca"/></g><g><path d="m166.439 389.251c-8.997-8.998-8.997-23.637 0-32.635 9.019-9.019 23.614-9.02 32.634 0s.001.002.001.001c9.019 9.019 9.02 23.615-.001 32.634-8.994 8.995-23.635 8.997-32.634 0zm10.608-22.028c-3.149 3.149-3.149 8.272 0 11.42 3.147 3.149 8.272 3.149 11.419 0 3.156-3.154 3.159-8.261.001-11.419l-.001-.001c-3.156-3.156-8.263-3.157-11.419 0z" fill="#6d00ca"/></g><g><path d="m112.883 442.806c-8.997-8.998-8.997-23.637 0-32.635 9.019-9.019 23.615-9.02 32.635 0v.001c8.997 8.997 8.997 23.636 0 32.634-8.998 8.996-23.636 8.997-32.635 0zm10.608-22.028c-3.149 3.149-3.149 8.272 0 11.42 3.147 3.149 8.272 3.149 11.419 0 3.149-3.148 3.149-8.271 0-11.419 0-.001 0-.001 0-.001-3.156-3.156-8.262-3.157-11.419 0z" fill="#6d00ca"/></g><g><path d="m312.585 152.337c-8.997-8.998-8.997-23.637 0-32.635 9.018-9.018 23.615-9.021 32.635.001 9.018 9.016 9.021 23.614-.001 32.634-8.995 8.997-23.635 8.997-32.634 0zm10.608-22.027c-3.149 3.149-3.149 8.272 0 11.42 3.147 3.149 8.272 3.149 11.419 0 3.156-3.154 3.159-8.261.001-11.419-3.155-3.155-8.261-3.16-11.42-.001z" fill="#6d00ca"/></g><g><path d="m366.14 98.782c-8.997-8.998-8.997-23.637 0-32.635 9.018-9.018 23.615-9.021 32.635.001 9.018 9.016 9.021 23.614-.001 32.634-8.994 8.996-23.635 8.997-32.634 0zm10.608-22.028c-3.149 3.149-3.149 8.272 0 11.42 3.147 3.149 8.272 3.149 11.419 0 3.156-3.154 3.159-8.261.001-11.419-3.155-3.155-8.261-3.16-11.42-.001z" fill="#6d00ca"/></g><g><path d="m357.968 197.72c-8.997-8.998-8.997-23.637 0-32.635 8.998-8.995 23.637-8.997 32.635 0 8.998 8.998 8.998 23.637.001 32.635-8.999 8.997-23.638 8.997-32.636 0zm10.607-22.027c-3.148 3.148-3.148 8.271.001 11.419s8.271 3.15 11.42 0c3.149-3.148 3.149-8.271 0-11.419-3.147-3.148-8.272-3.148-11.421 0z" fill="#6d00ca"/></g><g><path d="m411.523 144.165c-8.997-8.998-8.997-23.637 0-32.635 9.001-8.997 23.639-8.995 32.636 0 8.997 8.998 8.997 23.637 0 32.635-9.019 9.019-23.614 9.02-32.636 0zm10.607-22.027c-3.148 3.148-3.148 8.271.001 11.419 3.157 3.157 8.263 3.158 11.42.001 3.149-3.149 3.149-8.272 0-11.42-3.147-3.148-8.27-3.149-11.421 0z" fill="#6d00ca"/></g><circle cx="297.718" cy="207.117" fill="#e207b9" r="13.39"/><g><path d="m244.374 293.726c-2.929-2.93-2.929-7.678 0-10.608l40.096-40.096c2.93-2.928 7.678-2.928 10.608 0 2.929 2.93 2.929 7.678 0 10.608l-40.096 40.096c-2.93 2.929-7.678 2.928-10.608 0z" fill="#e207b9"/></g><circle cx="208.471" cy="296.365" fill="#e207b9" r="13.39"/></g></svg>