<svg id="Capa_1" enable-background="new 0 0 512 512" height="512" viewBox="0 0 512 512" width="512" xmlns="http://www.w3.org/2000/svg"><g><path d="m454.668 56.63v-49.13c-28.788 0-52.569 21.383-56.362 49.13z" fill="#ffff6f"/><path d="m483.96 56.63h-434.807c-9.933 0-17.985 8.052-17.985 17.985 0 23.211 18.817 42.028 42.028 42.028h386.722c23.211 0 42.028-18.817 42.028-42.028-.001-9.933-8.053-17.985-17.986-17.985z" fill="#ffff6f"/><path d="m483.96 49.13h-21.793v-41.63c0-4.143-3.358-7.5-7.5-7.5-29.808 0-55.615 20.708-62.55 49.13h-342.964c-14.052 0-25.485 11.433-25.485 25.485 0 27.31 22.218 49.527 49.528 49.527h386.722c27.31 0 49.528-22.218 49.528-49.527-.001-14.052-11.433-25.485-25.486-25.485zm-36.792-33.555v33.555h-39.48c5.733-17.605 21.101-30.712 39.48-33.555zm12.749 93.568h-386.721c-19.039 0-34.528-15.489-34.528-34.527 0-5.781 4.704-10.485 10.485-10.485h434.808c5.781 0 10.485 4.704 10.485 10.485-.001 19.037-15.49 34.527-34.529 34.527z" fill="#f90"/><path d="m501.945 168.022v165.493h-264.385v-165.493c0-28.375 23.004-51.379 51.379-51.379h161.627c28.375 0 51.379 23.004 51.379 51.379z" fill="#f90"/><path d="m82.547 116.643c-40.036 0-72.493 32.456-72.493 72.492v144.38h227.506v-165.493c0-28.375 23.004-51.379 51.379-51.379z" fill="#ffd600"/><path d="m428.859 155.7h-118.213c-16.469 0-29.82 13.351-29.82 29.82v66.602c0 16.469 13.351 29.82 29.82 29.82h118.213c16.469 0 29.82-13.351 29.82-29.82v-66.602c0-16.47-13.351-29.82-29.82-29.82z" fill="#88f8d8"/><path d="m168.151 155.7h-66.737c-28.886 0-52.302 23.417-52.302 52.302v57.396c0 17.225 13.964 31.189 31.189 31.189h87.851c17.225 0 31.189-13.964 31.189-31.189v-78.51c-.001-17.224-13.965-31.188-31.19-31.188z" fill="#88f8d8"/><path d="m237.56 378.889v-45.374h-227.505v45.96c0 28.375 23.004 51.379 51.379 51.379h128.901c3.926-25.324 22.745-45.723 47.225-51.965z" fill="#ffd600"/><path d="m237.56 333.515v45.374c5.056-1.289 10.352-1.978 15.809-1.978 31.882 0 58.298 23.388 63.035 53.943h47.617c4.737-30.555 31.153-53.943 63.035-53.943 26.684 0 49.53 16.39 59.051 39.647 9.755-9.352 15.839-22.503 15.839-37.083v-45.96z" fill="#f90"/><circle cx="68.488" cy="382.185" fill="#ffff6f" r="19.847"/><circle cx="157.579" cy="382.185" fill="#ffff6f" r="19.847"/><circle cx="417.026" cy="215.026" fill="#007ea8" r="10.03"/><g><path d="m390.992 240.146h-42.478c-4.142 0-7.5-3.357-7.5-7.5s3.358-7.5 7.5-7.5h42.478c4.142 0 7.5 3.357 7.5 7.5s-3.358 7.5-7.5 7.5z" fill="#007ea8"/></g><circle cx="322.48" cy="215.026" fill="#007ea8" r="10.03"/><g><path d="m428.859 289.441h-118.213c-20.578 0-37.32-16.742-37.32-37.32v-66.601c0-20.578 16.742-37.319 37.32-37.319h118.213c20.578 0 37.319 16.741 37.319 37.319v66.602c.001 20.577-16.74 37.319-37.319 37.319zm-118.213-126.241c-12.307 0-22.32 10.013-22.32 22.319v66.602c0 12.308 10.013 22.32 22.32 22.32h118.213c12.307 0 22.319-10.013 22.319-22.32v-66.601c0-12.307-10.012-22.319-22.319-22.319h-118.213z" fill="#007ea8"/></g><g><path d="m168.151 304.087h-87.851c-21.333 0-38.689-17.355-38.689-38.688v-57.396c0-32.975 26.827-59.802 59.802-59.802h66.737c21.333 0 38.689 17.355 38.689 38.688v78.51c.001 21.332-17.355 38.688-38.688 38.688zm-66.737-140.887c-24.704 0-44.802 20.098-44.802 44.802v57.396c0 13.062 10.627 23.688 23.689 23.688h87.851c13.062 0 23.689-10.627 23.689-23.688v-78.51c0-13.062-10.627-23.688-23.689-23.688z" fill="#007ea8"/></g><g fill="#9448f5"><path d="m253.374 376.909c-35.24 0-63.8 28.56-63.8 63.8 0 35.229 28.56 63.79 63.8 63.79 35.23 0 63.79-28.56 63.79-63.79 0-35.24-28.56-63.8-63.79-63.8z"/><path d="m427.054 376.909c-35.23 0-63.79 28.56-63.79 63.8 0 35.229 28.56 63.79 63.79 63.79s63.8-28.56 63.8-63.79c0-35.24-28.57-63.8-63.8-63.8z"/><path d="m450.524 440.71c0 12.96-10.51 23.47-23.47 23.47s-23.47-10.51-23.47-23.47c0-12.97 10.51-23.47 23.47-23.47 12.96-.001 23.47 10.499 23.47 23.47z"/><path d="m61.434 430.855c-14.538 0-27.656-6.049-37.003-15.755-3.441 7.839-5.363 16.496-5.363 25.606 0 35.233 28.562 63.794 63.794 63.794 35.233 0 63.794-28.561 63.794-63.794 0-3.351-.262-6.64-.759-9.851z"/></g><g><path d="m82.862 512c-39.312 0-71.294-31.982-71.294-71.294 0-9.926 2.017-19.555 5.996-28.62 1.005-2.292 3.087-3.931 5.551-4.37 2.46-.436 4.983.379 6.719 2.182 8.357 8.678 19.579 13.457 31.6 13.457h84.463c3.698 0 6.845 2.696 7.412 6.351.563 3.629.848 7.33.848 11.001-.001 39.311-31.983 71.293-71.295 71.293zm-54.844-84.033c-.964 4.15-1.45 8.409-1.45 12.739 0 31.041 25.253 56.294 56.294 56.294s56.294-25.253 56.294-56.294c0-.782-.017-1.567-.049-2.352h-77.673c-12.142 0-23.674-3.629-33.416-10.387z" fill="#6d00ca"/></g><path d="m450.566 109.143h-161.627-206.392c-44.108 0-79.993 35.885-79.993 79.993v190.34c0 32.466 26.413 58.879 58.879 58.879h128.901c3.699 0 6.845-2.696 7.412-6.351 3.453-22.277 19.809-40.273 41.667-45.847 4.542-1.158 9.237-1.745 13.956-1.745 13.516 0 26.582 4.86 36.792 13.687 10.109 8.739 16.796 20.78 18.831 33.905.567 3.654 3.713 6.351 7.412 6.351h47.617c3.699 0 6.845-2.696 7.412-6.351 2.035-13.125 8.722-25.166 18.832-33.905 10.209-8.826 23.276-13.687 36.792-13.687 22.954 0 43.408 13.733 52.109 34.988.94 2.297 2.957 3.98 5.385 4.495 2.427.515 4.955-.206 6.746-1.923 11.703-11.221 18.148-26.313 18.148-42.497 0-4.735 0-205.065 0-211.453 0-32.466-26.413-58.879-58.879-58.879zm-161.627 15h161.627c24.195 0 43.879 19.685 43.879 43.88v157.993h-249.384v-157.994c0-24.195 19.684-43.879 43.878-43.879zm-271.384 64.993c0-35.837 29.156-64.993 64.993-64.993h167.172c-12.443 11.14-19.659 27.08-19.659 43.88v157.993h-212.506zm166.649 234.218h-122.77c-24.195 0-43.879-19.684-43.879-43.879v-38.46h212.506v32.296c-22.801 7.854-40.037 26.68-45.857 50.043zm310.241-43.878c0 8.496-2.385 16.589-6.846 23.555-12.858-20.74-35.529-33.618-60.542-33.618-17.118 0-33.667 6.158-46.602 17.34-11.15 9.639-19.013 22.458-22.559 36.603h-35.366c-3.546-14.145-11.409-26.964-22.559-36.603-12.934-11.182-29.484-17.34-46.602-17.34-2.781 0-5.556.161-8.309.482v-28.879h249.385z" fill="#f95116"/><g><path d="m68.488 409.532c-15.079 0-27.347-12.269-27.347-27.348s12.268-27.347 27.347-27.347 27.347 12.268 27.347 27.347-12.268 27.348-27.347 27.348zm0-39.694c-6.808 0-12.347 5.539-12.347 12.347 0 6.809 5.539 12.348 12.347 12.348s12.347-5.539 12.347-12.348c0-6.808-5.539-12.347-12.347-12.347z" fill="#f90"/></g><g><path d="m157.579 409.532c-15.079 0-27.347-12.269-27.347-27.348s12.268-27.347 27.347-27.347 27.347 12.268 27.347 27.347-12.268 27.348-27.347 27.348zm0-39.694c-6.808 0-12.347 5.539-12.347 12.347 0 6.809 5.539 12.348 12.347 12.348s12.347-5.539 12.347-12.348c0-6.808-5.539-12.347-12.347-12.347z" fill="#f90"/></g><g><path d="m253.37 512c-39.312 0-71.294-31.982-71.294-71.294s31.982-71.294 71.294-71.294 71.294 31.982 71.294 71.294-31.982 71.294-71.294 71.294zm0-127.588c-31.041 0-56.294 25.253-56.294 56.294s25.253 56.294 56.294 56.294 56.294-25.253 56.294-56.294-25.253-56.294-56.294-56.294z" fill="#6d00ca"/></g><g><path d="m427.056 512c-39.312 0-71.294-31.982-71.294-71.294s31.982-71.294 71.294-71.294 71.294 31.982 71.294 71.294-31.982 71.294-71.294 71.294zm0-127.588c-31.041 0-56.294 25.253-56.294 56.294s25.254 56.294 56.294 56.294c31.041 0 56.294-25.253 56.294-56.294s-25.253-56.294-56.294-56.294z" fill="#6d00ca"/></g><path d="m253.374 464.179c-12.97 0-23.48-10.51-23.48-23.47 0-12.97 10.51-23.47 23.48-23.47 12.96 0 23.47 10.5 23.47 23.47 0 12.961-10.51 23.47-23.47 23.47z" fill="#ddbeff"/><path d="m427.054 464.179c-12.96 0-23.47-10.51-23.47-23.47 0-12.97 10.51-23.47 23.47-23.47s23.47 10.5 23.47 23.47c0 12.961-10.51 23.47-23.47 23.47z" fill="#ddbeff"/><g><path d="m253.374 471.68c-17.083 0-30.98-13.893-30.98-30.97s13.897-30.971 30.98-30.971c17.077 0 30.97 13.894 30.97 30.971s-13.893 30.97-30.97 30.97zm0-46.941c-8.812 0-15.98 7.164-15.98 15.971 0 8.806 7.168 15.97 15.98 15.97 8.806 0 15.97-7.164 15.97-15.97 0-8.807-7.164-15.971-15.97-15.971z" fill="#6d00ca"/></g><g><path d="m427.054 471.68c-17.077 0-30.97-13.893-30.97-30.97s13.893-30.971 30.97-30.971 30.97 13.894 30.97 30.971-13.893 30.97-30.97 30.97zm0-46.941c-8.806 0-15.97 7.164-15.97 15.971 0 8.806 7.164 15.97 15.97 15.97s15.97-7.164 15.97-15.97c0-8.807-7.164-15.971-15.97-15.971z" fill="#6d00ca"/></g></g></svg>