<svg id="Capa_1" enable-background="new 0 0 512 512" height="512" viewBox="0 0 512 512" width="512" xmlns="http://www.w3.org/2000/svg"><g><path d="m416.047 162.373-39.87-39.87c-10.058-10.058-23.7-15.709-37.924-15.709h-164.506c-14.224 0-27.866 5.651-37.924 15.709l-39.87 39.87c-10.058 10.058-15.709 23.7-15.709 37.924v111.407c0 14.224 5.651 27.866 15.709 37.924l39.87 39.87c10.058 10.058 23.7 15.708 37.924 15.708h164.505c14.224 0 27.866-5.651 37.924-15.708l39.87-39.87c10.058-10.058 15.708-23.7 15.708-37.924v-111.408c.001-14.224-5.649-27.865-15.707-37.923z" fill="#ffceff"/><path d="m367.923 189.69-19.064-19.064c-6.715-6.715-15.822-10.487-25.318-10.487h-135.082c-9.496 0-18.603 3.772-25.318 10.487l-19.064 19.064c-6.715 6.715-10.487 15.822-10.487 25.318v81.983c0 9.496 3.772 18.604 10.487 25.318l19.064 19.064c6.715 6.715 15.822 10.487 25.318 10.487h135.081c9.496 0 18.603-3.772 25.318-10.487l19.064-19.064c6.715-6.715 10.487-15.822 10.487-25.318v-81.983c.001-9.496-3.771-18.603-10.486-25.318z" fill="#88f8d8"/><g fill="#b98eff"><path d="m80.245 200.296c0-7.46 1.568-14.754 4.498-21.461h-18.865c-18.535 0-33.559 15.024-33.559 33.569v43.598h47.926z"/><path d="m80.245 311.704v-55.702h-47.926v43.598c0 18.535 15.024 33.569 33.559 33.569h18.866c-2.93-6.709-4.499-14.004-4.499-21.465z"/><path d="m431.755 200.296c0-7.46-1.568-14.754-4.498-21.461h18.865c18.535 0 33.559 15.024 33.559 33.569v43.598h-47.926z"/><path d="m431.755 311.704v-55.702h47.926v43.598c0 18.535-15.024 33.569-33.559 33.569h-18.866c2.93-6.709 4.499-14.004 4.499-21.465z"/></g><path d="m367.802 57.15h-223.604l1.154-9.234c2.891-23.093 22.522-40.416 45.8-40.416h129.697c23.278 0 42.909 17.323 45.799 40.416z" fill="#ff63ed"/><path d="m173.747 106.794h164.505c14.118 0 27.658 5.572 37.694 15.49l-8.145-65.134h-223.603l-8.145 65.134c10.037-9.918 23.576-15.49 37.694-15.49z" fill="#ff9bff"/><path d="m367.802 454.85h-223.604l1.154 9.234c2.89 23.093 22.521 40.416 45.799 40.416h129.697c23.278 0 42.909-17.323 45.799-40.416z" fill="#ff63ed"/><path d="m173.747 405.206h164.505c14.118 0 27.658-5.572 37.694-15.49l-8.145 65.134h-223.603l-8.145-65.134c10.037 9.918 23.576 15.49 37.694 15.49z" fill="#ff9bff"/><g><path d="m323.541 359.36h-135.082c-11.568 0-22.443-4.504-30.622-12.684l-19.064-19.063c-8.18-8.18-12.684-19.055-12.684-30.622v-81.982c0-11.567 4.504-22.442 12.684-30.622l19.064-19.064c8.178-8.179 19.053-12.683 30.621-12.683h135.081c11.568 0 22.443 4.504 30.622 12.684l19.064 19.063c8.18 8.18 12.684 19.055 12.684 30.622v81.982c0 11.567-4.504 22.442-12.684 30.622l-19.064 19.064c-8.178 8.179-19.052 12.683-30.62 12.683zm-135.082-191.72c-7.562 0-14.669 2.944-20.014 8.289l-19.065 19.065c-5.346 5.346-8.291 12.454-8.291 20.015v81.982c0 7.561 2.944 14.669 8.291 20.015l19.064 19.064c5.345 5.346 12.453 8.29 20.015 8.29h135.081c7.562 0 14.669-2.944 20.014-8.289l19.065-19.065c5.346-5.346 8.291-12.454 8.291-20.015v-81.982c0-7.561-2.944-14.669-8.291-20.015l-19.064-19.064c-5.345-5.346-12.453-8.29-20.015-8.29z" fill="#007ea8"/></g><path d="m88.543 329.935c-2.569-5.88-2.935-11.631-2.935-18l-.864-55.935 1.065-55.704c0-6.368 1.302-12.578 3.871-18.459 1.013-2.318 2.724-4.991 1.338-7.109-1.385-2.117-3.745-3.393-6.275-3.393h-18.865c-22.64 0-41.059 18.423-41.059 41.068v87.195c0 22.646 18.419 41.068 41.059 41.068h18.866c2.53 0 4.89-1.276 6.276-3.394 1.385-2.116-1.463-5.018-2.477-7.337zm-48.724-117.532c0-14.374 11.69-26.068 26.059-26.068h8.484c-1.075 4.559-1.617 9.226-1.617 13.961v48.205h-32.926zm26.059 113.264c-14.369 0-26.059-11.694-26.059-26.068v-36.098h32.926v48.203c0 4.736.542 9.403 1.618 13.963z" fill="#6d00ca"/><path d="m446.122 171.335h-18.865c-2.53 0-4.89 1.275-6.275 3.393-1.386 2.118.325 4.791 1.338 7.109 2.569 5.881 3.871 12.091 3.871 18.459v55.705 55.703c0 6.369-1.303 12.58-3.872 18.46-1.013 2.319-2.724 4.992-1.339 7.109 1.386 2.117 3.746 3.394 6.276 3.394h18.866c22.64 0 41.059-18.423 41.059-41.068 0-10.539 0-76.587 0-87.195 0-22.646-18.419-41.069-41.059-41.069zm0 15c14.369 0 26.059 11.694 26.059 26.068v36.098h-32.926v-48.205c0-4.735-.542-9.402-1.617-13.961zm26.059 113.264c0 14.374-11.69 26.068-26.059 26.068h-8.484c1.076-4.56 1.618-9.227 1.618-13.963v-48.203h32.926v36.098z" fill="#6d00ca"/><path d="m421.35 157.069-38.283-38.283-7.824-62.567-1.154-9.234c-3.352-26.786-26.24-46.985-53.241-46.985h-129.696c-27 0-49.889 20.199-53.241 46.985l-1.154 9.233-7.824 62.567-38.283 38.284c-11.546 11.547-17.905 26.898-17.905 43.227v111.408c0 16.328 6.359 31.68 17.905 43.227l38.283 38.283c1.07 8.559 4.184 33.461 8.978 71.802 3.352 26.785 26.24 46.984 53.241 46.984h129.696c27 0 49.889-20.199 53.241-46.985 4.894-39.144 7.731-61.828 8.978-71.801l38.283-38.283c11.546-11.547 17.905-26.898 17.905-43.227v-111.408c0-16.328-6.359-31.68-17.905-43.227zm-83.097-57.775h-164.505c-10.154 0-19.843 2.533-28.114 6.823l5.185-41.468h210.362l5.185 41.468c-8.435-4.384-18.093-6.823-28.113-6.823zm-185.459-50.446c2.415-19.297 18.905-33.848 38.358-33.848h129.696c19.453 0 35.942 14.551 38.357 33.847l.1.803h-206.611zm20.954 363.858h164.505c9.765 0 19.548-2.371 28.113-6.823l-5.185 41.468h-210.362l-5.185-41.468c8.886 4.609 18.645 6.823 28.114 6.823zm185.458 50.446c-2.415 19.297-18.905 33.848-38.358 33.848h-129.696c-19.453 0-35.942-14.551-38.357-33.847l-.1-.803h206.611zm65.049-151.448c0 12.322-4.798 23.906-13.512 32.619l-39.871 39.871c-.061.061-.125.117-.186.177-.004.004-.008.007-.012.01-8.989 8.883-20.637 13.324-32.422 13.324h-164.504c-12.114 0-23.661-4.666-32.422-13.324-.004-.004-.008-.006-.012-.01-.061-.06-.125-.116-.186-.177l-39.871-39.871c-8.713-8.713-13.512-20.297-13.512-32.619v-111.408c0-12.322 4.798-23.906 13.512-32.619l39.871-39.871c.061-.061.125-.117.186-.177.004-.004.008-.007.012-.01 8.699-8.597 20.222-13.324 32.422-13.324h164.505c12.194 0 23.714 4.719 32.422 13.324.007.007.015.013.023.02.058.057.118.11.176.167l39.871 39.871c8.713 8.713 13.512 20.297 13.512 32.619v111.408z" fill="#e207b9"/><circle cx="317.757" cy="249.888" fill="#007ea8" r="13.103"/><g><path d="m283.746 280.406h-55.492c-4.142 0-7.5-3.357-7.5-7.5s3.358-7.5 7.5-7.5h55.492c4.142 0 7.5 3.357 7.5 7.5s-3.358 7.5-7.5 7.5z" fill="#007ea8"/></g><circle cx="194.243" cy="249.888" fill="#007ea8" r="13.103"/></g></svg>