<svg id="Capa_1" enable-background="new 0 0 512 512" height="512" viewBox="0 0 512 512" width="512" xmlns="http://www.w3.org/2000/svg"><g><path d="m489.743 155.148h-120.501l-53.358-137.628h66.149c32.678 0 62.524 18.492 77.071 47.747l23.622 47.496c6.656 13.392 8.925 28.16 7.017 42.385z" fill="#88f8d8"/><path d="m369.242 155.148-90.403 248.742c-14.938 3.956-30.74 3.956-45.679 0l-90.403-248.742z" fill="#88f8d8"/><path d="m369.242 155.148h-226.485l53.359-137.628h119.768z" fill="#17d9c3"/><g><path d="m187.341 374.305-8.898-10.885v92.584h-16.228c-13.392 0-24.248 10.856-24.248 24.248s10.856 24.248 24.248 24.248h40.476c13.392 0 24.248-10.856 24.248-24.248v-78.257c-14.917-5.142-28.708-14.374-39.598-27.69z" fill="#f90"/></g><path d="m233.161 403.89c-17.288-4.568-33.431-14.436-45.819-29.586l-149.184-182.502c-8.774-10.732-14.135-23.462-15.902-36.654h120.501z" fill="#17d9c3"/><g><path d="m324.658 374.305c-9.354 11.439-20.85 19.862-33.362 25.271v56.428h-16.227c-13.392 0-24.248 10.856-24.248 24.248s10.856 24.248 24.248 24.248h40.476c13.392 0 24.248-10.856 24.248-24.248v-124.462z" fill="#f90"/></g><path d="m129.967 17.52c-16.54 0-32.35 4.744-45.822 13.217 4.34 4.643 10.088 7.882 16.781 9.295 4.546.96 7.89 4.82 7.89 9.467v.86c0 4.646-3.344 8.507-7.89 9.467-12.653 2.671-21.98 11.817-24.661 24.781-.936 4.524-4.947 7.751-9.567 7.751h-.621c-4.767 0-8.627-3.344-9.587-7.89-1.093-5.179-3.287-9.787-6.368-13.624l-20.849 41.919c-6.656 13.392-8.925 28.16-7.017 42.385h120.501l53.359-137.628z" fill="#88f8d8"/><path d="m369.242 155.148-90.403 248.742c17.288-4.568 33.431-14.436 45.819-29.586l74.857-91.576c-4.335-4.725-10.151-8.075-17.072-9.515-4.539-.944-7.794-4.94-7.794-9.576v-.521c0-4.721 3.228-8.732 7.752-9.668 12.967-2.682 22.115-12.014 24.783-24.672.957-4.542 4.821-7.879 9.464-7.879h.622c4.74 0 8.751 3.228 9.687 7.752 1.043 5.04 3.1 9.493 5.956 13.223l40.929-50.07c8.774-10.732 14.135-23.462 15.902-36.654z" fill="#17d9c3"/><circle cx="308.108" cy="196.257" fill="#007ea8" r="11.056"/><g><path d="m279.411 223.18h-46.822c-4.143 0-7.5-3.357-7.5-7.5s3.357-7.5 7.5-7.5h46.822c4.143 0 7.5 3.357 7.5 7.5s-3.357 7.5-7.5 7.5z" fill="#007ea8"/></g><circle cx="203.892" cy="196.257" fill="#007ea8" r="11.056"/><g><g><path d="m202.691 512h-40.476c-17.506 0-31.748-14.242-31.748-31.748s14.242-31.748 31.748-31.748h8.728v-85.084c0-3.171 1.994-5.999 4.98-7.063 2.982-1.067 6.32-.139 8.326 2.316l8.897 10.884c9.577 11.713 22.107 20.478 36.237 25.348 3.025 1.043 5.056 3.891 5.056 7.091v78.257c.001 17.505-14.241 31.747-31.748 31.747zm-40.475-48.496c-9.235 0-16.748 7.513-16.748 16.748s7.512 16.748 16.748 16.748h40.476c9.235 0 16.749-7.513 16.749-16.748v-73.072c-12.652-5.186-24.066-13.059-33.497-23.1v71.924c0 4.143-3.357 7.5-7.5 7.5z" fill="#f95116"/></g></g><path d="m226.94 433.57v-31.575c-14.918-5.142-28.709-14.375-39.598-27.69l-8.898-10.885v46.287c13.387 10.8 28.865 18.676 45.741 23.135z" fill="#f95116"/><g><g><path d="m315.545 512h-40.476c-17.506 0-31.748-14.242-31.748-31.748s14.242-31.748 31.748-31.748h8.728v-48.929c0-2.992 1.778-5.697 4.524-6.885 11.92-5.152 22.191-12.936 30.531-23.134l15.134-18.514c2.006-2.454 5.339-3.384 8.326-2.317 2.986 1.065 4.98 3.894 4.98 7.064v124.462c.001 17.507-14.241 31.749-31.747 31.749zm-40.476-48.496c-9.235 0-16.748 7.513-16.748 16.748s7.513 16.748 16.748 16.748h40.476c9.235 0 16.748-7.513 16.748-16.748v-103.437l-1.828 2.236s0 0-.001.001c-8.803 10.766-19.438 19.264-31.667 25.313v51.639c0 4.143-3.357 7.5-7.5 7.5zm49.589-89.199h.01z" fill="#f95116"/></g></g><path d="m291.296 399.576v32.274c18.182-5.372 34.651-14.748 48.496-27.531v-48.529l-15.135 18.515c-9.353 11.438-20.849 19.862-33.361 25.271z" fill="#f95116"/><path d="m489.441 109.423-23.622-47.496c-15.921-32.017-48.026-51.906-83.787-51.906-6.178 0-244.59 0-252.064 0-17.644 0-34.869 4.969-49.815 14.368-1.894 1.191-3.157 3.166-3.444 5.385-.288 2.22.431 4.451 1.959 6.086 5.438 5.818 14.539 9.799 22.648 11.511.935.197 1.939.947 1.939 2.129v.859c0 1.181-1.005 1.932-1.938 2.129-15.798 3.334-28.161 15.734-31.436 31.561-.212 1.025-2.107 1.585-3.182 1.585h-.621c-1.357 0-4.099-1.821-4.289-2.716-1.328-6.288-3.972-11.931-7.858-16.771-1.602-1.995-2.065-3.03-4.613-2.761-2.544.274-4.771 1.827-5.91 4.117l-20.851 41.921c-14.274 28.725-10.125 62.756 9.795 87.124l149.185 182.504c12.933 15.815 30.12 26.911 49.702 32.087.001 0 .002.001.003.001s.002 0 .004.001c16.261 4.305 33.378 4.271 49.509 0 .001 0 .002-.001.004-.001.001 0 .002-.001.003-.001 19.582-5.176 36.769-16.271 49.703-32.088l74.856-91.576c2.36-2.888 2.241-7.069-.28-9.817-5.491-5.985-12.457-8.944-20.75-10.67-1.056-.22-2.607-1.674-2.607-2.762l-.267-.9c0-1.153 1.094-2.714 2.138-2.93 15.831-3.275 26.957-14.753 30.288-30.556.239-1.135 1.793-2.406 2.804-2.406h.622c1.163 0 2.683 1.097 2.899 2.139 1.254 6.064 3.839 11.462 7.46 16.19 1.394 1.819 2.873 3.572 5.165 3.608.04.001.08.001.119.001 2.249 0 4.381-1.009 5.807-2.753l40.93-50.07c19.898-24.343 24.083-58.37 9.792-87.126zm-107.409-84.402c30.028 0 56.987 16.701 70.356 43.586l23.621 47.494c4.9 9.861 7.229 20.652 6.849 31.548h-108.48c-5.339-13.771-41.208-106.29-47.543-122.628zm-180.779 0h109.495c5.339 13.771 41.208 106.29 47.543 122.628h-204.581c6.334-16.339 42.199-108.846 47.543-122.628zm-165.265 91.082 13.814-27.773c2.441 6.893 8.836 10.259 16.275 10.259h.621c8.153 0 15.266-5.775 16.911-13.731 2.059-9.955 7.439-15.598 17.37-17.694 8.148-1.721 13.84-8.631 13.84-16.805v-.859c0-8.174-5.691-15.084-13.84-16.805-1.343-.284-1.145-.663-2.391-1.134 9.861-4.301 20.526-6.54 31.379-6.54h55.196c-6.334 16.338-42.199 108.845-47.543 122.628h-108.479c-.38-10.895 1.948-21.687 6.847-31.546zm157.16 253.455-149.183-182.503c-5.882-7.195-10.147-15.512-12.561-24.406h106.1c3.613 9.941 79.415 218.508 83.099 228.645-10.531-5.089-19.859-12.447-27.455-21.736zm45.685 27.981-85.369-234.891h205.072l-85.369 234.891c-11.301 2.427-23.033 2.427-34.334 0zm229.202-210.484-33.524 41.012c-.075-.31-.707 1.421-.772 1.107-1.646-7.958-8.809-13.733-17.031-13.733h-.622c-8.176 0-13.758 5.719-15.476 13.864-2.094 9.935-9.609 15.679-19.565 17.739-7.957 1.646-13.099 8.657-13.101 16.883l.001.508c0 8.144 6.228 13.948 14.203 15.608 2.949.613 4.445 2.199 6.868 3.679l-70.164 85.836c-7.597 9.289-16.925 16.648-27.455 21.736 3.685-10.139 79.487-218.708 83.099-228.645h106.1c-2.414 8.894-6.679 17.21-12.561 24.406z" fill="#007ea8"/><path d="m100.926 40.032c-12.653-2.671-21.98-11.817-24.661-24.781-.936-4.523-4.948-7.751-9.687-7.751h-.622c-4.642 0-8.506 3.336-9.464 7.879-2.668 12.658-11.815 21.99-24.783 24.672-4.524.936-7.752 4.947-7.752 9.668v.521c0 4.636 3.255 8.631 7.794 9.576 12.941 2.693 22.07 12.013 24.739 24.652.96 4.546 4.82 7.89 9.587 7.89h.621c4.62 0 8.631-3.228 9.567-7.751 2.681-12.964 12.008-22.11 24.661-24.781 4.546-.96 7.89-4.82 7.89-9.467v-.859c-.001-4.647-3.344-8.508-7.89-9.468z" fill="#ffff6f"/><g><path d="m66.698 99.857h-.621c-8.244 0-15.204-5.691-16.925-13.84-2.094-9.918-8.993-16.792-18.93-18.859-7.976-1.66-13.765-8.774-13.765-16.918v-.521c0-8.212 5.775-15.367 13.733-17.013 9.956-2.06 16.868-8.939 18.962-18.874 1.719-8.144 8.628-13.832 16.804-13.832h.622c8.223 0 15.386 5.775 17.031 13.733 2.059 9.953 8.936 16.864 18.865 18.961h.001c8.148 1.721 13.84 8.631 13.84 16.805v.859c0 8.174-5.691 15.084-13.84 16.805-9.931 2.097-16.808 9.008-18.866 18.963-1.645 7.956-8.758 13.731-16.911 13.731zm-.742-84.857c-1.012 0-1.886.792-2.125 1.927-3.331 15.802-14.771 27.193-30.602 30.469-1.043.216-1.771 1.171-1.771 2.323v.521c0 1.074.766 2.013 1.821 2.232 15.799 3.288 27.219 14.67 30.549 30.446.189.894.892 1.938 2.249 1.938h.621c1.075 0 2.01-.744 2.222-1.77 3.274-15.827 14.659-27.267 30.457-30.601.934-.197 1.938-.948 1.938-2.129v-.859c0-1.181-1.005-1.931-1.938-2.129-15.798-3.332-27.184-14.771-30.457-30.597-.216-1.042-1.179-1.771-2.342-1.771z" fill="#f90"/></g><path d="m451.617 253.43c-12.653-2.671-21.98-11.817-24.661-24.781-.936-4.524-4.947-7.752-9.687-7.752h-.622c-4.642 0-8.506 3.336-9.464 7.879-2.668 12.658-11.815 21.99-24.783 24.672-4.524.936-7.752 4.947-7.752 9.668v.521c0 4.636 3.255 8.631 7.794 9.576 12.941 2.693 22.07 12.013 24.739 24.652.96 4.546 4.82 7.89 9.587 7.89h.621c4.62 0 8.631-3.228 9.567-7.751 2.681-12.964 12.008-22.11 24.661-24.781 4.546-.96 7.89-4.82 7.89-9.467v-.859c0-4.647-3.344-8.507-7.89-9.467z" fill="#ffff6f"/><g><path d="m417.388 313.255h-.621c-8.246 0-15.205-5.691-16.925-13.842-2.094-9.916-8.993-16.79-18.929-18.857-7.976-1.66-13.765-8.774-13.765-16.918l-.001-.508c.002-8.227 5.777-15.381 13.733-17.026 9.957-2.06 16.869-8.939 18.963-18.874 1.716-8.144 8.626-13.832 16.803-13.832h.622c8.223 0 15.386 5.775 17.031 13.733 2.059 9.953 8.936 16.864 18.865 18.961h.001c8.148 1.721 13.84 8.631 13.84 16.805v.859c0 8.174-5.691 15.084-13.84 16.805-9.932 2.097-16.808 9.008-18.866 18.962-1.644 7.956-8.757 13.732-16.911 13.732zm-.741-84.858c-1.013 0-1.886.792-2.125 1.925-3.331 15.805-14.771 27.195-30.603 30.471-1.043.216-1.771 1.172-1.771 2.325l.001.506c0 1.088.766 2.026 1.821 2.246 15.797 3.288 27.218 14.669 30.549 30.445.189.896.891 1.939 2.248 1.939h.621c1.076 0 2.011-.744 2.223-1.77 3.272-15.826 14.658-27.267 30.457-30.601.934-.197 1.938-.948 1.938-2.129v-.859c0-1.181-1.005-1.931-1.938-2.129-15.798-3.334-27.184-14.773-30.457-30.599-.216-1.043-1.179-1.771-2.342-1.771h-.622z" fill="#f90"/></g></g></svg>