<svg id="Capa_1" enable-background="new 0 0 512 512" height="512" viewBox="0 0 512 512" width="512" xmlns="http://www.w3.org/2000/svg"><g><path d="m408.293 390.709c29.159 0 52.796-23.638 52.796-52.796v-136.318c0-29.159-23.638-52.796-52.796-52.796h-347.997c-29.159 0-52.796 23.638-52.796 52.796v136.319c0 29.159 23.638 52.796 52.796 52.796h347.997z" fill="#a4bcff"/><path d="m451.704 148.798h-43.411c29.159 0 52.796 23.638 52.796 52.796v136.319c0 29.159-23.638 52.796-52.796 52.796h43.411c29.159 0 52.796-23.638 52.796-52.796v-136.318c0-29.159-23.638-52.797-52.796-52.797z" fill="#7181ff"/><g><path d="m323.622 390.709v85.24c0 13.339-10.814 24.153-24.153 24.153h-40.317c-13.339 0-24.153-10.814-24.153-24.153s10.814-24.153 24.153-24.153h16.164v-61.086h48.306z" fill="#ff63ed"/></g><g><path d="m211.21 390.709v85.24c0 13.339-10.814 24.153-24.153 24.153h-40.317c-13.339 0-24.153-10.814-24.153-24.153s10.814-24.153 24.153-24.153h16.164v-61.086h48.306z" fill="#ff63ed"/></g><g><g><path d="m299.469 507.603h-40.317c-17.454 0-31.653-14.2-31.653-31.653s14.2-31.653 31.653-31.653h8.664v-53.586c0-4.142 3.358-7.5 7.5-7.5h48.307c4.142 0 7.5 3.358 7.5 7.5v85.24c-.001 17.452-14.201 31.652-31.654 31.652zm-40.318-48.307c-9.183 0-16.653 7.471-16.653 16.653s7.471 16.653 16.653 16.653h40.317c9.183 0 16.653-7.471 16.653-16.653v-77.74h-33.307v53.586c0 4.142-3.358 7.5-7.5 7.5h-16.163z" fill="#e207b9"/></g></g><g><g><path d="m187.057 507.603h-40.317c-17.454 0-31.653-14.2-31.653-31.653s14.2-31.653 31.653-31.653h8.664v-53.586c0-4.142 3.358-7.5 7.5-7.5h48.307c4.142 0 7.5 3.358 7.5 7.5v85.24c-.001 17.452-14.201 31.652-31.654 31.652zm-40.318-48.307c-9.183 0-16.653 7.471-16.653 16.653s7.471 16.653 16.653 16.653h40.317c9.183 0 16.653-7.471 16.653-16.653v-77.74h-33.307v53.586c0 4.142-3.358 7.5-7.5 7.5h-16.163z" fill="#e207b9"/></g></g><path d="m162.903 390.709h48.307v32.276h-48.307z" fill="#e207b9"/><path d="m275.315 390.709h48.307v32.276h-48.307z" fill="#e207b9"/><path d="m234.294 93.694c6.978 0 13.697 1.104 20 3.135v-84.931h-40v84.931c6.303-2.031 13.022-3.135 20-3.135z" fill="#565eec"/><path d="m298.692 148.799c-4.841-31.213-31.828-55.105-64.397-55.105-32.57 0-59.556 23.892-64.397 55.105z" fill="#565eec"/><path d="m159.952 281.052h-24.042v-24.042c0-6.931-5.618-12.549-12.549-12.549h-9.902c-6.931 0-12.549 5.618-12.549 12.549v24.042h-24.042c-6.931 0-12.549 5.618-12.549 12.549v9.902c0 6.931 5.618 12.549 12.549 12.549h24.042v24.042c0 6.931 5.618 12.549 12.549 12.549h9.902c6.931 0 12.549-5.618 12.549-12.549v-24.042h24.042c6.931 0 12.549-5.618 12.549-12.549v-9.902c0-6.93-5.618-12.549-12.549-12.549z" fill="#88f8d8"/><g><path d="m123.361 360.143h-9.902c-11.055 0-20.049-8.994-20.049-20.049v-16.542h-16.542c-11.055 0-20.049-8.994-20.049-20.049v-9.902c0-11.055 8.994-20.049 20.049-20.049h16.542v-16.542c0-11.055 8.994-20.049 20.049-20.049h9.902c11.055 0 20.049 8.994 20.049 20.049v16.542h16.542c11.055 0 20.049 8.994 20.049 20.049v9.902c0 11.055-8.994 20.049-20.049 20.049h-16.542v16.542c0 11.055-8.993 20.049-20.049 20.049zm-46.493-71.591c-2.784 0-5.049 2.265-5.049 5.049v9.902c0 2.784 2.265 5.049 5.049 5.049h24.042c4.142 0 7.5 3.358 7.5 7.5v24.042c0 2.784 2.265 5.049 5.049 5.049h9.902c2.784 0 5.049-2.265 5.049-5.049v-24.042c0-4.142 3.358-7.5 7.5-7.5h24.042c2.784 0 5.049-2.265 5.049-5.049v-9.902c0-2.784-2.265-5.049-5.049-5.049h-24.042c-4.142 0-7.5-3.358-7.5-7.5v-24.042c0-2.784-2.265-5.049-5.049-5.049h-9.902c-2.784 0-5.049 2.265-5.049 5.049v24.042c0 4.142-3.358 7.5-7.5 7.5z" fill="#007ea8"/></g><circle cx="342.179" cy="262.213" fill="#88f8d8" r="17.752"/><circle cx="388.518" cy="298.552" fill="#88f8d8" r="17.752"/><g><path d="m342.179 287.465c-13.924 0-25.252-11.328-25.252-25.252s11.328-25.252 25.252-25.252 25.252 11.328 25.252 25.252-11.328 25.252-25.252 25.252zm0-35.504c-5.653 0-10.252 4.599-10.252 10.252s4.599 10.252 10.252 10.252 10.252-4.599 10.252-10.252-4.599-10.252-10.252-10.252z" fill="#007ea8"/></g><circle cx="342.179" cy="334.891" fill="#ff9bff" r="17.752"/><circle cx="295.84" cy="298.552" fill="#ff9bff" r="17.752"/><g><path d="m342.179 360.143c-13.924 0-25.252-11.328-25.252-25.251s11.328-25.252 25.252-25.252 25.252 11.328 25.252 25.252-11.328 25.251-25.252 25.251zm0-35.503c-5.653 0-10.252 4.599-10.252 10.252s4.599 10.251 10.252 10.251 10.252-4.599 10.252-10.251-4.599-10.252-10.252-10.252z" fill="#e207b9"/></g><g><path d="m388.518 323.804c-13.924 0-25.251-11.328-25.251-25.252s11.328-25.251 25.251-25.251 25.252 11.328 25.252 25.251-11.329 25.252-25.252 25.252zm0-35.503c-5.653 0-10.251 4.599-10.251 10.251s4.599 10.252 10.251 10.252 10.252-4.599 10.252-10.252-4.6-10.251-10.252-10.251z" fill="#007ea8"/></g><g><path d="m295.84 323.804c-13.924 0-25.252-11.328-25.252-25.252s11.328-25.251 25.252-25.251 25.252 11.328 25.252 25.251-11.328 25.252-25.252 25.252zm0-35.503c-5.653 0-10.252 4.599-10.252 10.251s4.599 10.252 10.252 10.252 10.252-4.599 10.252-10.252-4.599-10.251-10.252-10.251z" fill="#e207b9"/></g><circle cx="286.199" cy="203.417" fill="#2115c2" r="11.013"/><g><path d="m257.614 230.264h-46.639c-4.142 0-7.5-3.358-7.5-7.5s3.358-7.5 7.5-7.5h46.639c4.142 0 7.5 3.358 7.5 7.5s-3.358 7.5-7.5 7.5z" fill="#2115c2"/></g><g fill="#2115c2"><circle cx="182.39" cy="203.417" r="11.013"/><path d="m451.704 141.298h-43.411-103.471c-3.601-14.465-11.628-27.579-23.026-37.431-6-5.187-12.768-9.299-20.001-12.256v-79.714c0-4.142-3.358-7.5-7.5-7.5h-40c-4.142 0-7.5 3.358-7.5 7.5v79.714c-7.233 2.957-14.002 7.069-20.001 12.256-11.397 9.852-19.425 22.967-23.025 37.431h-103.473c-33.247 0-60.296 27.049-60.296 60.297v136.318c0 33.248 27.049 60.296 60.296 60.296h391.407c33.248 0 60.296-27.049 60.296-60.296v-136.318c.001-33.248-27.048-60.297-60.295-60.297zm-229.91-54.027v-67.874h25v67.873c-3.679-.64-8.172-1.077-12.5-1.077-4.344.001-8.836.44-12.5 1.078zm-25.191 27.944c21.65-18.716 53.828-18.634 75.384 0 8.088 6.992 14.039 16.047 17.251 26.083h-109.886c3.211-10.036 9.162-19.091 17.251-26.083zm-181.603 222.698v-136.318c0-24.977 20.32-45.296 45.296-45.296h347.997c24.976 0 45.296 20.32 45.296 45.296v136.318c0 24.977-20.32 45.296-45.296 45.296h-347.997c-24.976 0-45.296-20.319-45.296-45.296zm482 0c0 24.977-20.32 45.296-45.296 45.296h-3.654c12.744-11.205 20.539-27.566 20.539-45.296v-136.318c0-17.304-7.476-33.811-20.539-45.296h3.654c24.977 0 45.296 20.32 45.296 45.296z"/></g></g></svg>