<svg id="Capa_1" enable-background="new 0 0 512 512" height="512" viewBox="0 0 512 512" width="512" xmlns="http://www.w3.org/2000/svg"><g><path d="m383.42 500.807c30.381 0 55.01-24.629 55.01-55.01v-379.594c0-30.381-24.629-55.01-55.01-55.01h-320.91c-30.381 0-55.01 24.629-55.01 55.01v379.594c0 30.381 24.629 55.01 55.01 55.01z" fill="#88f8d8"/><path d="m355.212 126.547c-9.4 9.4-24.64 9.4-34.04 0l-13.556-13.556c-9.4-9.4-9.4-24.64 0-34.04l2.495-2.495c-25.094-16.264-55.015-25.714-87.145-25.714-88.617 0-160.455 71.838-160.455 160.455s71.838 160.455 160.455 160.455 160.454-71.838 160.454-160.455c0-32.13-9.45-62.051-25.714-87.145z" fill="#7181ff"/><path d="m449.49 11.193h-66.07c30.381 0 55.01 24.629 55.01 55.01v379.594c0 30.381-24.629 55.01-55.01 55.01h66.07c30.381 0 55.01-24.629 55.01-55.01v-379.594c0-30.381-24.629-55.01-55.01-55.01z" fill="#17d9c3"/><path d="m449.49 3.693h-66.07-320.91c-34.468 0-62.51 28.042-62.51 62.51v379.594c0 34.468 28.042 62.51 62.51 62.51h320.91 66.07c34.468 0 62.51-28.042 62.51-62.51v-379.594c0-34.468-28.042-62.51-62.51-62.51zm-434.49 442.104v-379.594c0-26.197 21.313-47.51 47.51-47.51h320.91c26.197 0 47.51 21.313 47.51 47.51v379.594c0 26.197-21.313 47.51-47.51 47.51h-320.91c-26.197 0-47.51-21.313-47.51-47.51zm482 0c0 26.197-21.313 47.51-47.51 47.51h-25.488c13.884-11.88 21.928-29.281 21.928-47.51v-379.594c0-18.277-8.035-35.623-21.928-47.51h25.488c26.197 0 47.51 21.313 47.51 47.51z" fill="#007ea8"/><g><path d="m222.965 327.05c-4.142 0-7.5-3.358-7.5-7.5s3.358-7.5 7.5-7.5c55.61 0 100.853-45.243 100.853-100.853 0-4.142 3.358-7.5 7.5-7.5s7.5 3.358 7.5 7.5c0 63.881-51.971 115.853-115.853 115.853z" fill="#2115c2"/></g><g><path d="m114.612 218.697c-4.142 0-7.5-3.358-7.5-7.5 0-63.881 51.972-115.853 115.853-115.853 4.142 0 7.5 3.358 7.5 7.5s-3.358 7.5-7.5 7.5c-55.61 0-100.853 45.242-100.853 100.853 0 4.142-3.358 7.5-7.5 7.5z" fill="#2115c2"/></g><g><path d="m222.965 379.152c-92.611 0-167.956-75.345-167.956-167.956s75.345-167.954 167.956-167.954c32.506 0 64.05 9.309 91.224 26.92 1.9 1.231 3.142 3.255 3.379 5.506.238 2.251-.554 4.489-2.155 6.09l-2.495 2.495c-6.461 6.461-6.461 16.973 0 23.434l13.556 13.556c3.13 3.13 7.291 4.854 11.717 4.854s8.587-1.724 11.717-4.854l2.495-2.495c1.601-1.601 3.833-2.395 6.091-2.155 2.251.238 4.275 1.479 5.506 3.379 17.611 27.174 26.92 58.718 26.92 91.224 0 92.612-75.344 167.956-167.955 167.956zm0-320.91c-84.34 0-152.956 68.615-152.956 152.955s68.616 152.956 152.956 152.956 152.955-68.616 152.955-152.956c0-26.661-6.873-52.606-19.95-75.571-5.199 3.558-11.342 5.471-17.778 5.471-8.433 0-16.361-3.284-22.324-9.247l-13.556-13.556c-5.963-5.963-9.247-13.891-9.247-22.323 0-6.437 1.914-12.58 5.471-17.779-22.964-13.077-48.91-19.95-75.571-19.95z" fill="#2115c2"/></g><path d="m380.192 67.526-13.556-13.556c-9.4-9.4-24.64-9.4-34.04 0l-24.98 24.98c-9.4 9.4-9.4 24.64 0 34.04l13.556 13.556c9.4 9.4 24.64 9.4 34.04 0l24.98-24.98c9.4-9.4 9.4-24.64 0-34.04z" fill="#ff63ed"/><path d="m234.017 222.248c-6.102 6.103-15.999 6.104-22.102 0-6.104-6.104-6.104-15.999 0-22.102l38.215-38.215c-8.054-4.45-17.311-6.99-27.164-6.99-31.069 0-56.256 25.187-56.256 56.256 0 31.07 25.187 56.257 56.256 56.257s56.256-25.187 56.256-56.257c0-9.853-2.54-19.109-6.99-27.163z" fill="#ddbeff"/><g><path d="m222.965 274.954c-35.155 0-63.756-28.601-63.756-63.757 0-35.155 28.601-63.756 63.756-63.756 10.759 0 21.407 2.741 30.791 7.926 2.063 1.14 3.47 3.182 3.799 5.516s-.457 4.686-2.123 6.352l-38.215 38.215c-3.169 3.169-3.169 8.326 0 11.496 1.536 1.536 3.577 2.381 5.749 2.381 2.171 0 4.212-.846 5.747-2.381l38.214-38.214c1.666-1.667 4.017-2.453 6.352-2.123 2.333.33 4.376 1.736 5.516 3.799 5.185 9.384 7.926 20.031 7.926 30.791 0 35.154-28.6 63.755-63.756 63.755zm0-112.513c-26.884 0-48.756 21.872-48.756 48.756 0 26.885 21.872 48.757 48.756 48.757s48.756-21.872 48.756-48.757c0-4.752-.698-9.474-2.051-13.996l-30.351 30.35c-4.368 4.369-10.176 6.774-16.354 6.775-6.179 0-11.987-2.406-16.356-6.775-9.018-9.017-9.018-23.69 0-32.708l30.351-30.351c-4.521-1.353-9.243-2.051-13.995-2.051z" fill="#6d00ca"/></g><g fill="#a4bcff"><path d="m376.642 369.481c-6.139-2.788-12.952-4.354-20.134-4.354-26.93 0-48.761 21.831-48.761 48.761 0 7.182 1.565 13.994 4.353 20.133z"/><path d="m336.375 458.296c6.139 2.788 12.952 4.354 20.134 4.354 26.93 0 48.761-21.831 48.761-48.761 0-7.182-1.565-13.994-4.353-20.133z"/></g><g><path d="m310.553 459.844c-6.703-6.703-6.703-17.571 0-24.274l67.637-67.637c6.703-6.704 17.571-6.704 24.274 0 6.703 6.703 6.703 17.571 0 24.274l-67.637 67.637c-6.702 6.703-17.571 6.704-24.274 0z" fill="#a4bcff"/></g><path d="m407.768 362.63c-8.982-8.985-23.116-9.581-32.783-1.868-5.929-2.071-12.12-3.134-18.476-3.134-31.022 0-56.261 25.238-56.261 56.261 0 6.359 1.064 12.553 3.138 18.486-7.694 9.673-7.08 23.829 1.864 32.772 8.989 8.99 23.123 9.575 32.783 1.869 5.93 2.071 12.121 3.134 18.477 3.134 31.022 0 56.261-25.238 56.261-56.261 0-6.359-1.064-12.554-3.138-18.486 7.692-9.674 7.078-23.829-1.865-32.773zm-51.259 9.998c2.009 0 3.995.143 5.954.426l-46.789 46.789c-.284-1.959-.426-3.945-.426-5.954 0-22.752 18.509-41.261 41.261-41.261zm-40.652 81.913c-3.769-3.769-3.769-9.899 0-13.667 7.222-7.222 59.204-59.204 67.638-67.638 3.777-3.777 9.888-3.778 13.667 0 3.768 3.768 3.768 9.899 0 13.667l-67.637 67.637c-3.778 3.778-9.891 3.778-13.668.001zm40.652.608c-2.009 0-3.996-.143-5.954-.426l46.789-46.789c.284 1.958.426 3.945.426 5.954 0 22.752-18.51 41.261-41.261 41.261z" fill="#1900ce"/><g fill="#17d9c3"><path d="m80.744 417.996c-10.07 0-18.234 8.163-18.234 18.234s8.163 18.234 18.234 18.234h31.258v-36.468z"/><path d="m242.22 417.996h-93.751v36.468h93.751c10.07 0 18.234-8.163 18.234-18.234s-8.164-18.234-18.234-18.234z"/></g><path d="m130.235 399.762c-10.07 0-18.234 8.163-18.234 18.234v36.468c0 10.07 8.164 18.234 18.234 18.234 10.07 0 18.234-8.163 18.234-18.234v-36.468c0-10.07-8.164-18.234-18.234-18.234z" fill="#a4bcff"/><g><path d="m112.001 461.963h-31.257c-14.19 0-25.734-11.544-25.734-25.734 0-14.189 11.544-25.733 25.734-25.733h31.258c4.142 0 7.5 3.358 7.5 7.5v36.467c-.001 4.142-3.358 7.5-7.501 7.5zm-31.257-36.467c-5.918 0-10.734 4.815-10.734 10.733s4.815 10.734 10.734 10.734h23.758v-21.467z" fill="#007ea8"/></g><g><path d="m242.22 461.963h-93.751c-4.142 0-7.5-3.358-7.5-7.5v-36.467c0-4.142 3.358-7.5 7.5-7.5h93.751c14.19 0 25.734 11.544 25.734 25.733 0 14.19-11.544 25.734-25.734 25.734zm-86.251-15h86.251c5.918 0 10.734-4.815 10.734-10.734s-4.815-10.733-10.734-10.733h-86.251z" fill="#007ea8"/></g><g><path d="m130.235 480.197c-14.19 0-25.734-11.544-25.734-25.734v-36.467c0-14.19 11.544-25.734 25.734-25.734 14.189 0 25.733 11.544 25.733 25.734v36.467c.001 14.19-11.543 25.734-25.733 25.734zm0-72.935c-5.918 0-10.734 4.815-10.734 10.734v36.467c0 5.918 4.815 10.734 10.734 10.734s10.733-4.815 10.733-10.734v-36.467c.001-5.918-4.814-10.734-10.733-10.734z" fill="#1900ce"/></g><path d="m321.172 126.547-13.556-13.556c-1.479-1.479-2.697-3.114-3.711-4.836l-91.991 91.991c-6.104 6.104-6.104 15.999 0 22.102 6.103 6.104 16 6.103 22.102 0l91.991-91.991c-1.722-1.013-3.357-2.232-4.835-3.71z" fill="#ff9bff"/><path d="m385.496 62.223-13.556-13.556c-12.309-12.31-32.338-12.31-44.646 0l-24.98 24.98c-8.883 8.883-11.353 21.786-7.414 32.907l-88.288 88.288c-9.018 9.018-9.018 23.691 0 32.708 9.038 9.039 23.67 9.042 32.709 0l88.271-88.271c10.988 3.906 23.914 1.581 32.924-7.43l24.98-24.98c12.309-12.308 12.309-32.337 0-44.646zm-156.783 154.722c-3.177 3.177-8.318 3.177-11.496 0-3.169-3.169-3.169-8.326 0-11.496l86.125-86.125 11.496 11.496zm146.176-120.682-24.98 24.98c-6.639 6.639-17.14 6.294-23.434 0l-13.556-13.556c-6.336-6.337-6.55-16.883 0-23.434l24.98-24.98c6.461-6.46 16.972-6.46 23.434 0l13.556 13.556c6.461 6.461 6.461 16.973 0 23.434z" fill="#e207b9"/></g></svg>