<svg id="Capa_1" enable-background="new 0 0 512 512" height="512" viewBox="0 0 512 512" width="512" xmlns="http://www.w3.org/2000/svg"><g><path d="m79.209 142.724 161.303-57.867c2.733-.981 5.485-1.522 8.199-1.695v-45.982c0-20.545-20.368-34.877-39.706-27.94l-102.406 36.737c-26.706 9.581-44.521 34.898-44.521 63.271v42.606c5.153-3.79 10.896-6.893 17.131-9.13z" fill="#ff63ed"/><g><path d="m58.692 158.546c-2.524-1.277-4.114-3.864-4.114-6.693v-42.605c0-31.448 19.888-59.711 49.489-70.331l102.404-36.737c11.375-4.081 24.069-2.365 33.954 4.59 9.884 6.955 15.786 18.324 15.786 30.41v45.983c0 4.142-3.358 7.5-7.5 7.5s-7.5-3.358-7.5-7.5v-45.983c0-7.318-3.432-13.93-9.417-18.142-5.985-4.211-13.367-5.21-20.256-2.738l-102.406 36.737c-23.658 8.487-39.554 31.076-39.554 56.211v29.385c2.312-1.11 4.68-2.101 7.098-2.969l81.921-29.388c3.904-1.4 8.194.629 9.593 4.527 1.399 3.899-.628 8.194-4.527 9.593l-81.921 29.388c-5.427 1.947-10.548 4.677-15.221 8.112-2.283 1.678-5.309 1.924-7.829.65z" fill="#e207b9"/></g><path d="" style="fill:none;stroke:#e207b9;stroke-width:15;stroke-linecap:round;stroke-linejoin:round;stroke-miterlimit:10"/><path d="m161.128 113.333v66.617c0 8.371-2.626 16.29-7.226 22.822-4.6 6.533-11.164 11.679-19.041 14.504-15.754 5.65-26.256 20.585-26.256 37.326v21.898c0 21.898-17.749 39.647-39.647 39.647h-34.312v-110.087c0-28.399 17.833-53.741 44.562-63.341z" fill="#7181ff"/><g><path d="m68.958 323.648h-34.312c-4.142 0-7.5-3.358-7.5-7.5v-110.088c0-31.47 19.903-59.761 49.527-70.4l81.923-29.387c2.298-.824 4.853-.479 6.849.926s3.184 3.693 3.184 6.134v66.617c0 9.772-2.972 19.157-8.594 27.141-5.623 7.987-13.453 13.95-22.641 17.245-12.733 4.567-21.287 16.73-21.287 30.266v21.898c-.001 25.998-21.151 47.148-47.149 47.148zm-26.811-15.001h26.811c17.726 0 32.147-14.421 32.147-32.146v-21.898c0-19.85 12.548-37.687 31.224-44.386 6.266-2.247 11.605-6.314 15.441-11.762 3.833-5.442 5.858-11.841 5.858-18.504v-55.958l-71.887 25.787c-23.682 8.505-39.594 31.122-39.594 56.281z" fill="#2115c2"/></g><path d="m297.736 231.009c-2.285-4.003-4.356-8.158-6.177-12.461l-2.069-4.884c-5.661-13.37-8.78-27.674-9.211-42.178l-42.745 15.334c-18.285 6.554-37.547-6.995-37.547-26.424 0-5.923 1.859-11.532 5.115-16.153 3.256-4.632 7.898-8.265 13.475-10.271l61.618-22.097c-.599-20.049-20.637-33.85-39.689-27.012l-79.378 28.472v66.617c0 8.371-2.626 16.29-7.226 22.822-4.6 6.533-11.164 11.679-19.041 14.504-15.754 5.65-26.256 20.585-26.256 37.326v21.898c0 21.898-17.749 39.647-39.647 39.647h-34.312v78.422h86.038l155.757-156.845c5.825-5.866 13.841-8.049 21.295-6.717z" fill="#88f8d8"/><path d="m379.812 288.473c-4.583-.784-9.079-1.844-13.478-3.144 3.058 6.916 2.851 15.164-1.489 22.21l-53.603 87.03h165.707c-4.285-52.974-43.974-96.99-97.137-106.096z" fill="#88f8d8"/><g><path d="m476.949 402.07h-165.707c-2.718 0-5.223-1.47-6.548-3.843s-1.264-5.277.162-7.591l53.603-87.03c2.869-4.658 3.239-10.215 1.016-15.245-1.182-2.673-.703-5.789 1.226-7.984 1.929-2.196 4.958-3.069 7.76-2.242 4.188 1.238 8.432 2.229 12.616 2.944h.002c56.252 9.635 98.751 56.055 103.347 112.885.169 2.088-.543 4.151-1.963 5.69-1.421 1.541-3.42 2.416-5.514 2.416zm-152.278-15.001h143.845c-7.207-46.252-43.181-83.189-89.97-91.203h.001c-.886-.151-1.774-.314-2.663-.487-.063 5.611-1.627 11.181-4.653 16.093z" fill="#007ea8"/></g><g><path d="m120.685 402.07h-86.039c-4.142 0-7.5-3.358-7.5-7.5v-78.422c0-4.142 3.358-7.5 7.5-7.5h34.312c17.726 0 32.147-14.421 32.147-32.146v-21.898c0-19.85 12.548-37.687 31.224-44.386 12.778-4.583 21.299-16.68 21.299-30.266v-66.617c0-3.166 1.988-5.991 4.968-7.06l79.378-28.472c23.814-8.549 48.965 8.62 49.719 33.849.097 3.247-1.907 6.187-4.966 7.284l-61.618 22.097c-4.009 1.442-7.425 4.045-9.871 7.525-2.455 3.485-3.75 7.577-3.75 11.84 0 6.785 3.182 12.915 8.73 16.82 5.551 3.907 12.398 4.834 18.785 2.544l42.744-15.333c2.263-.812 4.774-.49 6.757.863 1.984 1.353 3.201 3.574 3.273 5.975.403 13.641 3.304 26.922 8.62 39.476 1.469 3.297 3.418 8.784 7.853 16.551 3.146 5.511-1.573 12.215-7.833 11.102-5.355-.959-10.832.77-14.653 4.617l-155.757 156.842c-1.409 1.418-3.324 2.215-5.322 2.215zm-78.538-15.001h75.415l153.558-154.63c4.097-4.125 9.19-6.973 14.675-8.353-.927-2.058-1.301-3.006-3.211-7.497-4.713-11.132-7.756-22.765-9.085-34.703l-33.432 11.992c-10.886 3.902-23.029 2.257-32.483-4.397-9.453-6.653-15.097-17.527-15.097-29.087 0-7.372 2.242-14.452 6.483-20.473 4.228-6.014 10.131-10.514 17.068-13.009l55.887-20.042c-3.225-11.844-16.204-19.503-28.886-14.951l-74.411 26.691v61.339c0 19.909-12.48 37.66-31.236 44.386-12.732 4.567-21.287 16.73-21.287 30.266v21.898c0 25.997-21.151 47.147-47.148 47.147h-26.81z" fill="#007ea8"/></g><path d="m280.279 171.486-42.745 15.334c-18.285 6.554-37.547-6.995-37.547-26.424 0-5.923 1.859-11.532 5.115-16.153 3.256-4.632 7.898-8.265 13.475-10.271l61.618-22.097c.021.305.021.609.021.924v55.149c0 1.185.021 2.361.063 3.538z" fill="#ff9bff"/><g><path d="m192.487 160.395c0-15.02 9.405-28.394 23.551-33.482l61.625-22.1c4.707-1.685 9.683 1.612 10.016 6.556.031.471.037.941.037 1.428v55.149c0 1.097.02 2.184.059 3.272.116 3.262-1.891 6.225-4.963 7.328l-42.746 15.333c-23.069 8.27-47.579-8.812-47.579-33.484zm80.229-37.871-51.607 18.507c-8.174 2.94-13.621 10.673-13.621 19.364 0 14.232 14.079 24.181 27.515 19.363l37.713-13.528z" fill="#e207b9"/></g><path d="m227.319 394.57 103.026-136.239c-6.631-5.372-12.634-11.528-17.878-18.362-8.83-11.507-25.804-12.537-36.025-2.245l-155.758 156.846z" fill="#7181ff"/><path d="m311.242 394.57 53.603-87.03c7.646-12.414 2.478-28.558-10.802-34.574-8.53-3.864-16.486-8.786-23.697-14.634l-103.027 136.238z" fill="#7181ff"/><path d="m357.137 266.133c-7.912-3.583-15.336-8.168-22.067-13.627-.002-.002-.005-.004-.008-.006-6.185-5.011-11.785-10.763-16.645-17.097-11.599-15.113-33.888-16.469-47.298-2.964l-155.757 156.846c-2.134 2.149-2.766 5.371-1.603 8.167 1.164 2.796 3.896 4.618 6.925 4.618h106.634 83.924c2.604 0 5.021-1.35 6.386-3.567l53.603-87.031c9.979-16.201 3.344-37.439-14.094-45.339zm-75.373-23.124c7.018-7.069 18.694-6.369 24.752 1.525 4.099 5.343 8.659 10.326 13.608 14.876l-85.824 113.493-10.713 14.166h-84.884zm76.695 60.597-51.406 83.463h-64.658l.369-.488 89.04-117.744c6.012 4.244 12.425 7.916 19.143 10.96 8.972 4.064 12.896 15.066 7.512 23.809z" fill="#2115c2"/><path d="m477.338 404.127v35.782h-134.264c-34.679 0-62.795 28.115-62.795 62.795v1.796h-191.555c-29.869 0-54.077-24.219-54.077-54.088v-55.842h442.303c.262 3.151.388 6.343.388 9.557z" fill="#ffceff"/><path d="m477.338 439.909v10.503c0 29.869-24.208 54.088-54.077 54.088h-142.982v-1.796c0-34.679 28.115-62.795 62.795-62.795z" fill="#ff63ed"/><path d="m484.423 393.947c-.323-3.887-3.573-6.877-7.474-6.877h-442.303c-4.142 0-7.5 3.358-7.5 7.5v55.842c0 4.588.641 9.303.916 10.515 5.006 28.965 30.293 51.073 60.662 51.073h334.537c33.954 0 61.578-27.629 61.578-61.589-.001-50.354.139-49.814-.416-56.464zm-442.276 8.123h427.672c.013.683.019 1.369.019 2.057v28.281h-126.765c-17.682 0-35.027 6.681-48.367 19.351h-252.525c-.013-.449-.034-.896-.034-1.348zm2.968 64.691h237.579c-5.476 9.163-8.829 19.627-9.685 30.239h-184.285c-19.933-.001-36.975-12.593-43.609-30.239zm424.722-16.35c0 25.688-20.895 46.588-46.577 46.588h-135.186c2.896-28.127 26.772-49.59 55-49.59h126.764v3.002z" fill="#e207b9"/></g></svg>