<svg id="Capa_1" enable-background="new 0 0 512 512" height="512" viewBox="0 0 512 512" width="512" xmlns="http://www.w3.org/2000/svg"><g><path d="m236.198 457.813h15.622v-63.578c14.504 8.038 30.237 13.775 46.687 16.655v55.526c-3.278 4.02-5.245 9.149-5.245 14.74 0 3.877.951 7.529 2.623 10.747-3.889 7.483-11.705 12.597-20.721 12.597h-38.966c-12.892 0-23.344-10.452-23.344-23.344.001-12.892 10.452-23.343 23.344-23.343z" fill="#f90"/><path d="m316.606 457.813h15.622v-45.132c4.243-.292 8.507-.778 12.788-1.473 11.332-1.84 22.759-4.914 33.9-9.084v79.032c0 12.892-10.451 23.344-23.344 23.344h-38.966c-12.892 0-23.344-10.452-23.344-23.344.001-12.892 10.452-23.343 23.344-23.343z" fill="#f90"/><path d="m349.821 440.808c-5.817.944-11.705 1.581-17.593 1.915v-30.043c4.243-.292 8.507-.778 12.788-1.473 11.332-1.84 22.759-4.914 33.9-9.084v31.7c-9.592 3.048-19.343 5.402-29.095 6.985z" fill="#f95116"/><path d="m298.508 410.89v30.377c-16.039-2.288-31.719-6.83-46.687-13.484v-33.549c14.504 8.038 30.237 13.775 46.687 16.656z" fill="#f95116"/><path d="m306.718 256.421c-44.809 1.607-72.155 36.309-72.155 36.309l-.003.001c-8.515-24.134-8.676-57.939-7.292-75.587-9.101 2.524-18.689 3.879-28.593 3.879-10.413 0-20.474-1.499-29.988-4.279v1.964c-.944 6.543-2.824 22.891-1.629 43.076 5.229 88.352 88.326 163.975 177.957 149.424 32.532-5.282 65.849-20.705 90.917-43.178h-93.335c-34.009 0-61.578-27.569-61.578-61.578 0-20.617 10.143-38.854 25.699-50.031z" fill="#ff9bff"/><path d="m198.675 251.011c-10.888 0-21.618-1.303-31.997-3.798.082-13.301 1.305-23.628 2.009-28.505v-1.964c9.514 2.78 19.575 4.279 29.988 4.279 9.905 0 19.492-1.355 28.593-3.879-.617 7.862-.924 18.931-.326 30.921-9.123 1.926-18.578 2.946-28.267 2.946z" fill="#e207b9"/><path d="m93.948 93.435v.01c4.642-1.033 7.857-1.32 11.335-1.32h46.621c31.036 0 53.158 25.382 53.158 53.159 0 24.47-20.872 43.752-45.282 41.813l-42.153-3.348c19.572 22.811 48.62 37.275 81.047 37.275 58.956 0 106.757-47.801 106.757-106.767.001-58.956-47.799-106.757-106.755-106.757-51.839 0-95.032 36.935-104.728 85.935z" fill="#ffceff"/><path d="m80.384 180.78 37.245 2.969 42.153 3.348c24.41 1.939 45.282-17.343 45.282-41.813-27.289 0-50.04 3.459-68.872 8.726-21.912 5.998-40.834 15.494-55.808 26.77z" fill="#ffff6f"/><path d="m56.683 132.849c40.563-13.635 67.792 8.336 79.508 21.161 18.832-5.268 41.583-8.726 68.872-8.726 0-28.312-22.656-53.159-53.158-53.159h-46.621c-3.343 0-6.712.291-11.335 1.32v-.01c-19.043 4.478-33.837 19.992-37.266 39.414z" fill="#ffff6f"/><circle cx="134.451" cy="78.133" fill="#e207b9" r="12.294"/><circle cx="222.473" cy="78.133" fill="#e207b9" r="12.294"/><path d="m342.598 244.873c62.684 0 113.499 50.815 113.499 113.498 0 5.334-4.324 9.658-9.658 9.658h-103.84c-34.009 0-61.578-27.569-61.578-61.578-.002-34.008 27.568-61.578 61.577-61.578z" fill="#ffceff"/><path d="m55.904 141.495v26.999c0 12.605 14.434 19.902 24.48 12.285 14.974-11.275 33.896-20.772 55.807-26.769-11.715-12.825-38.944-34.796-79.508-21.161-.574 3.302-.779 6.141-.779 8.646z" fill="#f90"/><path d="m383.189 395.961c-2.02-1.401-4.599-1.724-6.902-.861-10.747 4.022-21.673 6.951-32.474 8.705-3.978.646-8.049 1.115-12.1 1.394-3.934.271-6.985 3.54-6.985 7.482v37.632h-8.122c-3.722 0-7.292.663-10.599 1.876v-41.299c0-3.643-2.618-6.759-6.206-7.388-15.313-2.681-30.232-8.006-44.346-15.828-2.324-1.288-5.156-1.25-7.442.098-2.289 1.348-3.693 3.806-3.693 6.462v56.078h-8.122c-17.007 0-30.844 13.836-30.844 30.844s13.837 30.844 30.844 30.844h38.966c7.824 0 15.154-2.932 20.732-8.008 5.478 4.973 12.747 8.008 20.711 8.008h38.966c17.007 0 30.844-13.836 30.844-30.844v-79.032c-.001-2.459-1.206-4.762-3.228-6.163zm-108.025 101.039h-38.966c-8.736 0-15.844-7.107-15.844-15.844s7.107-15.844 15.844-15.844h15.622c4.143 0 7.5-3.358 7.5-7.5v-51.387c10.268 4.708 20.871 8.266 31.688 10.63v46.898c-3.285 4.893-5.245 10.881-5.245 17.202 0 3.389.582 6.836 1.675 10.018-2.976 3.656-7.445 5.827-12.274 5.827zm96.252-15.844c0 8.736-7.107 15.844-15.844 15.844h-38.966c-8.865 0-15.844-7.294-15.844-15.844 0-8.622 7.004-15.844 15.844-15.844h15.622c4.143 0 7.5-3.358 7.5-7.5v-38.297c2.177-.254 4.345-.556 6.489-.904 8.382-1.361 16.82-3.366 25.198-5.985z" fill="#f95116"/><path d="m342.598 237.373c-14.187 0-27.385 4.304-38.367 11.667-31.136 1.825-53.976 18.1-65.989 29.071-4.167-18.998-4.522-41.165-3.816-55.324 45.544-15.043 78.505-58.007 78.505-108.531.001-63.001-51.254-114.256-114.255-114.256-54.4 0-101.538 38.683-112.085 91.979-.095.479-.143.977-.143 1.466 0 2.275 1.032 4.427 2.808 5.851 1.775 1.424 4.103 1.962 6.32 1.471 4.257-.947 6.959-1.141 9.707-1.141h46.621c12.591 0 24.241 4.92 32.803 13.853 8.17 8.523 12.855 20.116 12.855 31.806 0 9.718-3.933 18.702-11.073 25.298-7.144 6.599-16.417 9.808-26.114 9.038l-42.152-3.348c-3.031-.233-5.902 1.37-7.279 4.077-1.377 2.708-.984 5.979.993 8.284 13.216 15.403 30.077 26.805 48.757 33.39-.965 8.226-2.146 22.902-1.123 40.205 1.405 23.737 8.033 46.771 19.701 68.46 11.138 20.703 26.717 39.41 45.055 54.099 36.126 28.939 79.46 40.715 121.891 33.825 33.59-5.453 67.145-21.102 92.542-43.081h7.678c9.461 0 17.158-7.697 17.158-17.158.001-66.721-54.28-121.001-120.998-121.001zm-204.491-44.474 21.318-1.525c13.7 1.089 24.881-2.307 34.986-11.642 10.102-9.331 13.745-20.363 13.745-34.112 0-33.447-23.405-58.841-56.853-58.841l-46.02-2.154c-.464 0-.921.005-1.373.015 12.771-40.919 51.071-69.64 94.766-69.64 54.729 0 99.256 44.526 99.256 99.256 0 61.159-55.809 110.044-119.646 97.154-14.614-3.064-28.345-9.39-40.179-18.511zm205.706 210.906c-38.467 6.242-77.575-4.666-110.109-30.727-34.54-27.668-56.655-69.439-59.158-111.738-.869-14.679-.047-27.291.783-35.214 14.353 2.984 29.479 3.17 43.911.544-.68 20.925 1.099 48.293 8.248 68.556 1.962 5.565 9.293 6.767 12.956 2.159.206-.259 17.076-21.098 45.07-29.784-7.786 11.403-11.995 24.981-11.995 38.851 0 38.09 30.988 69.078 69.078 69.078h71.584c-20.861 14.22-45.598 24.254-70.368 28.275zm102.625-43.275c-8.24 0-89.593 0-103.841 0-51.636 0-74.269-66.524-32.004-97.635 8.968-6.607 20.036-10.522 32.004-10.522 58.448 0 105.999 47.551 105.999 105.999.001 1.19-.967 2.158-2.158 2.158z" fill="#e207b9"/><path d="m151.904 84.625h-46.621c-4.244 0-8.026.424-12.574 1.413-.159.027-.318.059-.478.096-22.13 5.204-38.982 23.029-42.934 45.411-.46 2.606.487 5.262 2.493 6.988 2.007 1.727 4.773 2.267 7.282 1.425 28.368-9.536 49.449.146 62.635 10.716-16.941 5.93-32.601 14.147-45.836 24.114-2.489 1.875-3.56 5.093-2.69 8.085s3.5 5.135 6.606 5.382l79.399 6.318c13.683 1.087 27.354-3.619 37.479-12.973 10.102-9.331 15.896-22.567 15.896-36.316.002-33.447-27.209-60.659-60.657-60.659zm34.585 85.957c-7.144 6.599-16.417 9.808-26.114 9.038l-57.107-4.54c28.125-15.085 61.087-21.267 93.235-22.173.076-.002.152-.003.228-.005-1.505 6.74-5.013 12.85-10.242 17.68zm10.001-32.678c-19.641.527-39.236 2.921-57.969 7.716-10.044-9.904-29.531-24.55-56.917-24.55-4.312 0-8.817.363-13.515 1.165 5.458-10.573 15.283-18.502 27.236-21.418.084-.016.168-.033.251-.051 3.643-.81 6.455-1.141 9.707-1.141h46.621c22.657 0 41.514 16.59 45.06 38.261-.159.004-.315.014-.474.018z" fill="#f90"/><g><path d="m61.113 188.974c-7.84-3.894-12.71-11.741-12.71-20.479v-26.999c0-3.24.292-6.489.892-9.934.472-2.711 2.391-4.945 4.999-5.822 45.734-15.373 76.381 11.112 87.435 23.212 1.762 1.929 2.394 4.634 1.667 7.144-.726 2.509-2.705 4.459-5.224 5.149-19.917 5.452-38.339 14.278-53.276 25.526-6.901 5.231-16.024 6.057-23.783 2.203zm2.291-20.48c0 3.048 1.639 5.682 4.383 7.045 1.289.641 4.654 1.851 8.066-.736 13.252-9.979 28.913-18.204 45.855-24.134-12.487-10.008-32.062-19.22-58.197-12.065z" fill="#f95116"/></g></g></svg>