<svg id="Capa_1" enable-background="new 0 0 512 512" height="512" viewBox="0 0 512 512" width="512" xmlns="http://www.w3.org/2000/svg"><g><g><path d="m418.795 210.029v239.251c0 16.212 13.142 29.355 29.355 29.355 16.212 0 29.355-13.143 29.355-29.355v-290.564c-14.9 20.984-34.721 38.734-58.71 51.313z" fill="#9448f5"/></g><g><g><path d="m448.15 486.135c-20.322 0-36.855-16.533-36.855-36.855v-239.25c0-2.789 1.547-5.347 4.017-6.642 22.491-11.794 41.358-28.284 56.078-49.014 1.89-2.662 5.28-3.798 8.395-2.803 3.11.992 5.221 3.882 5.221 7.146v290.563c-.001 20.322-16.534 36.855-36.856 36.855zm-21.855-271.638v234.783c0 12.05 9.804 21.854 21.855 21.854s21.855-9.804 21.855-21.854v-269.384c-12.616 13.758-27.429 25.503-43.71 34.601z" fill="#6d00ca"/></g></g><path d="m418.795 210.029v43.94c.77-.327 1.543-.643 2.31-.979 21.062-9.249 40.051-21.892 56.4-37.235v-57.039c-14.9 20.984-34.721 38.734-58.71 51.313z" fill="#6d00ca"/><path d="m479.38 52.088c-43.832-22.362-96.609-25.687-144.746-4.548-34.491 15.146-61.326 40.557-78.634 71.178-17.308-30.622-44.143-56.032-78.634-71.179-48.136-21.138-100.914-17.813-144.746 4.549-19.488 9.942-29.312 32.312-23.445 53.389 13.195 47.405 46.459 88.514 94.596 109.653 50.913 22.358 107.008 17.329 152.229-8.627 45.222 25.956 101.316 30.985 152.229 8.627 48.136-21.138 81.401-62.248 94.596-109.653 5.867-21.077-3.957-43.447-23.445-53.389zm-284.263 121.294c-7.89 1.682-15.948 2.547-24.036 2.547-.002 0 .001 0-.001 0-15.817-.001-31.243-3.253-45.85-9.667-22.35-9.815-40.5-26.273-52.569-46.667-7.13-12.047-.331-27.39 13.36-30.308 7.89-1.682 15.949-2.547 24.036-2.547 15.816 0 31.242 3.253 45.85 9.667 22.351 9.815 40.501 26.273 52.57 46.667 7.129 12.047.331 27.39-13.36 30.308zm244.222-53.787c-12.069 20.393-30.219 36.852-52.57 46.667-14.607 6.415-30.031 9.667-45.839 9.667-.003 0-.004 0-.007 0-8.089-.001-16.148-.866-24.039-2.548-13.691-2.919-20.49-18.261-13.36-30.308 12.069-20.393 30.219-36.85 52.57-46.666 14.607-6.415 30.033-9.667 45.849-9.667 8.088 0 16.146.865 24.036 2.547 13.692 2.919 20.49 18.261 13.36 30.308z" fill="#ffff6f"/><g><path d="m170.838 236.802c-24.151 0-47.672-4.963-70.083-14.804-48.459-21.281-84.473-63.018-98.805-114.509-6.803-24.443 4.662-50.551 27.263-62.081 47.61-24.29 102.709-26.015 151.169-4.735 31.087 13.652 57.016 35.533 75.619 63.684 18.602-28.15 44.53-50.032 75.618-63.684 48.461-21.281 103.561-19.555 151.17 4.735 22.601 11.53 34.066 37.639 27.263 62.081-14.333 51.492-50.346 93.229-98.806 114.509-26.006 11.421-53.511 16.27-81.755 14.421-25.501-1.671-50.817-9.029-73.49-21.327-22.673 12.297-47.989 19.655-73.49 21.327-3.905.255-7.799.383-11.673.383zm85.162-37.8c1.289 0 2.577.332 3.734.995 21.637 12.419 46.097 19.837 70.738 21.452 25.811 1.69 50.962-2.745 74.742-13.187 44.321-19.463 77.266-57.66 90.386-104.797 4.899-17.598-3.357-36.395-19.628-44.696-43.584-22.235-94.001-23.825-138.322-4.362-31.921 14.018-57.898 37.533-75.12 68.002-1.331 2.354-3.825 3.81-6.53 3.81s-5.198-1.456-6.53-3.81c-17.223-30.469-43.198-53.984-75.121-68.002-44.321-19.464-94.736-17.873-138.321 4.362-16.271 8.302-24.527 27.099-19.628 44.696 13.12 47.137 46.065 85.334 90.385 104.797 23.78 10.443 48.925 14.877 74.743 13.187 24.641-1.615 49.101-9.033 70.738-21.452 1.157-.663 2.445-.995 3.734-.995zm59.321-18.285c-18.751-3.998-27.991-25.007-18.251-41.464 13.138-22.201 32.505-39.392 56.008-49.713 24.098-10.582 49.905-12.824 74.465-7.588 18.711 3.989 28.009 24.975 18.251 41.463-13.139 22.202-32.506 39.393-56.009 49.714-24.218 10.636-50.026 12.796-74.464 7.588zm43.788-77.442c-20.611 9.051-37.599 24.134-49.13 43.618-4.514 7.626-.234 17.298 8.469 19.153 21.92 4.672 44.486 2.492 65.306-6.651 20.61-9.051 37.599-24.133 49.131-43.619 4.513-7.629.232-17.299-8.469-19.153-21.249-4.529-43.876-2.759-65.307 6.652zm80.231 16.321h.01zm-317.126 53.533c-23.502-10.321-42.869-27.512-56.009-49.714-9.745-16.468-.488-37.47 18.251-41.464 24.54-5.231 50.348-3.002 74.465 7.588 23.502 10.321 42.869 27.512 56.009 49.714 9.745 16.467.488 37.47-18.251 41.463-24.534 5.233-50.351 3.003-74.465-7.587zm-34.63-76.506c-8.704 1.855-12.981 11.526-8.469 19.153 11.532 19.485 28.521 34.568 49.131 43.618 21.43 9.411 44.061 11.181 65.307 6.652 8.702-1.854 12.982-11.525 8.469-19.152-11.532-19.485-28.521-34.568-49.131-43.619-21.417-9.404-44.042-11.185-65.307-6.652z" fill="#f90"/></g></g></svg>